M48
; DRILL file {KiCad 8.0.7} date 2025-01-15T13:48:53-0500
; FORMAT={-:-/ absolute / metric / decimal}
; #@! TF.CreationDate,2025-01-15T13:48:53-05:00
; #@! TF.GenerationSoftware,Kicad,Pcbnew,8.0.7
; #@! TF.FileFunction,Plated,1,4,PTH
FMAT,2
METRIC
; #@! TA.AperFunction,Plated,PTH,ComponentDrill
T1C0.800
; #@! TA.AperFunction,Plated,PTH,ComponentDrill
T2C1.000
%
G90
G05
T1
X116.076Y-62.415
X116.076Y-64.955
X116.076Y-67.495
X116.076Y-70.035
X116.076Y-72.575
X116.076Y-75.115
X116.076Y-77.655
X116.076Y-80.195
X116.076Y-82.735
X116.076Y-85.275
X116.076Y-87.815
X116.076Y-90.355
X116.076Y-92.895
X116.076Y-95.435
X116.076Y-97.975
X116.076Y-100.515
X116.076Y-103.055
X116.076Y-105.595
X116.076Y-108.135
X141.472Y-105.592
X141.472Y-108.132
X141.476Y-62.415
X141.476Y-64.955
X141.476Y-67.495
X141.476Y-70.035
X141.476Y-72.575
X141.476Y-75.115
X141.476Y-77.655
X141.476Y-80.195
X141.476Y-82.735
X141.476Y-85.275
X141.476Y-87.815
X141.476Y-90.355
X141.476Y-92.895
X141.476Y-95.435
X141.476Y-97.975
X141.476Y-100.515
X141.476Y-103.055
T2
X90.297Y-79.426
X90.297Y-81.966
X90.297Y-84.507
X90.297Y-87.046
X90.297Y-89.587
X90.297Y-92.126
X90.297Y-94.666
X90.297Y-97.206
X90.297Y-99.746
X90.297Y-102.286
X90.678Y-119.561
X90.678Y-122.101
X90.678Y-124.641
X90.678Y-127.181
X90.678Y-129.721
X90.678Y-132.261
X90.678Y-134.801
X151.765Y-134.415
X151.765Y-136.955
X165.481Y-126.927
X165.481Y-129.467
X165.481Y-132.007
X165.481Y-134.547
X165.481Y-137.087
X165.608Y-64.57
X165.608Y-67.11
X165.608Y-69.65
X165.608Y-72.19
X165.608Y-74.73
X165.608Y-77.27
X165.608Y-79.81
X165.608Y-82.35
X165.608Y-84.89
X165.608Y-87.43
X165.608Y-89.97
X165.608Y-92.51
X165.608Y-95.05
X165.608Y-97.59
X165.608Y-108.512
X165.608Y-111.052
X165.608Y-113.592
X165.608Y-116.132
M30
