%TF.GenerationSoftware,KiCad,Pcbnew,8.0.7*%
%TF.CreationDate,2025-01-15T13:48:50-05:00*%
%TF.ProjectId,CPU,4350552e-6b69-4636-9164-5f7063625858,rev?*%
%TF.SameCoordinates,Original*%
%TF.FileFunction,Copper,L2,Inr*%
%TF.FilePolarity,Positive*%
%FSLAX46Y46*%
G04 Gerber Fmt 4.6, Leading zero omitted, Abs format (unit mm)*
G04 Created by KiCad (PCBNEW 8.0.7) date 2025-01-15 13:48:50*
%MOMM*%
%LPD*%
G01*
G04 APERTURE LIST*
%TA.AperFunction,ComponentPad*%
%ADD10R,1.700000X1.700000*%
%TD*%
%TA.AperFunction,ComponentPad*%
%ADD11O,1.700000X1.700000*%
%TD*%
%TA.AperFunction,ComponentPad*%
%ADD12R,2.000000X1.200000*%
%TD*%
%TA.AperFunction,ComponentPad*%
%ADD13O,2.000000X1.200000*%
%TD*%
%TA.AperFunction,Conductor*%
%ADD14C,0.200000*%
%TD*%
G04 APERTURE END LIST*
D10*
%TO.N,Net-(J5-Pin_1)*%
%TO.C,J5*%
X90678000Y-119561000D03*
D11*
%TO.N,Net-(J5-Pin_2)*%
X90678000Y-122101000D03*
%TO.N,Net-(J5-Pin_3)*%
X90678000Y-124641000D03*
%TO.N,GND*%
X90678000Y-127181000D03*
%TO.N,unconnected-(J5-Pin_5-Pad5)*%
X90678000Y-129721000D03*
%TO.N,GND*%
X90678000Y-132261000D03*
%TO.N,Net-(J1-Pin_14)*%
X90678000Y-134801000D03*
%TD*%
D10*
%TO.N,Net-(J3-Pin_1)*%
%TO.C,J3*%
X165608000Y-108512000D03*
D11*
%TO.N,Net-(J1-Pin_3)*%
X165608000Y-111052000D03*
%TO.N,Net-(J1-Pin_2)*%
X165608000Y-113592000D03*
%TO.N,Net-(J1-Pin_5)*%
X165608000Y-116132000D03*
%TD*%
D10*
%TO.N,unconnected-(J1-Pin_1-Pad1)*%
%TO.C,J1*%
X165608000Y-64570000D03*
D11*
%TO.N,Net-(J1-Pin_2)*%
X165608000Y-67110000D03*
%TO.N,Net-(J1-Pin_3)*%
X165608000Y-69650000D03*
%TO.N,Net-(J1-Pin_4)*%
X165608000Y-72190000D03*
%TO.N,Net-(J1-Pin_5)*%
X165608000Y-74730000D03*
%TO.N,Net-(J1-Pin_2)*%
X165608000Y-77270000D03*
%TO.N,Net-(J1-Pin_14)*%
X165608000Y-79810000D03*
%TO.N,Net-(J1-Pin_5)*%
X165608000Y-82350000D03*
%TO.N,unconnected-(J1-Pin_9-Pad9)*%
X165608000Y-84890000D03*
%TO.N,Net-(J1-Pin_10)*%
X165608000Y-87430000D03*
%TO.N,Net-(J1-Pin_11)*%
X165608000Y-89970000D03*
%TO.N,Net-(J1-Pin_12)*%
X165608000Y-92510000D03*
%TO.N,GND*%
X165608000Y-95050000D03*
%TO.N,Net-(J1-Pin_14)*%
X165608000Y-97590000D03*
%TD*%
D12*
%TO.N,Net-(J1-Pin_14)*%
%TO.C,U1*%
X116076000Y-62415000D03*
D13*
%TO.N,unconnected-(U1-EN-Pad2)*%
X116076000Y-64955000D03*
%TO.N,Net-(J2-Pin_1)*%
X116076000Y-67495000D03*
%TO.N,Net-(J2-Pin_2)*%
X116076000Y-70035000D03*
%TO.N,Net-(J2-Pin_3)*%
X116076000Y-72575000D03*
%TO.N,Net-(J2-Pin_4)*%
X116076000Y-75115000D03*
%TO.N,Net-(J2-Pin_5)*%
X116076000Y-77655000D03*
%TO.N,Net-(J2-Pin_6)*%
X116076000Y-80195000D03*
%TO.N,Net-(J5-Pin_1)*%
X116076000Y-82735000D03*
%TO.N,Net-(J5-Pin_2)*%
X116076000Y-85275000D03*
%TO.N,Net-(J1-Pin_4)*%
X116076000Y-87815000D03*
%TO.N,Net-(J4-Pin_1)*%
X116076000Y-90355000D03*
%TO.N,Net-(J4-Pin_2)*%
X116076000Y-92895000D03*
%TO.N,Net-(J2-Pin_10)*%
X116076000Y-95435000D03*
%TO.N,Net-(J4-Pin_3)*%
X116076000Y-97975000D03*
%TO.N,unconnected-(U1-SD2-Pad16)*%
X116076000Y-100515000D03*
%TO.N,unconnected-(U1-SD3-Pad17)*%
X116076000Y-103055000D03*
%TO.N,unconnected-(U1-CMD-Pad18)*%
X116076000Y-105595000D03*
%TO.N,Net-(J6-Pin_1)*%
X116076000Y-108135000D03*
%TO.N,unconnected-(U1-CLK-Pad20)*%
X141472320Y-108132280D03*
%TO.N,unconnected-(U1-SD0-Pad21)*%
X141472320Y-105592280D03*
%TO.N,unconnected-(U1-SD1-Pad22)*%
X141476000Y-103055000D03*
%TO.N,Net-(J1-Pin_12)*%
X141476000Y-100515000D03*
%TO.N,Net-(J1-Pin_11)*%
X141476000Y-97975000D03*
%TO.N,unconnected-(U1-IO0-Pad25)*%
X141476000Y-95435000D03*
%TO.N,Net-(J1-Pin_10)*%
X141476000Y-92895000D03*
%TO.N,Net-(J2-Pin_9)*%
X141476000Y-90355000D03*
%TO.N,Net-(J2-Pin_8)*%
X141476000Y-87815000D03*
%TO.N,Net-(J3-Pin_1)*%
X141476000Y-85275000D03*
%TO.N,Net-(J1-Pin_5)*%
X141476000Y-82735000D03*
%TO.N,Net-(J1-Pin_3)*%
X141476000Y-80195000D03*
%TO.N,unconnected-(U1-GND2-Pad32)*%
X141476000Y-77655000D03*
%TO.N,Net-(J2-Pin_7)*%
X141476000Y-75115000D03*
%TO.N,unconnected-(U1-RXD0-Pad34)*%
X141476000Y-72575000D03*
%TO.N,unconnected-(U1-TXD0-Pad35)*%
X141476000Y-70035000D03*
%TO.N,Net-(J5-Pin_3)*%
X141476000Y-67495000D03*
%TO.N,Net-(J1-Pin_2)*%
X141476000Y-64955000D03*
%TO.N,GND*%
X141476000Y-62415000D03*
%TD*%
D10*
%TO.N,Net-(J2-Pin_1)*%
%TO.C,J2*%
X90297000Y-79426500D03*
D11*
%TO.N,Net-(J2-Pin_2)*%
X90297000Y-81966500D03*
%TO.N,Net-(J2-Pin_3)*%
X90297000Y-84506500D03*
%TO.N,Net-(J2-Pin_4)*%
X90297000Y-87046500D03*
%TO.N,Net-(J2-Pin_5)*%
X90297000Y-89586500D03*
%TO.N,Net-(J2-Pin_6)*%
X90297000Y-92126500D03*
%TO.N,Net-(J2-Pin_7)*%
X90297000Y-94666500D03*
%TO.N,Net-(J2-Pin_8)*%
X90297000Y-97206500D03*
%TO.N,Net-(J2-Pin_9)*%
X90297000Y-99746500D03*
%TO.N,Net-(J2-Pin_10)*%
X90297000Y-102286500D03*
%TD*%
D10*
%TO.N,Net-(J6-Pin_1)*%
%TO.C,J6*%
X151765000Y-134415000D03*
D11*
%TO.N,GND*%
X151765000Y-136955000D03*
%TD*%
D10*
%TO.N,Net-(J4-Pin_1)*%
%TO.C,J4*%
X165481000Y-126927000D03*
D11*
%TO.N,Net-(J4-Pin_2)*%
X165481000Y-129467000D03*
%TO.N,Net-(J4-Pin_3)*%
X165481000Y-132007000D03*
%TO.N,GND*%
X165481000Y-134547000D03*
%TO.N,Net-(J1-Pin_14)*%
X165481000Y-137087000D03*
%TD*%
D14*
%TO.N,GND*%
X92837000Y-130048000D02*
X90678000Y-132207000D01*
X92837000Y-128070000D02*
X92837000Y-130048000D01*
X141476000Y-62415000D02*
X143766000Y-60125000D01*
X171323000Y-95050000D02*
X171323000Y-134547000D01*
X90678000Y-132261000D02*
X115443000Y-132261000D01*
X165481000Y-134547000D02*
X171323000Y-134547000D01*
X169291000Y-142294000D02*
X171323000Y-140262000D01*
X167005000Y-60125000D02*
X171323000Y-64443000D01*
X90678000Y-132207000D02*
X90678000Y-132261000D01*
X171323000Y-140262000D02*
X171323000Y-134547000D01*
X171323000Y-64443000D02*
X171323000Y-95050000D01*
X151765000Y-142294000D02*
X169291000Y-142294000D01*
X151765000Y-136955000D02*
X151765000Y-142294000D01*
X143766000Y-60125000D02*
X167005000Y-60125000D01*
X90678000Y-127181000D02*
X91948000Y-127181000D01*
X125476000Y-142294000D02*
X151765000Y-142294000D01*
X165608000Y-95050000D02*
X171323000Y-95050000D01*
X91948000Y-127181000D02*
X92837000Y-128070000D01*
X115443000Y-132261000D02*
X125476000Y-142294000D01*
%TO.N,Net-(J1-Pin_5)*%
X161544000Y-112068000D02*
X161544000Y-86414000D01*
X161544000Y-86414000D02*
X165608000Y-82350000D01*
X165608000Y-116132000D02*
X161544000Y-112068000D01*
%TD*%
M02*
