%TF.GenerationSoftware,KiCad,Pcbnew,8.0.7*%
%TF.CreationDate,2025-01-15T13:48:50-05:00*%
%TF.ProjectId,CPU,4350552e-6b69-4636-9164-5f7063625858,rev?*%
%TF.SameCoordinates,Original*%
%TF.FileFunction,Copper,L1,Top*%
%TF.FilePolarity,Positive*%
%FSLAX46Y46*%
G04 Gerber Fmt 4.6, Leading zero omitted, Abs format (unit mm)*
G04 Created by KiCad (PCBNEW 8.0.7) date 2025-01-15 13:48:50*
%MOMM*%
%LPD*%
G01*
G04 APERTURE LIST*
%TA.AperFunction,ComponentPad*%
%ADD10R,1.700000X1.700000*%
%TD*%
%TA.AperFunction,ComponentPad*%
%ADD11O,1.700000X1.700000*%
%TD*%
%TA.AperFunction,ComponentPad*%
%ADD12R,2.000000X1.200000*%
%TD*%
%TA.AperFunction,ComponentPad*%
%ADD13O,2.000000X1.200000*%
%TD*%
%TA.AperFunction,Conductor*%
%ADD14C,0.200000*%
%TD*%
G04 APERTURE END LIST*
D10*
%TO.P,J5,1,Pin_1*%
%TO.N,Net-(J5-Pin_1)*%
X90678000Y-119561000D03*
D11*
%TO.P,J5,2,Pin_2*%
%TO.N,Net-(J5-Pin_2)*%
X90678000Y-122101000D03*
%TO.P,J5,3,Pin_3*%
%TO.N,Net-(J5-Pin_3)*%
X90678000Y-124641000D03*
%TO.P,J5,4,Pin_4*%
%TO.N,GND*%
X90678000Y-127181000D03*
%TO.P,J5,5,Pin_5*%
%TO.N,unconnected-(J5-Pin_5-Pad5)*%
X90678000Y-129721000D03*
%TO.P,J5,6,Pin_6*%
%TO.N,GND*%
X90678000Y-132261000D03*
%TO.P,J5,7,Pin_7*%
%TO.N,Net-(J1-Pin_14)*%
X90678000Y-134801000D03*
%TD*%
D10*
%TO.P,J3,1,Pin_1*%
%TO.N,Net-(J3-Pin_1)*%
X165608000Y-108512000D03*
D11*
%TO.P,J3,2,Pin_2*%
%TO.N,Net-(J1-Pin_3)*%
X165608000Y-111052000D03*
%TO.P,J3,3,Pin_3*%
%TO.N,Net-(J1-Pin_2)*%
X165608000Y-113592000D03*
%TO.P,J3,4,Pin_4*%
%TO.N,Net-(J1-Pin_5)*%
X165608000Y-116132000D03*
%TD*%
D10*
%TO.P,J1,1,Pin_1*%
%TO.N,unconnected-(J1-Pin_1-Pad1)*%
X165608000Y-64570000D03*
D11*
%TO.P,J1,2,Pin_2*%
%TO.N,Net-(J1-Pin_2)*%
X165608000Y-67110000D03*
%TO.P,J1,3,Pin_3*%
%TO.N,Net-(J1-Pin_3)*%
X165608000Y-69650000D03*
%TO.P,J1,4,Pin_4*%
%TO.N,Net-(J1-Pin_4)*%
X165608000Y-72190000D03*
%TO.P,J1,5,Pin_5*%
%TO.N,Net-(J1-Pin_5)*%
X165608000Y-74730000D03*
%TO.P,J1,6,Pin_6*%
%TO.N,Net-(J1-Pin_2)*%
X165608000Y-77270000D03*
%TO.P,J1,7,Pin_7*%
%TO.N,Net-(J1-Pin_14)*%
X165608000Y-79810000D03*
%TO.P,J1,8,Pin_8*%
%TO.N,Net-(J1-Pin_5)*%
X165608000Y-82350000D03*
%TO.P,J1,9,Pin_9*%
%TO.N,unconnected-(J1-Pin_9-Pad9)*%
X165608000Y-84890000D03*
%TO.P,J1,10,Pin_10*%
%TO.N,Net-(J1-Pin_10)*%
X165608000Y-87430000D03*
%TO.P,J1,11,Pin_11*%
%TO.N,Net-(J1-Pin_11)*%
X165608000Y-89970000D03*
%TO.P,J1,12,Pin_12*%
%TO.N,Net-(J1-Pin_12)*%
X165608000Y-92510000D03*
%TO.P,J1,13,Pin_13*%
%TO.N,GND*%
X165608000Y-95050000D03*
%TO.P,J1,14,Pin_14*%
%TO.N,Net-(J1-Pin_14)*%
X165608000Y-97590000D03*
%TD*%
D12*
%TO.P,U1,1,3V3*%
%TO.N,Net-(J1-Pin_14)*%
X116076000Y-62415000D03*
D13*
%TO.P,U1,2,EN*%
%TO.N,unconnected-(U1-EN-Pad2)*%
X116076000Y-64955000D03*
%TO.P,U1,3,SENSOR_VP*%
%TO.N,Net-(J2-Pin_1)*%
X116076000Y-67495000D03*
%TO.P,U1,4,SENSOR_VN*%
%TO.N,Net-(J2-Pin_2)*%
X116076000Y-70035000D03*
%TO.P,U1,5,IO34*%
%TO.N,Net-(J2-Pin_3)*%
X116076000Y-72575000D03*
%TO.P,U1,6,IO35*%
%TO.N,Net-(J2-Pin_4)*%
X116076000Y-75115000D03*
%TO.P,U1,7,IO32*%
%TO.N,Net-(J2-Pin_5)*%
X116076000Y-77655000D03*
%TO.P,U1,8,IO33*%
%TO.N,Net-(J2-Pin_6)*%
X116076000Y-80195000D03*
%TO.P,U1,9,IO25*%
%TO.N,Net-(J5-Pin_1)*%
X116076000Y-82735000D03*
%TO.P,U1,10,IO26*%
%TO.N,Net-(J5-Pin_2)*%
X116076000Y-85275000D03*
%TO.P,U1,11,IO27*%
%TO.N,Net-(J1-Pin_4)*%
X116076000Y-87815000D03*
%TO.P,U1,12,IO14*%
%TO.N,Net-(J4-Pin_1)*%
X116076000Y-90355000D03*
%TO.P,U1,13,IO12*%
%TO.N,Net-(J4-Pin_2)*%
X116076000Y-92895000D03*
%TO.P,U1,14,GND1*%
%TO.N,Net-(J2-Pin_10)*%
X116076000Y-95435000D03*
%TO.P,U1,15,IO13*%
%TO.N,Net-(J4-Pin_3)*%
X116076000Y-97975000D03*
%TO.P,U1,16,SD2*%
%TO.N,unconnected-(U1-SD2-Pad16)*%
X116076000Y-100515000D03*
%TO.P,U1,17,SD3*%
%TO.N,unconnected-(U1-SD3-Pad17)*%
X116076000Y-103055000D03*
%TO.P,U1,18,CMD*%
%TO.N,unconnected-(U1-CMD-Pad18)*%
X116076000Y-105595000D03*
%TO.P,U1,19,EXT_5V*%
%TO.N,Net-(J6-Pin_1)*%
X116076000Y-108135000D03*
%TO.P,U1,20,CLK*%
%TO.N,unconnected-(U1-CLK-Pad20)*%
X141472320Y-108132280D03*
%TO.P,U1,21,SD0*%
%TO.N,unconnected-(U1-SD0-Pad21)*%
X141472320Y-105592280D03*
%TO.P,U1,22,SD1*%
%TO.N,unconnected-(U1-SD1-Pad22)*%
X141476000Y-103055000D03*
%TO.P,U1,23,IO15*%
%TO.N,Net-(J1-Pin_12)*%
X141476000Y-100515000D03*
%TO.P,U1,24,IO2*%
%TO.N,Net-(J1-Pin_11)*%
X141476000Y-97975000D03*
%TO.P,U1,25,IO0*%
%TO.N,unconnected-(U1-IO0-Pad25)*%
X141476000Y-95435000D03*
%TO.P,U1,26,IO4*%
%TO.N,Net-(J1-Pin_10)*%
X141476000Y-92895000D03*
%TO.P,U1,27,IO16*%
%TO.N,Net-(J2-Pin_9)*%
X141476000Y-90355000D03*
%TO.P,U1,28,IO17*%
%TO.N,Net-(J2-Pin_8)*%
X141476000Y-87815000D03*
%TO.P,U1,29,IO5*%
%TO.N,Net-(J3-Pin_1)*%
X141476000Y-85275000D03*
%TO.P,U1,30,IO18*%
%TO.N,Net-(J1-Pin_5)*%
X141476000Y-82735000D03*
%TO.P,U1,31,IO19*%
%TO.N,Net-(J1-Pin_3)*%
X141476000Y-80195000D03*
%TO.P,U1,32,GND2*%
%TO.N,unconnected-(U1-GND2-Pad32)*%
X141476000Y-77655000D03*
%TO.P,U1,33,IO21*%
%TO.N,Net-(J2-Pin_7)*%
X141476000Y-75115000D03*
%TO.P,U1,34,RXD0*%
%TO.N,unconnected-(U1-RXD0-Pad34)*%
X141476000Y-72575000D03*
%TO.P,U1,35,TXD0*%
%TO.N,unconnected-(U1-TXD0-Pad35)*%
X141476000Y-70035000D03*
%TO.P,U1,36,IO22*%
%TO.N,Net-(J5-Pin_3)*%
X141476000Y-67495000D03*
%TO.P,U1,37,IO23*%
%TO.N,Net-(J1-Pin_2)*%
X141476000Y-64955000D03*
%TO.P,U1,38,GND3*%
%TO.N,GND*%
X141476000Y-62415000D03*
%TD*%
D10*
%TO.P,J2,1,Pin_1*%
%TO.N,Net-(J2-Pin_1)*%
X90297000Y-79426500D03*
D11*
%TO.P,J2,2,Pin_2*%
%TO.N,Net-(J2-Pin_2)*%
X90297000Y-81966500D03*
%TO.P,J2,3,Pin_3*%
%TO.N,Net-(J2-Pin_3)*%
X90297000Y-84506500D03*
%TO.P,J2,4,Pin_4*%
%TO.N,Net-(J2-Pin_4)*%
X90297000Y-87046500D03*
%TO.P,J2,5,Pin_5*%
%TO.N,Net-(J2-Pin_5)*%
X90297000Y-89586500D03*
%TO.P,J2,6,Pin_6*%
%TO.N,Net-(J2-Pin_6)*%
X90297000Y-92126500D03*
%TO.P,J2,7,Pin_7*%
%TO.N,Net-(J2-Pin_7)*%
X90297000Y-94666500D03*
%TO.P,J2,8,Pin_8*%
%TO.N,Net-(J2-Pin_8)*%
X90297000Y-97206500D03*
%TO.P,J2,9,Pin_9*%
%TO.N,Net-(J2-Pin_9)*%
X90297000Y-99746500D03*
%TO.P,J2,10,Pin_10*%
%TO.N,Net-(J2-Pin_10)*%
X90297000Y-102286500D03*
%TD*%
D10*
%TO.P,J6,1,Pin_1*%
%TO.N,Net-(J6-Pin_1)*%
X151765000Y-134415000D03*
D11*
%TO.P,J6,2,Pin_2*%
%TO.N,GND*%
X151765000Y-136955000D03*
%TD*%
D10*
%TO.P,J4,1,Pin_1*%
%TO.N,Net-(J4-Pin_1)*%
X165481000Y-126927000D03*
D11*
%TO.P,J4,2,Pin_2*%
%TO.N,Net-(J4-Pin_2)*%
X165481000Y-129467000D03*
%TO.P,J4,3,Pin_3*%
%TO.N,Net-(J4-Pin_3)*%
X165481000Y-132007000D03*
%TO.P,J4,4,Pin_4*%
%TO.N,GND*%
X165481000Y-134547000D03*
%TO.P,J4,5,Pin_5*%
%TO.N,Net-(J1-Pin_14)*%
X165481000Y-137087000D03*
%TD*%
D14*
%TO.N,Net-(J1-Pin_3)*%
X162814000Y-108258000D02*
X162814000Y-108077000D01*
X162814000Y-108077000D02*
X162814000Y-72444000D01*
X165608000Y-111052000D02*
X162814000Y-108258000D01*
X162814000Y-72444000D02*
X165608000Y-69650000D01*
X141476000Y-80195000D02*
X162814000Y-80195000D01*
%TO.N,Net-(J2-Pin_8)*%
X141476000Y-87809000D02*
X141476000Y-87815000D01*
X103505000Y-84001000D02*
X137668000Y-84001000D01*
X137668000Y-84001000D02*
X141476000Y-87809000D01*
X141474000Y-87815000D02*
X141476000Y-87815000D01*
X90297000Y-97209000D02*
X103505000Y-84001000D01*
%TO.N,Net-(J2-Pin_1)*%
X102231000Y-67495000D02*
X90297000Y-79429000D01*
X116076000Y-67495000D02*
X102231000Y-67495000D01*
%TO.N,Net-(J2-Pin_9)*%
X103632000Y-86414000D02*
X137668000Y-86414000D01*
X90297000Y-99749000D02*
X103632000Y-86414000D01*
X137668000Y-86414000D02*
X141476000Y-90222000D01*
X141476000Y-90222000D02*
X141476000Y-90355000D01*
%TO.N,Net-(J2-Pin_2)*%
X102231000Y-70035000D02*
X90297000Y-81969000D01*
X116076000Y-70035000D02*
X102231000Y-70035000D01*
%TO.N,Net-(J2-Pin_10)*%
X97151000Y-95435000D02*
X116076000Y-95435000D01*
X90297000Y-102289000D02*
X97151000Y-95435000D01*
%TO.N,Net-(J2-Pin_5)*%
X116076000Y-77655000D02*
X102231000Y-77655000D01*
X102231000Y-77655000D02*
X90297000Y-89589000D01*
%TO.N,Net-(J2-Pin_7)*%
X126873000Y-76254000D02*
X140462000Y-76254000D01*
X140462000Y-76254000D02*
X141476000Y-75240000D01*
X103505000Y-81461000D02*
X121666000Y-81461000D01*
X141476000Y-75240000D02*
X141476000Y-75115000D01*
X90297000Y-94669000D02*
X103505000Y-81461000D01*
X121666000Y-81461000D02*
X126873000Y-76254000D01*
%TO.N,Net-(J2-Pin_6)*%
X116076000Y-80195000D02*
X102231000Y-80195000D01*
X102231000Y-80195000D02*
X90297000Y-92129000D01*
%TO.N,Net-(J2-Pin_4)*%
X102231000Y-75115000D02*
X90297000Y-87049000D01*
X116076000Y-75115000D02*
X102231000Y-75115000D01*
%TO.N,Net-(J2-Pin_3)*%
X102231000Y-72575000D02*
X90297000Y-84509000D01*
X116076000Y-72575000D02*
X102231000Y-72575000D01*
%TO.N,Net-(J4-Pin_2)*%
X116076000Y-92895000D02*
X132065000Y-92895000D01*
X157353000Y-129467000D02*
X165481000Y-129467000D01*
X132065000Y-92895000D02*
X134620000Y-95450000D01*
X134620000Y-95450000D02*
X134620000Y-106734000D01*
X134620000Y-106734000D02*
X157353000Y-129467000D01*
%TO.N,Net-(J4-Pin_1)*%
X135890000Y-106226000D02*
X156591000Y-126927000D01*
X135890000Y-94542000D02*
X135890000Y-106226000D01*
X156591000Y-126927000D02*
X165481000Y-126927000D01*
X116076000Y-90355000D02*
X131703000Y-90355000D01*
X131703000Y-90355000D02*
X135890000Y-94542000D01*
%TO.N,Net-(J4-Pin_3)*%
X133350000Y-98733000D02*
X133350000Y-107115000D01*
X158242000Y-132007000D02*
X165481000Y-132007000D01*
X133350000Y-107115000D02*
X158242000Y-132007000D01*
X132592000Y-97975000D02*
X133350000Y-98733000D01*
X116076000Y-97975000D02*
X132592000Y-97975000D01*
%TO.N,Net-(J6-Pin_1)*%
X116076000Y-108135000D02*
X125485000Y-108135000D01*
X125485000Y-108135000D02*
X151765000Y-134415000D01*
%TD*%
M02*
