%TF.GenerationSoftware,KiCad,Pcbnew,8.0.7*%
%TF.CreationDate,2025-01-15T13:48:50-05:00*%
%TF.ProjectId,CPU,4350552e-6b69-4636-9164-5f7063625858,rev?*%
%TF.SameCoordinates,Original*%
%TF.FileFunction,Soldermask,Bot*%
%TF.FilePolarity,Negative*%
%FSLAX46Y46*%
G04 Gerber Fmt 4.6, Leading zero omitted, Abs format (unit mm)*
G04 Created by KiCad (PCBNEW 8.0.7) date 2025-01-15 13:48:50*
%MOMM*%
%LPD*%
G01*
G04 APERTURE LIST*
%ADD10R,1.700000X1.700000*%
%ADD11O,1.700000X1.700000*%
%ADD12R,2.000000X1.200000*%
%ADD13O,2.000000X1.200000*%
G04 APERTURE END LIST*
D10*
%TO.C,J5*%
X90678000Y-119561000D03*
D11*
X90678000Y-122101000D03*
X90678000Y-124641000D03*
X90678000Y-127181000D03*
X90678000Y-129721000D03*
X90678000Y-132261000D03*
X90678000Y-134801000D03*
%TD*%
D10*
%TO.C,J3*%
X165608000Y-108512000D03*
D11*
X165608000Y-111052000D03*
X165608000Y-113592000D03*
X165608000Y-116132000D03*
%TD*%
D10*
%TO.C,J1*%
X165608000Y-64570000D03*
D11*
X165608000Y-67110000D03*
X165608000Y-69650000D03*
X165608000Y-72190000D03*
X165608000Y-74730000D03*
X165608000Y-77270000D03*
X165608000Y-79810000D03*
X165608000Y-82350000D03*
X165608000Y-84890000D03*
X165608000Y-87430000D03*
X165608000Y-89970000D03*
X165608000Y-92510000D03*
X165608000Y-95050000D03*
X165608000Y-97590000D03*
%TD*%
D12*
%TO.C,U1*%
X116076000Y-62415000D03*
D13*
X116076000Y-64955000D03*
X116076000Y-67495000D03*
X116076000Y-70035000D03*
X116076000Y-72575000D03*
X116076000Y-75115000D03*
X116076000Y-77655000D03*
X116076000Y-80195000D03*
X116076000Y-82735000D03*
X116076000Y-85275000D03*
X116076000Y-87815000D03*
X116076000Y-90355000D03*
X116076000Y-92895000D03*
X116076000Y-95435000D03*
X116076000Y-97975000D03*
X116076000Y-100515000D03*
X116076000Y-103055000D03*
X116076000Y-105595000D03*
X116076000Y-108135000D03*
X141472320Y-108132280D03*
X141472320Y-105592280D03*
X141476000Y-103055000D03*
X141476000Y-100515000D03*
X141476000Y-97975000D03*
X141476000Y-95435000D03*
X141476000Y-92895000D03*
X141476000Y-90355000D03*
X141476000Y-87815000D03*
X141476000Y-85275000D03*
X141476000Y-82735000D03*
X141476000Y-80195000D03*
X141476000Y-77655000D03*
X141476000Y-75115000D03*
X141476000Y-72575000D03*
X141476000Y-70035000D03*
X141476000Y-67495000D03*
X141476000Y-64955000D03*
X141476000Y-62415000D03*
%TD*%
D10*
%TO.C,J2*%
X90297000Y-79426500D03*
D11*
X90297000Y-81966500D03*
X90297000Y-84506500D03*
X90297000Y-87046500D03*
X90297000Y-89586500D03*
X90297000Y-92126500D03*
X90297000Y-94666500D03*
X90297000Y-97206500D03*
X90297000Y-99746500D03*
X90297000Y-102286500D03*
%TD*%
D10*
%TO.C,J6*%
X151765000Y-134415000D03*
D11*
X151765000Y-136955000D03*
%TD*%
D10*
%TO.C,J4*%
X165481000Y-126927000D03*
D11*
X165481000Y-129467000D03*
X165481000Y-132007000D03*
X165481000Y-134547000D03*
X165481000Y-137087000D03*
%TD*%
M02*
