%TF.GenerationSoftware,KiCad,Pcbnew,8.0.7*%
%TF.CreationDate,2025-01-15T13:48:55-05:00*%
%TF.ProjectId,CPU,4350552e-6b69-4636-9164-5f7063625858,rev?*%
%TF.SameCoordinates,Original*%
%TF.FileFunction,Drillmap*%
%TF.FilePolarity,Positive*%
%FSLAX45Y45*%
G04 Gerber Fmt 4.5, Leading zero omitted, Abs format (unit mm)*
G04 Created by KiCad (PCBNEW 8.0.7) date 2025-01-15 13:48:55*
%MOMM*%
%LPD*%
G01*
G04 APERTURE LIST*
%ADD10C,0.050000*%
%ADD11C,0.200000*%
G04 APERTURE END LIST*
D10*
X8500000Y-5000000D02*
X17500000Y-5000000D01*
X17500000Y-15000000D01*
X8500000Y-15000000D01*
X8500000Y-5000000D01*
D11*
X8758277Y-15313984D02*
X8758277Y-15113984D01*
X8758277Y-15113984D02*
X8805896Y-15113984D01*
X8805896Y-15113984D02*
X8834467Y-15123508D01*
X8834467Y-15123508D02*
X8853515Y-15142555D01*
X8853515Y-15142555D02*
X8863039Y-15161603D01*
X8863039Y-15161603D02*
X8872563Y-15199698D01*
X8872563Y-15199698D02*
X8872563Y-15228269D01*
X8872563Y-15228269D02*
X8863039Y-15266365D01*
X8863039Y-15266365D02*
X8853515Y-15285412D01*
X8853515Y-15285412D02*
X8834467Y-15304460D01*
X8834467Y-15304460D02*
X8805896Y-15313984D01*
X8805896Y-15313984D02*
X8758277Y-15313984D01*
X8958277Y-15313984D02*
X8958277Y-15180650D01*
X8958277Y-15218746D02*
X8967801Y-15199698D01*
X8967801Y-15199698D02*
X8977324Y-15190174D01*
X8977324Y-15190174D02*
X8996372Y-15180650D01*
X8996372Y-15180650D02*
X9015420Y-15180650D01*
X9082086Y-15313984D02*
X9082086Y-15180650D01*
X9082086Y-15113984D02*
X9072563Y-15123508D01*
X9072563Y-15123508D02*
X9082086Y-15133031D01*
X9082086Y-15133031D02*
X9091610Y-15123508D01*
X9091610Y-15123508D02*
X9082086Y-15113984D01*
X9082086Y-15113984D02*
X9082086Y-15133031D01*
X9205896Y-15313984D02*
X9186848Y-15304460D01*
X9186848Y-15304460D02*
X9177324Y-15285412D01*
X9177324Y-15285412D02*
X9177324Y-15113984D01*
X9310658Y-15313984D02*
X9291610Y-15304460D01*
X9291610Y-15304460D02*
X9282086Y-15285412D01*
X9282086Y-15285412D02*
X9282086Y-15113984D01*
X9539229Y-15313984D02*
X9539229Y-15113984D01*
X9539229Y-15113984D02*
X9605896Y-15256841D01*
X9605896Y-15256841D02*
X9672563Y-15113984D01*
X9672563Y-15113984D02*
X9672563Y-15313984D01*
X9853515Y-15313984D02*
X9853515Y-15209222D01*
X9853515Y-15209222D02*
X9843991Y-15190174D01*
X9843991Y-15190174D02*
X9824944Y-15180650D01*
X9824944Y-15180650D02*
X9786848Y-15180650D01*
X9786848Y-15180650D02*
X9767801Y-15190174D01*
X9853515Y-15304460D02*
X9834467Y-15313984D01*
X9834467Y-15313984D02*
X9786848Y-15313984D01*
X9786848Y-15313984D02*
X9767801Y-15304460D01*
X9767801Y-15304460D02*
X9758277Y-15285412D01*
X9758277Y-15285412D02*
X9758277Y-15266365D01*
X9758277Y-15266365D02*
X9767801Y-15247317D01*
X9767801Y-15247317D02*
X9786848Y-15237793D01*
X9786848Y-15237793D02*
X9834467Y-15237793D01*
X9834467Y-15237793D02*
X9853515Y-15228269D01*
X9948753Y-15180650D02*
X9948753Y-15380650D01*
X9948753Y-15190174D02*
X9967801Y-15180650D01*
X9967801Y-15180650D02*
X10005896Y-15180650D01*
X10005896Y-15180650D02*
X10024944Y-15190174D01*
X10024944Y-15190174D02*
X10034467Y-15199698D01*
X10034467Y-15199698D02*
X10043991Y-15218746D01*
X10043991Y-15218746D02*
X10043991Y-15275888D01*
X10043991Y-15275888D02*
X10034467Y-15294936D01*
X10034467Y-15294936D02*
X10024944Y-15304460D01*
X10024944Y-15304460D02*
X10005896Y-15313984D01*
X10005896Y-15313984D02*
X9967801Y-15313984D01*
X9967801Y-15313984D02*
X9948753Y-15304460D01*
X10129705Y-15294936D02*
X10139229Y-15304460D01*
X10139229Y-15304460D02*
X10129705Y-15313984D01*
X10129705Y-15313984D02*
X10120182Y-15304460D01*
X10120182Y-15304460D02*
X10129705Y-15294936D01*
X10129705Y-15294936D02*
X10129705Y-15313984D01*
X10129705Y-15190174D02*
X10139229Y-15199698D01*
X10139229Y-15199698D02*
X10129705Y-15209222D01*
X10129705Y-15209222D02*
X10120182Y-15199698D01*
X10120182Y-15199698D02*
X10129705Y-15190174D01*
X10129705Y-15190174D02*
X10129705Y-15209222D01*
M02*
