%TF.GenerationSoftware,KiCad,Pcbnew,7.0.6*%
%TF.CreationDate,2024-12-08T10:07:49-05:00*%
%TF.ProjectId,Keypad,4b657970-6164-42e6-9b69-6361645f7063,rev?*%
%TF.SameCoordinates,Original*%
%TF.FileFunction,Drillmap*%
%TF.FilePolarity,Positive*%
%FSLAX45Y45*%
G04 Gerber Fmt 4.5, Leading zero omitted, Abs format (unit mm)*
G04 Created by KiCad (PCBNEW 7.0.6) date 2024-12-08 10:07:49*
%MOMM*%
%LPD*%
G01*
G04 APERTURE LIST*
%ADD10C,0.200000*%
%ADD11C,0.080000*%
%ADD12C,0.100000*%
%ADD13C,0.120000*%
G04 APERTURE END LIST*
D10*
X13000000Y-2500000D02*
X23000000Y-2500000D01*
X23000000Y-11500000D02*
X13000000Y-11500000D01*
X23000000Y-2500000D02*
X23000000Y-11500000D01*
X13000000Y-11500000D02*
X13000000Y-2500000D01*
D11*
X14015500Y-2734000D02*
X14095500Y-2814000D01*
X14095500Y-2734000D02*
X14015500Y-2814000D01*
X14015500Y-4512000D02*
X14095500Y-4592000D01*
X14095500Y-4512000D02*
X14015500Y-4592000D01*
X14015500Y-6290000D02*
X14095500Y-6370000D01*
X14095500Y-6290000D02*
X14015500Y-6370000D01*
X14015500Y-8068000D02*
X14095500Y-8148000D01*
X14095500Y-8068000D02*
X14015500Y-8148000D01*
X14777500Y-2734000D02*
X14857500Y-2814000D01*
X14857500Y-2734000D02*
X14777500Y-2814000D01*
X14777500Y-4512000D02*
X14857500Y-4592000D01*
X14857500Y-4512000D02*
X14777500Y-4592000D01*
X14777500Y-6290000D02*
X14857500Y-6370000D01*
X14857500Y-6290000D02*
X14777500Y-6370000D01*
X14777500Y-8068000D02*
X14857500Y-8148000D01*
X14857500Y-8068000D02*
X14777500Y-8148000D01*
X15793500Y-2734000D02*
X15873500Y-2814000D01*
X15873500Y-2734000D02*
X15793500Y-2814000D01*
X15793500Y-4512000D02*
X15873500Y-4592000D01*
X15873500Y-4512000D02*
X15793500Y-4592000D01*
X15793500Y-6290000D02*
X15873500Y-6370000D01*
X15873500Y-6290000D02*
X15793500Y-6370000D01*
X15793500Y-8068000D02*
X15873500Y-8148000D01*
X15873500Y-8068000D02*
X15793500Y-8148000D01*
X16555500Y-2734000D02*
X16635500Y-2814000D01*
X16635500Y-2734000D02*
X16555500Y-2814000D01*
X16555500Y-4512000D02*
X16635500Y-4592000D01*
X16635500Y-4512000D02*
X16555500Y-4592000D01*
X16555500Y-6290000D02*
X16635500Y-6370000D01*
X16635500Y-6290000D02*
X16555500Y-6370000D01*
X16555500Y-8068000D02*
X16635500Y-8148000D01*
X16635500Y-8068000D02*
X16555500Y-8148000D01*
X17571500Y-2734000D02*
X17651500Y-2814000D01*
X17651500Y-2734000D02*
X17571500Y-2814000D01*
X17571500Y-4512000D02*
X17651500Y-4592000D01*
X17651500Y-4512000D02*
X17571500Y-4592000D01*
X17571500Y-6290000D02*
X17651500Y-6370000D01*
X17651500Y-6290000D02*
X17571500Y-6370000D01*
X17571500Y-8068000D02*
X17651500Y-8148000D01*
X17651500Y-8068000D02*
X17571500Y-8148000D01*
X18333500Y-2734000D02*
X18413500Y-2814000D01*
X18413500Y-2734000D02*
X18333500Y-2814000D01*
X18333500Y-4512000D02*
X18413500Y-4592000D01*
X18413500Y-4512000D02*
X18333500Y-4592000D01*
X18333500Y-6290000D02*
X18413500Y-6370000D01*
X18413500Y-6290000D02*
X18333500Y-6370000D01*
X18333500Y-8068000D02*
X18413500Y-8148000D01*
X18413500Y-8068000D02*
X18333500Y-8148000D01*
X19245000Y-11145000D02*
X19325000Y-11225000D01*
X19325000Y-11145000D02*
X19245000Y-11225000D01*
X19349500Y-2734000D02*
X19429500Y-2814000D01*
X19429500Y-2734000D02*
X19349500Y-2814000D01*
X19349500Y-4512000D02*
X19429500Y-4592000D01*
X19429500Y-4512000D02*
X19349500Y-4592000D01*
X19349500Y-6290000D02*
X19429500Y-6370000D01*
X19429500Y-6290000D02*
X19349500Y-6370000D01*
X19349500Y-8068000D02*
X19429500Y-8148000D01*
X19429500Y-8068000D02*
X19349500Y-8148000D01*
X19499000Y-11145000D02*
X19579000Y-11225000D01*
X19579000Y-11145000D02*
X19499000Y-11225000D01*
X19805000Y-11157500D02*
X19885000Y-11237500D01*
X19885000Y-11157500D02*
X19805000Y-11237500D01*
X20059000Y-11157500D02*
X20139000Y-11237500D01*
X20139000Y-11157500D02*
X20059000Y-11237500D01*
X20111500Y-2734000D02*
X20191500Y-2814000D01*
X20191500Y-2734000D02*
X20111500Y-2814000D01*
X20111500Y-4512000D02*
X20191500Y-4592000D01*
X20191500Y-4512000D02*
X20111500Y-4592000D01*
X20111500Y-6290000D02*
X20191500Y-6370000D01*
X20191500Y-6290000D02*
X20111500Y-6370000D01*
X20111500Y-8068000D02*
X20191500Y-8148000D01*
X20191500Y-8068000D02*
X20111500Y-8148000D01*
X20372500Y-11157500D02*
X20452500Y-11237500D01*
X20452500Y-11157500D02*
X20372500Y-11237500D01*
X20626500Y-11157500D02*
X20706500Y-11237500D01*
X20706500Y-11157500D02*
X20626500Y-11237500D01*
X20935000Y-11157500D02*
X21015000Y-11237500D01*
X21015000Y-11157500D02*
X20935000Y-11237500D01*
X21127500Y-2734000D02*
X21207500Y-2814000D01*
X21207500Y-2734000D02*
X21127500Y-2814000D01*
X21127500Y-4512000D02*
X21207500Y-4592000D01*
X21207500Y-4512000D02*
X21127500Y-4592000D01*
X21127500Y-6290000D02*
X21207500Y-6370000D01*
X21207500Y-6290000D02*
X21127500Y-6370000D01*
X21127500Y-8068000D02*
X21207500Y-8148000D01*
X21207500Y-8068000D02*
X21127500Y-8148000D01*
X21189000Y-11157500D02*
X21269000Y-11237500D01*
X21269000Y-11157500D02*
X21189000Y-11237500D01*
X21502500Y-11160000D02*
X21582500Y-11240000D01*
X21582500Y-11160000D02*
X21502500Y-11240000D01*
X21756500Y-11160000D02*
X21836500Y-11240000D01*
X21836500Y-11160000D02*
X21756500Y-11240000D01*
X21889500Y-2734000D02*
X21969500Y-2814000D01*
X21969500Y-2734000D02*
X21889500Y-2814000D01*
X21889500Y-4512000D02*
X21969500Y-4592000D01*
X21969500Y-4512000D02*
X21889500Y-4592000D01*
X21889500Y-6290000D02*
X21969500Y-6370000D01*
X21969500Y-6290000D02*
X21889500Y-6370000D01*
X21889500Y-8068000D02*
X21969500Y-8148000D01*
X21969500Y-8068000D02*
X21889500Y-8148000D01*
D12*
X16388000Y-10387500D02*
G75*
G03*
X16388000Y-10387500I-50000J0D01*
G01*
X16642000Y-10387500D02*
G75*
G03*
X16642000Y-10387500I-50000J0D01*
G01*
X16896000Y-10387500D02*
G75*
G03*
X16896000Y-10387500I-50000J0D01*
G01*
X17150000Y-10387500D02*
G75*
G03*
X17150000Y-10387500I-50000J0D01*
G01*
X17404000Y-10387500D02*
G75*
G03*
X17404000Y-10387500I-50000J0D01*
G01*
X17658000Y-10387500D02*
G75*
G03*
X17658000Y-10387500I-50000J0D01*
G01*
X17912000Y-10387500D02*
G75*
G03*
X17912000Y-10387500I-50000J0D01*
G01*
X18166000Y-10387500D02*
G75*
G03*
X18166000Y-10387500I-50000J0D01*
G01*
X18420000Y-10387500D02*
G75*
G03*
X18420000Y-10387500I-50000J0D01*
G01*
X18674000Y-10387500D02*
G75*
G03*
X18674000Y-10387500I-50000J0D01*
G01*
D13*
X13817500Y-5028000D02*
X13817500Y-5148000D01*
X13757500Y-5088000D02*
X13877500Y-5088000D01*
X13817500Y-5528000D02*
X13817500Y-5648000D01*
X13757500Y-5588000D02*
X13877500Y-5588000D01*
X13817500Y-6786000D02*
X13817500Y-6906000D01*
X13757500Y-6846000D02*
X13877500Y-6846000D01*
X13817500Y-7286000D02*
X13817500Y-7406000D01*
X13757500Y-7346000D02*
X13877500Y-7346000D01*
X13817500Y-8584000D02*
X13817500Y-8704000D01*
X13757500Y-8644000D02*
X13877500Y-8644000D01*
X13817500Y-9084000D02*
X13817500Y-9204000D01*
X13757500Y-9144000D02*
X13877500Y-9144000D01*
X13821500Y-3236000D02*
X13821500Y-3356000D01*
X13761500Y-3296000D02*
X13881500Y-3296000D01*
X13821500Y-3736000D02*
X13821500Y-3856000D01*
X13761500Y-3796000D02*
X13881500Y-3796000D01*
X15067500Y-5028000D02*
X15067500Y-5148000D01*
X15007500Y-5088000D02*
X15127500Y-5088000D01*
X15067500Y-5528000D02*
X15067500Y-5648000D01*
X15007500Y-5588000D02*
X15127500Y-5588000D01*
X15067500Y-6786000D02*
X15067500Y-6906000D01*
X15007500Y-6846000D02*
X15127500Y-6846000D01*
X15067500Y-7286000D02*
X15067500Y-7406000D01*
X15007500Y-7346000D02*
X15127500Y-7346000D01*
X15067500Y-8584000D02*
X15067500Y-8704000D01*
X15007500Y-8644000D02*
X15127500Y-8644000D01*
X15067500Y-9084000D02*
X15067500Y-9204000D01*
X15007500Y-9144000D02*
X15127500Y-9144000D01*
X15071500Y-3236000D02*
X15071500Y-3356000D01*
X15011500Y-3296000D02*
X15131500Y-3296000D01*
X15071500Y-3736000D02*
X15071500Y-3856000D01*
X15011500Y-3796000D02*
X15131500Y-3796000D01*
X15591500Y-3236000D02*
X15591500Y-3356000D01*
X15531500Y-3296000D02*
X15651500Y-3296000D01*
X15591500Y-3736000D02*
X15591500Y-3856000D01*
X15531500Y-3796000D02*
X15651500Y-3796000D01*
X15595500Y-5028000D02*
X15595500Y-5148000D01*
X15535500Y-5088000D02*
X15655500Y-5088000D01*
X15595500Y-5528000D02*
X15595500Y-5648000D01*
X15535500Y-5588000D02*
X15655500Y-5588000D01*
X15595500Y-6786000D02*
X15595500Y-6906000D01*
X15535500Y-6846000D02*
X15655500Y-6846000D01*
X15595500Y-7286000D02*
X15595500Y-7406000D01*
X15535500Y-7346000D02*
X15655500Y-7346000D01*
X15595500Y-8584000D02*
X15595500Y-8704000D01*
X15535500Y-8644000D02*
X15655500Y-8644000D01*
X15595500Y-9084000D02*
X15595500Y-9204000D01*
X15535500Y-9144000D02*
X15655500Y-9144000D01*
X16841500Y-3236000D02*
X16841500Y-3356000D01*
X16781500Y-3296000D02*
X16901500Y-3296000D01*
X16841500Y-3736000D02*
X16841500Y-3856000D01*
X16781500Y-3796000D02*
X16901500Y-3796000D01*
X16845500Y-5028000D02*
X16845500Y-5148000D01*
X16785500Y-5088000D02*
X16905500Y-5088000D01*
X16845500Y-5528000D02*
X16845500Y-5648000D01*
X16785500Y-5588000D02*
X16905500Y-5588000D01*
X16845500Y-6786000D02*
X16845500Y-6906000D01*
X16785500Y-6846000D02*
X16905500Y-6846000D01*
X16845500Y-7286000D02*
X16845500Y-7406000D01*
X16785500Y-7346000D02*
X16905500Y-7346000D01*
X16845500Y-8584000D02*
X16845500Y-8704000D01*
X16785500Y-8644000D02*
X16905500Y-8644000D01*
X16845500Y-9084000D02*
X16845500Y-9204000D01*
X16785500Y-9144000D02*
X16905500Y-9144000D01*
X17369500Y-3236000D02*
X17369500Y-3356000D01*
X17309500Y-3296000D02*
X17429500Y-3296000D01*
X17369500Y-3736000D02*
X17369500Y-3856000D01*
X17309500Y-3796000D02*
X17429500Y-3796000D01*
X17369500Y-5028000D02*
X17369500Y-5148000D01*
X17309500Y-5088000D02*
X17429500Y-5088000D01*
X17369500Y-5528000D02*
X17369500Y-5648000D01*
X17309500Y-5588000D02*
X17429500Y-5588000D01*
X17373500Y-6786000D02*
X17373500Y-6906000D01*
X17313500Y-6846000D02*
X17433500Y-6846000D01*
X17373500Y-7286000D02*
X17373500Y-7406000D01*
X17313500Y-7346000D02*
X17433500Y-7346000D01*
X17373500Y-8584000D02*
X17373500Y-8704000D01*
X17313500Y-8644000D02*
X17433500Y-8644000D01*
X17373500Y-9084000D02*
X17373500Y-9204000D01*
X17313500Y-9144000D02*
X17433500Y-9144000D01*
X18619500Y-3236000D02*
X18619500Y-3356000D01*
X18559500Y-3296000D02*
X18679500Y-3296000D01*
X18619500Y-3736000D02*
X18619500Y-3856000D01*
X18559500Y-3796000D02*
X18679500Y-3796000D01*
X18619500Y-5028000D02*
X18619500Y-5148000D01*
X18559500Y-5088000D02*
X18679500Y-5088000D01*
X18619500Y-5528000D02*
X18619500Y-5648000D01*
X18559500Y-5588000D02*
X18679500Y-5588000D01*
X18623500Y-6786000D02*
X18623500Y-6906000D01*
X18563500Y-6846000D02*
X18683500Y-6846000D01*
X18623500Y-7286000D02*
X18623500Y-7406000D01*
X18563500Y-7346000D02*
X18683500Y-7346000D01*
X18623500Y-8584000D02*
X18623500Y-8704000D01*
X18563500Y-8644000D02*
X18683500Y-8644000D01*
X18623500Y-9084000D02*
X18623500Y-9204000D01*
X18563500Y-9144000D02*
X18683500Y-9144000D01*
X19147500Y-3236000D02*
X19147500Y-3356000D01*
X19087500Y-3296000D02*
X19207500Y-3296000D01*
X19147500Y-3736000D02*
X19147500Y-3856000D01*
X19087500Y-3796000D02*
X19207500Y-3796000D01*
X19155500Y-5028000D02*
X19155500Y-5148000D01*
X19095500Y-5088000D02*
X19215500Y-5088000D01*
X19155500Y-5528000D02*
X19155500Y-5648000D01*
X19095500Y-5588000D02*
X19215500Y-5588000D01*
X19155500Y-6786000D02*
X19155500Y-6906000D01*
X19095500Y-6846000D02*
X19215500Y-6846000D01*
X19155500Y-7286000D02*
X19155500Y-7406000D01*
X19095500Y-7346000D02*
X19215500Y-7346000D01*
X19155500Y-8584000D02*
X19155500Y-8704000D01*
X19095500Y-8644000D02*
X19215500Y-8644000D01*
X19155500Y-9084000D02*
X19155500Y-9204000D01*
X19095500Y-9144000D02*
X19215500Y-9144000D01*
X20397500Y-3236000D02*
X20397500Y-3356000D01*
X20337500Y-3296000D02*
X20457500Y-3296000D01*
X20397500Y-3736000D02*
X20397500Y-3856000D01*
X20337500Y-3796000D02*
X20457500Y-3796000D01*
X20405500Y-5028000D02*
X20405500Y-5148000D01*
X20345500Y-5088000D02*
X20465500Y-5088000D01*
X20405500Y-5528000D02*
X20405500Y-5648000D01*
X20345500Y-5588000D02*
X20465500Y-5588000D01*
X20405500Y-6786000D02*
X20405500Y-6906000D01*
X20345500Y-6846000D02*
X20465500Y-6846000D01*
X20405500Y-7286000D02*
X20405500Y-7406000D01*
X20345500Y-7346000D02*
X20465500Y-7346000D01*
X20405500Y-8584000D02*
X20405500Y-8704000D01*
X20345500Y-8644000D02*
X20465500Y-8644000D01*
X20405500Y-9084000D02*
X20405500Y-9204000D01*
X20345500Y-9144000D02*
X20465500Y-9144000D01*
X20929500Y-6786000D02*
X20929500Y-6906000D01*
X20869500Y-6846000D02*
X20989500Y-6846000D01*
X20929500Y-7286000D02*
X20929500Y-7406000D01*
X20869500Y-7346000D02*
X20989500Y-7346000D01*
X20933500Y-3236000D02*
X20933500Y-3356000D01*
X20873500Y-3296000D02*
X20993500Y-3296000D01*
X20933500Y-3736000D02*
X20933500Y-3856000D01*
X20873500Y-3796000D02*
X20993500Y-3796000D01*
X20933500Y-5028000D02*
X20933500Y-5148000D01*
X20873500Y-5088000D02*
X20993500Y-5088000D01*
X20933500Y-5528000D02*
X20933500Y-5648000D01*
X20873500Y-5588000D02*
X20993500Y-5588000D01*
X20933500Y-8584000D02*
X20933500Y-8704000D01*
X20873500Y-8644000D02*
X20993500Y-8644000D01*
X20933500Y-9084000D02*
X20933500Y-9204000D01*
X20873500Y-9144000D02*
X20993500Y-9144000D01*
X22179500Y-6786000D02*
X22179500Y-6906000D01*
X22119500Y-6846000D02*
X22239500Y-6846000D01*
X22179500Y-7286000D02*
X22179500Y-7406000D01*
X22119500Y-7346000D02*
X22239500Y-7346000D01*
X22183500Y-3236000D02*
X22183500Y-3356000D01*
X22123500Y-3296000D02*
X22243500Y-3296000D01*
X22183500Y-3736000D02*
X22183500Y-3856000D01*
X22123500Y-3796000D02*
X22243500Y-3796000D01*
X22183500Y-5028000D02*
X22183500Y-5148000D01*
X22123500Y-5088000D02*
X22243500Y-5088000D01*
X22183500Y-5528000D02*
X22183500Y-5648000D01*
X22123500Y-5588000D02*
X22243500Y-5588000D01*
X22183500Y-8584000D02*
X22183500Y-8704000D01*
X22123500Y-8644000D02*
X22243500Y-8644000D01*
X22183500Y-9084000D02*
X22183500Y-9204000D01*
X22123500Y-9144000D02*
X22243500Y-9144000D01*
D10*
X13250777Y-11821484D02*
X13250777Y-11621484D01*
X13250777Y-11621484D02*
X13298396Y-11621484D01*
X13298396Y-11621484D02*
X13326967Y-11631008D01*
X13326967Y-11631008D02*
X13346015Y-11650055D01*
X13346015Y-11650055D02*
X13355539Y-11669103D01*
X13355539Y-11669103D02*
X13365062Y-11707198D01*
X13365062Y-11707198D02*
X13365062Y-11735769D01*
X13365062Y-11735769D02*
X13355539Y-11773865D01*
X13355539Y-11773865D02*
X13346015Y-11792912D01*
X13346015Y-11792912D02*
X13326967Y-11811960D01*
X13326967Y-11811960D02*
X13298396Y-11821484D01*
X13298396Y-11821484D02*
X13250777Y-11821484D01*
X13450777Y-11821484D02*
X13450777Y-11688150D01*
X13450777Y-11726246D02*
X13460301Y-11707198D01*
X13460301Y-11707198D02*
X13469824Y-11697674D01*
X13469824Y-11697674D02*
X13488872Y-11688150D01*
X13488872Y-11688150D02*
X13507920Y-11688150D01*
X13574586Y-11821484D02*
X13574586Y-11688150D01*
X13574586Y-11621484D02*
X13565062Y-11631008D01*
X13565062Y-11631008D02*
X13574586Y-11640531D01*
X13574586Y-11640531D02*
X13584110Y-11631008D01*
X13584110Y-11631008D02*
X13574586Y-11621484D01*
X13574586Y-11621484D02*
X13574586Y-11640531D01*
X13698396Y-11821484D02*
X13679348Y-11811960D01*
X13679348Y-11811960D02*
X13669824Y-11792912D01*
X13669824Y-11792912D02*
X13669824Y-11621484D01*
X13803158Y-11821484D02*
X13784110Y-11811960D01*
X13784110Y-11811960D02*
X13774586Y-11792912D01*
X13774586Y-11792912D02*
X13774586Y-11621484D01*
X14031729Y-11821484D02*
X14031729Y-11621484D01*
X14031729Y-11621484D02*
X14098396Y-11764341D01*
X14098396Y-11764341D02*
X14165062Y-11621484D01*
X14165062Y-11621484D02*
X14165062Y-11821484D01*
X14346015Y-11821484D02*
X14346015Y-11716722D01*
X14346015Y-11716722D02*
X14336491Y-11697674D01*
X14336491Y-11697674D02*
X14317443Y-11688150D01*
X14317443Y-11688150D02*
X14279348Y-11688150D01*
X14279348Y-11688150D02*
X14260301Y-11697674D01*
X14346015Y-11811960D02*
X14326967Y-11821484D01*
X14326967Y-11821484D02*
X14279348Y-11821484D01*
X14279348Y-11821484D02*
X14260301Y-11811960D01*
X14260301Y-11811960D02*
X14250777Y-11792912D01*
X14250777Y-11792912D02*
X14250777Y-11773865D01*
X14250777Y-11773865D02*
X14260301Y-11754817D01*
X14260301Y-11754817D02*
X14279348Y-11745293D01*
X14279348Y-11745293D02*
X14326967Y-11745293D01*
X14326967Y-11745293D02*
X14346015Y-11735769D01*
X14441253Y-11688150D02*
X14441253Y-11888150D01*
X14441253Y-11697674D02*
X14460301Y-11688150D01*
X14460301Y-11688150D02*
X14498396Y-11688150D01*
X14498396Y-11688150D02*
X14517443Y-11697674D01*
X14517443Y-11697674D02*
X14526967Y-11707198D01*
X14526967Y-11707198D02*
X14536491Y-11726246D01*
X14536491Y-11726246D02*
X14536491Y-11783388D01*
X14536491Y-11783388D02*
X14526967Y-11802436D01*
X14526967Y-11802436D02*
X14517443Y-11811960D01*
X14517443Y-11811960D02*
X14498396Y-11821484D01*
X14498396Y-11821484D02*
X14460301Y-11821484D01*
X14460301Y-11821484D02*
X14441253Y-11811960D01*
X14622205Y-11802436D02*
X14631729Y-11811960D01*
X14631729Y-11811960D02*
X14622205Y-11821484D01*
X14622205Y-11821484D02*
X14612682Y-11811960D01*
X14612682Y-11811960D02*
X14622205Y-11802436D01*
X14622205Y-11802436D02*
X14622205Y-11821484D01*
X14622205Y-11697674D02*
X14631729Y-11707198D01*
X14631729Y-11707198D02*
X14622205Y-11716722D01*
X14622205Y-11716722D02*
X14612682Y-11707198D01*
X14612682Y-11707198D02*
X14622205Y-11697674D01*
X14622205Y-11697674D02*
X14622205Y-11716722D01*
D11*
X12910000Y-12110000D02*
X12990000Y-12190000D01*
X12990000Y-12110000D02*
X12910000Y-12190000D01*
D10*
X13288872Y-12041484D02*
X13307920Y-12041484D01*
X13307920Y-12041484D02*
X13326967Y-12051008D01*
X13326967Y-12051008D02*
X13336491Y-12060531D01*
X13336491Y-12060531D02*
X13346015Y-12079579D01*
X13346015Y-12079579D02*
X13355539Y-12117674D01*
X13355539Y-12117674D02*
X13355539Y-12165293D01*
X13355539Y-12165293D02*
X13346015Y-12203388D01*
X13346015Y-12203388D02*
X13336491Y-12222436D01*
X13336491Y-12222436D02*
X13326967Y-12231960D01*
X13326967Y-12231960D02*
X13307920Y-12241484D01*
X13307920Y-12241484D02*
X13288872Y-12241484D01*
X13288872Y-12241484D02*
X13269824Y-12231960D01*
X13269824Y-12231960D02*
X13260301Y-12222436D01*
X13260301Y-12222436D02*
X13250777Y-12203388D01*
X13250777Y-12203388D02*
X13241253Y-12165293D01*
X13241253Y-12165293D02*
X13241253Y-12117674D01*
X13241253Y-12117674D02*
X13250777Y-12079579D01*
X13250777Y-12079579D02*
X13260301Y-12060531D01*
X13260301Y-12060531D02*
X13269824Y-12051008D01*
X13269824Y-12051008D02*
X13288872Y-12041484D01*
X13441253Y-12222436D02*
X13450777Y-12231960D01*
X13450777Y-12231960D02*
X13441253Y-12241484D01*
X13441253Y-12241484D02*
X13431729Y-12231960D01*
X13431729Y-12231960D02*
X13441253Y-12222436D01*
X13441253Y-12222436D02*
X13441253Y-12241484D01*
X13565062Y-12127198D02*
X13546015Y-12117674D01*
X13546015Y-12117674D02*
X13536491Y-12108150D01*
X13536491Y-12108150D02*
X13526967Y-12089103D01*
X13526967Y-12089103D02*
X13526967Y-12079579D01*
X13526967Y-12079579D02*
X13536491Y-12060531D01*
X13536491Y-12060531D02*
X13546015Y-12051008D01*
X13546015Y-12051008D02*
X13565062Y-12041484D01*
X13565062Y-12041484D02*
X13603158Y-12041484D01*
X13603158Y-12041484D02*
X13622205Y-12051008D01*
X13622205Y-12051008D02*
X13631729Y-12060531D01*
X13631729Y-12060531D02*
X13641253Y-12079579D01*
X13641253Y-12079579D02*
X13641253Y-12089103D01*
X13641253Y-12089103D02*
X13631729Y-12108150D01*
X13631729Y-12108150D02*
X13622205Y-12117674D01*
X13622205Y-12117674D02*
X13603158Y-12127198D01*
X13603158Y-12127198D02*
X13565062Y-12127198D01*
X13565062Y-12127198D02*
X13546015Y-12136722D01*
X13546015Y-12136722D02*
X13536491Y-12146246D01*
X13536491Y-12146246D02*
X13526967Y-12165293D01*
X13526967Y-12165293D02*
X13526967Y-12203388D01*
X13526967Y-12203388D02*
X13536491Y-12222436D01*
X13536491Y-12222436D02*
X13546015Y-12231960D01*
X13546015Y-12231960D02*
X13565062Y-12241484D01*
X13565062Y-12241484D02*
X13603158Y-12241484D01*
X13603158Y-12241484D02*
X13622205Y-12231960D01*
X13622205Y-12231960D02*
X13631729Y-12222436D01*
X13631729Y-12222436D02*
X13641253Y-12203388D01*
X13641253Y-12203388D02*
X13641253Y-12165293D01*
X13641253Y-12165293D02*
X13631729Y-12146246D01*
X13631729Y-12146246D02*
X13622205Y-12136722D01*
X13622205Y-12136722D02*
X13603158Y-12127198D01*
X13765062Y-12041484D02*
X13784110Y-12041484D01*
X13784110Y-12041484D02*
X13803158Y-12051008D01*
X13803158Y-12051008D02*
X13812682Y-12060531D01*
X13812682Y-12060531D02*
X13822205Y-12079579D01*
X13822205Y-12079579D02*
X13831729Y-12117674D01*
X13831729Y-12117674D02*
X13831729Y-12165293D01*
X13831729Y-12165293D02*
X13822205Y-12203388D01*
X13822205Y-12203388D02*
X13812682Y-12222436D01*
X13812682Y-12222436D02*
X13803158Y-12231960D01*
X13803158Y-12231960D02*
X13784110Y-12241484D01*
X13784110Y-12241484D02*
X13765062Y-12241484D01*
X13765062Y-12241484D02*
X13746015Y-12231960D01*
X13746015Y-12231960D02*
X13736491Y-12222436D01*
X13736491Y-12222436D02*
X13726967Y-12203388D01*
X13726967Y-12203388D02*
X13717443Y-12165293D01*
X13717443Y-12165293D02*
X13717443Y-12117674D01*
X13717443Y-12117674D02*
X13726967Y-12079579D01*
X13726967Y-12079579D02*
X13736491Y-12060531D01*
X13736491Y-12060531D02*
X13746015Y-12051008D01*
X13746015Y-12051008D02*
X13765062Y-12041484D01*
X13955539Y-12041484D02*
X13974586Y-12041484D01*
X13974586Y-12041484D02*
X13993634Y-12051008D01*
X13993634Y-12051008D02*
X14003158Y-12060531D01*
X14003158Y-12060531D02*
X14012682Y-12079579D01*
X14012682Y-12079579D02*
X14022205Y-12117674D01*
X14022205Y-12117674D02*
X14022205Y-12165293D01*
X14022205Y-12165293D02*
X14012682Y-12203388D01*
X14012682Y-12203388D02*
X14003158Y-12222436D01*
X14003158Y-12222436D02*
X13993634Y-12231960D01*
X13993634Y-12231960D02*
X13974586Y-12241484D01*
X13974586Y-12241484D02*
X13955539Y-12241484D01*
X13955539Y-12241484D02*
X13936491Y-12231960D01*
X13936491Y-12231960D02*
X13926967Y-12222436D01*
X13926967Y-12222436D02*
X13917443Y-12203388D01*
X13917443Y-12203388D02*
X13907920Y-12165293D01*
X13907920Y-12165293D02*
X13907920Y-12117674D01*
X13907920Y-12117674D02*
X13917443Y-12079579D01*
X13917443Y-12079579D02*
X13926967Y-12060531D01*
X13926967Y-12060531D02*
X13936491Y-12051008D01*
X13936491Y-12051008D02*
X13955539Y-12041484D01*
X14107920Y-12241484D02*
X14107920Y-12108150D01*
X14107920Y-12127198D02*
X14117443Y-12117674D01*
X14117443Y-12117674D02*
X14136491Y-12108150D01*
X14136491Y-12108150D02*
X14165063Y-12108150D01*
X14165063Y-12108150D02*
X14184110Y-12117674D01*
X14184110Y-12117674D02*
X14193634Y-12136722D01*
X14193634Y-12136722D02*
X14193634Y-12241484D01*
X14193634Y-12136722D02*
X14203158Y-12117674D01*
X14203158Y-12117674D02*
X14222205Y-12108150D01*
X14222205Y-12108150D02*
X14250777Y-12108150D01*
X14250777Y-12108150D02*
X14269824Y-12117674D01*
X14269824Y-12117674D02*
X14279348Y-12136722D01*
X14279348Y-12136722D02*
X14279348Y-12241484D01*
X14374586Y-12241484D02*
X14374586Y-12108150D01*
X14374586Y-12127198D02*
X14384110Y-12117674D01*
X14384110Y-12117674D02*
X14403158Y-12108150D01*
X14403158Y-12108150D02*
X14431729Y-12108150D01*
X14431729Y-12108150D02*
X14450777Y-12117674D01*
X14450777Y-12117674D02*
X14460301Y-12136722D01*
X14460301Y-12136722D02*
X14460301Y-12241484D01*
X14460301Y-12136722D02*
X14469824Y-12117674D01*
X14469824Y-12117674D02*
X14488872Y-12108150D01*
X14488872Y-12108150D02*
X14517443Y-12108150D01*
X14517443Y-12108150D02*
X14536491Y-12117674D01*
X14536491Y-12117674D02*
X14546015Y-12136722D01*
X14546015Y-12136722D02*
X14546015Y-12241484D01*
X14936491Y-12031960D02*
X14765063Y-12289103D01*
X15193634Y-12041484D02*
X15212682Y-12041484D01*
X15212682Y-12041484D02*
X15231729Y-12051008D01*
X15231729Y-12051008D02*
X15241253Y-12060531D01*
X15241253Y-12060531D02*
X15250777Y-12079579D01*
X15250777Y-12079579D02*
X15260301Y-12117674D01*
X15260301Y-12117674D02*
X15260301Y-12165293D01*
X15260301Y-12165293D02*
X15250777Y-12203388D01*
X15250777Y-12203388D02*
X15241253Y-12222436D01*
X15241253Y-12222436D02*
X15231729Y-12231960D01*
X15231729Y-12231960D02*
X15212682Y-12241484D01*
X15212682Y-12241484D02*
X15193634Y-12241484D01*
X15193634Y-12241484D02*
X15174586Y-12231960D01*
X15174586Y-12231960D02*
X15165063Y-12222436D01*
X15165063Y-12222436D02*
X15155539Y-12203388D01*
X15155539Y-12203388D02*
X15146015Y-12165293D01*
X15146015Y-12165293D02*
X15146015Y-12117674D01*
X15146015Y-12117674D02*
X15155539Y-12079579D01*
X15155539Y-12079579D02*
X15165063Y-12060531D01*
X15165063Y-12060531D02*
X15174586Y-12051008D01*
X15174586Y-12051008D02*
X15193634Y-12041484D01*
X15346015Y-12222436D02*
X15355539Y-12231960D01*
X15355539Y-12231960D02*
X15346015Y-12241484D01*
X15346015Y-12241484D02*
X15336491Y-12231960D01*
X15336491Y-12231960D02*
X15346015Y-12222436D01*
X15346015Y-12222436D02*
X15346015Y-12241484D01*
X15479348Y-12041484D02*
X15498396Y-12041484D01*
X15498396Y-12041484D02*
X15517444Y-12051008D01*
X15517444Y-12051008D02*
X15526967Y-12060531D01*
X15526967Y-12060531D02*
X15536491Y-12079579D01*
X15536491Y-12079579D02*
X15546015Y-12117674D01*
X15546015Y-12117674D02*
X15546015Y-12165293D01*
X15546015Y-12165293D02*
X15536491Y-12203388D01*
X15536491Y-12203388D02*
X15526967Y-12222436D01*
X15526967Y-12222436D02*
X15517444Y-12231960D01*
X15517444Y-12231960D02*
X15498396Y-12241484D01*
X15498396Y-12241484D02*
X15479348Y-12241484D01*
X15479348Y-12241484D02*
X15460301Y-12231960D01*
X15460301Y-12231960D02*
X15450777Y-12222436D01*
X15450777Y-12222436D02*
X15441253Y-12203388D01*
X15441253Y-12203388D02*
X15431729Y-12165293D01*
X15431729Y-12165293D02*
X15431729Y-12117674D01*
X15431729Y-12117674D02*
X15441253Y-12079579D01*
X15441253Y-12079579D02*
X15450777Y-12060531D01*
X15450777Y-12060531D02*
X15460301Y-12051008D01*
X15460301Y-12051008D02*
X15479348Y-12041484D01*
X15612682Y-12041484D02*
X15736491Y-12041484D01*
X15736491Y-12041484D02*
X15669825Y-12117674D01*
X15669825Y-12117674D02*
X15698396Y-12117674D01*
X15698396Y-12117674D02*
X15717444Y-12127198D01*
X15717444Y-12127198D02*
X15726967Y-12136722D01*
X15726967Y-12136722D02*
X15736491Y-12155769D01*
X15736491Y-12155769D02*
X15736491Y-12203388D01*
X15736491Y-12203388D02*
X15726967Y-12222436D01*
X15726967Y-12222436D02*
X15717444Y-12231960D01*
X15717444Y-12231960D02*
X15698396Y-12241484D01*
X15698396Y-12241484D02*
X15641253Y-12241484D01*
X15641253Y-12241484D02*
X15622206Y-12231960D01*
X15622206Y-12231960D02*
X15612682Y-12222436D01*
X15926967Y-12241484D02*
X15812682Y-12241484D01*
X15869825Y-12241484D02*
X15869825Y-12041484D01*
X15869825Y-12041484D02*
X15850777Y-12070055D01*
X15850777Y-12070055D02*
X15831729Y-12089103D01*
X15831729Y-12089103D02*
X15812682Y-12098627D01*
X16107920Y-12041484D02*
X16012682Y-12041484D01*
X16012682Y-12041484D02*
X16003158Y-12136722D01*
X16003158Y-12136722D02*
X16012682Y-12127198D01*
X16012682Y-12127198D02*
X16031729Y-12117674D01*
X16031729Y-12117674D02*
X16079348Y-12117674D01*
X16079348Y-12117674D02*
X16098396Y-12127198D01*
X16098396Y-12127198D02*
X16107920Y-12136722D01*
X16107920Y-12136722D02*
X16117444Y-12155769D01*
X16117444Y-12155769D02*
X16117444Y-12203388D01*
X16117444Y-12203388D02*
X16107920Y-12222436D01*
X16107920Y-12222436D02*
X16098396Y-12231960D01*
X16098396Y-12231960D02*
X16079348Y-12241484D01*
X16079348Y-12241484D02*
X16031729Y-12241484D01*
X16031729Y-12241484D02*
X16012682Y-12231960D01*
X16012682Y-12231960D02*
X16003158Y-12222436D01*
X16193634Y-12041484D02*
X16193634Y-12079579D01*
X16269825Y-12041484D02*
X16269825Y-12079579D01*
X16565063Y-12317674D02*
X16555539Y-12308150D01*
X16555539Y-12308150D02*
X16536491Y-12279579D01*
X16536491Y-12279579D02*
X16526968Y-12260531D01*
X16526968Y-12260531D02*
X16517444Y-12231960D01*
X16517444Y-12231960D02*
X16507920Y-12184341D01*
X16507920Y-12184341D02*
X16507920Y-12146246D01*
X16507920Y-12146246D02*
X16517444Y-12098627D01*
X16517444Y-12098627D02*
X16526968Y-12070055D01*
X16526968Y-12070055D02*
X16536491Y-12051008D01*
X16536491Y-12051008D02*
X16555539Y-12022436D01*
X16555539Y-12022436D02*
X16565063Y-12012912D01*
X16736491Y-12041484D02*
X16641253Y-12041484D01*
X16641253Y-12041484D02*
X16631729Y-12136722D01*
X16631729Y-12136722D02*
X16641253Y-12127198D01*
X16641253Y-12127198D02*
X16660301Y-12117674D01*
X16660301Y-12117674D02*
X16707920Y-12117674D01*
X16707920Y-12117674D02*
X16726968Y-12127198D01*
X16726968Y-12127198D02*
X16736491Y-12136722D01*
X16736491Y-12136722D02*
X16746015Y-12155769D01*
X16746015Y-12155769D02*
X16746015Y-12203388D01*
X16746015Y-12203388D02*
X16736491Y-12222436D01*
X16736491Y-12222436D02*
X16726968Y-12231960D01*
X16726968Y-12231960D02*
X16707920Y-12241484D01*
X16707920Y-12241484D02*
X16660301Y-12241484D01*
X16660301Y-12241484D02*
X16641253Y-12231960D01*
X16641253Y-12231960D02*
X16631729Y-12222436D01*
X16869825Y-12041484D02*
X16888872Y-12041484D01*
X16888872Y-12041484D02*
X16907920Y-12051008D01*
X16907920Y-12051008D02*
X16917444Y-12060531D01*
X16917444Y-12060531D02*
X16926968Y-12079579D01*
X16926968Y-12079579D02*
X16936491Y-12117674D01*
X16936491Y-12117674D02*
X16936491Y-12165293D01*
X16936491Y-12165293D02*
X16926968Y-12203388D01*
X16926968Y-12203388D02*
X16917444Y-12222436D01*
X16917444Y-12222436D02*
X16907920Y-12231960D01*
X16907920Y-12231960D02*
X16888872Y-12241484D01*
X16888872Y-12241484D02*
X16869825Y-12241484D01*
X16869825Y-12241484D02*
X16850777Y-12231960D01*
X16850777Y-12231960D02*
X16841253Y-12222436D01*
X16841253Y-12222436D02*
X16831730Y-12203388D01*
X16831730Y-12203388D02*
X16822206Y-12165293D01*
X16822206Y-12165293D02*
X16822206Y-12117674D01*
X16822206Y-12117674D02*
X16831730Y-12079579D01*
X16831730Y-12079579D02*
X16841253Y-12060531D01*
X16841253Y-12060531D02*
X16850777Y-12051008D01*
X16850777Y-12051008D02*
X16869825Y-12041484D01*
X17174587Y-12241484D02*
X17174587Y-12041484D01*
X17260301Y-12241484D02*
X17260301Y-12136722D01*
X17260301Y-12136722D02*
X17250777Y-12117674D01*
X17250777Y-12117674D02*
X17231730Y-12108150D01*
X17231730Y-12108150D02*
X17203158Y-12108150D01*
X17203158Y-12108150D02*
X17184111Y-12117674D01*
X17184111Y-12117674D02*
X17174587Y-12127198D01*
X17384111Y-12241484D02*
X17365063Y-12231960D01*
X17365063Y-12231960D02*
X17355539Y-12222436D01*
X17355539Y-12222436D02*
X17346015Y-12203388D01*
X17346015Y-12203388D02*
X17346015Y-12146246D01*
X17346015Y-12146246D02*
X17355539Y-12127198D01*
X17355539Y-12127198D02*
X17365063Y-12117674D01*
X17365063Y-12117674D02*
X17384111Y-12108150D01*
X17384111Y-12108150D02*
X17412682Y-12108150D01*
X17412682Y-12108150D02*
X17431730Y-12117674D01*
X17431730Y-12117674D02*
X17441253Y-12127198D01*
X17441253Y-12127198D02*
X17450777Y-12146246D01*
X17450777Y-12146246D02*
X17450777Y-12203388D01*
X17450777Y-12203388D02*
X17441253Y-12222436D01*
X17441253Y-12222436D02*
X17431730Y-12231960D01*
X17431730Y-12231960D02*
X17412682Y-12241484D01*
X17412682Y-12241484D02*
X17384111Y-12241484D01*
X17565063Y-12241484D02*
X17546015Y-12231960D01*
X17546015Y-12231960D02*
X17536492Y-12212912D01*
X17536492Y-12212912D02*
X17536492Y-12041484D01*
X17717444Y-12231960D02*
X17698396Y-12241484D01*
X17698396Y-12241484D02*
X17660301Y-12241484D01*
X17660301Y-12241484D02*
X17641253Y-12231960D01*
X17641253Y-12231960D02*
X17631730Y-12212912D01*
X17631730Y-12212912D02*
X17631730Y-12136722D01*
X17631730Y-12136722D02*
X17641253Y-12117674D01*
X17641253Y-12117674D02*
X17660301Y-12108150D01*
X17660301Y-12108150D02*
X17698396Y-12108150D01*
X17698396Y-12108150D02*
X17717444Y-12117674D01*
X17717444Y-12117674D02*
X17726968Y-12136722D01*
X17726968Y-12136722D02*
X17726968Y-12155769D01*
X17726968Y-12155769D02*
X17631730Y-12174817D01*
X17803158Y-12231960D02*
X17822206Y-12241484D01*
X17822206Y-12241484D02*
X17860301Y-12241484D01*
X17860301Y-12241484D02*
X17879349Y-12231960D01*
X17879349Y-12231960D02*
X17888873Y-12212912D01*
X17888873Y-12212912D02*
X17888873Y-12203388D01*
X17888873Y-12203388D02*
X17879349Y-12184341D01*
X17879349Y-12184341D02*
X17860301Y-12174817D01*
X17860301Y-12174817D02*
X17831730Y-12174817D01*
X17831730Y-12174817D02*
X17812682Y-12165293D01*
X17812682Y-12165293D02*
X17803158Y-12146246D01*
X17803158Y-12146246D02*
X17803158Y-12136722D01*
X17803158Y-12136722D02*
X17812682Y-12117674D01*
X17812682Y-12117674D02*
X17831730Y-12108150D01*
X17831730Y-12108150D02*
X17860301Y-12108150D01*
X17860301Y-12108150D02*
X17879349Y-12117674D01*
X17955539Y-12317674D02*
X17965063Y-12308150D01*
X17965063Y-12308150D02*
X17984111Y-12279579D01*
X17984111Y-12279579D02*
X17993634Y-12260531D01*
X17993634Y-12260531D02*
X18003158Y-12231960D01*
X18003158Y-12231960D02*
X18012682Y-12184341D01*
X18012682Y-12184341D02*
X18012682Y-12146246D01*
X18012682Y-12146246D02*
X18003158Y-12098627D01*
X18003158Y-12098627D02*
X17993634Y-12070055D01*
X17993634Y-12070055D02*
X17984111Y-12051008D01*
X17984111Y-12051008D02*
X17965063Y-12022436D01*
X17965063Y-12022436D02*
X17955539Y-12012912D01*
D12*
X12990000Y-12414000D02*
G75*
G03*
X12990000Y-12414000I-50000J0D01*
G01*
D10*
X13355539Y-12505484D02*
X13241253Y-12505484D01*
X13298396Y-12505484D02*
X13298396Y-12305484D01*
X13298396Y-12305484D02*
X13279348Y-12334055D01*
X13279348Y-12334055D02*
X13260301Y-12353103D01*
X13260301Y-12353103D02*
X13241253Y-12362627D01*
X13441253Y-12486436D02*
X13450777Y-12495960D01*
X13450777Y-12495960D02*
X13441253Y-12505484D01*
X13441253Y-12505484D02*
X13431729Y-12495960D01*
X13431729Y-12495960D02*
X13441253Y-12486436D01*
X13441253Y-12486436D02*
X13441253Y-12505484D01*
X13574586Y-12305484D02*
X13593634Y-12305484D01*
X13593634Y-12305484D02*
X13612682Y-12315008D01*
X13612682Y-12315008D02*
X13622205Y-12324531D01*
X13622205Y-12324531D02*
X13631729Y-12343579D01*
X13631729Y-12343579D02*
X13641253Y-12381674D01*
X13641253Y-12381674D02*
X13641253Y-12429293D01*
X13641253Y-12429293D02*
X13631729Y-12467388D01*
X13631729Y-12467388D02*
X13622205Y-12486436D01*
X13622205Y-12486436D02*
X13612682Y-12495960D01*
X13612682Y-12495960D02*
X13593634Y-12505484D01*
X13593634Y-12505484D02*
X13574586Y-12505484D01*
X13574586Y-12505484D02*
X13555539Y-12495960D01*
X13555539Y-12495960D02*
X13546015Y-12486436D01*
X13546015Y-12486436D02*
X13536491Y-12467388D01*
X13536491Y-12467388D02*
X13526967Y-12429293D01*
X13526967Y-12429293D02*
X13526967Y-12381674D01*
X13526967Y-12381674D02*
X13536491Y-12343579D01*
X13536491Y-12343579D02*
X13546015Y-12324531D01*
X13546015Y-12324531D02*
X13555539Y-12315008D01*
X13555539Y-12315008D02*
X13574586Y-12305484D01*
X13765062Y-12305484D02*
X13784110Y-12305484D01*
X13784110Y-12305484D02*
X13803158Y-12315008D01*
X13803158Y-12315008D02*
X13812682Y-12324531D01*
X13812682Y-12324531D02*
X13822205Y-12343579D01*
X13822205Y-12343579D02*
X13831729Y-12381674D01*
X13831729Y-12381674D02*
X13831729Y-12429293D01*
X13831729Y-12429293D02*
X13822205Y-12467388D01*
X13822205Y-12467388D02*
X13812682Y-12486436D01*
X13812682Y-12486436D02*
X13803158Y-12495960D01*
X13803158Y-12495960D02*
X13784110Y-12505484D01*
X13784110Y-12505484D02*
X13765062Y-12505484D01*
X13765062Y-12505484D02*
X13746015Y-12495960D01*
X13746015Y-12495960D02*
X13736491Y-12486436D01*
X13736491Y-12486436D02*
X13726967Y-12467388D01*
X13726967Y-12467388D02*
X13717443Y-12429293D01*
X13717443Y-12429293D02*
X13717443Y-12381674D01*
X13717443Y-12381674D02*
X13726967Y-12343579D01*
X13726967Y-12343579D02*
X13736491Y-12324531D01*
X13736491Y-12324531D02*
X13746015Y-12315008D01*
X13746015Y-12315008D02*
X13765062Y-12305484D01*
X13955539Y-12305484D02*
X13974586Y-12305484D01*
X13974586Y-12305484D02*
X13993634Y-12315008D01*
X13993634Y-12315008D02*
X14003158Y-12324531D01*
X14003158Y-12324531D02*
X14012682Y-12343579D01*
X14012682Y-12343579D02*
X14022205Y-12381674D01*
X14022205Y-12381674D02*
X14022205Y-12429293D01*
X14022205Y-12429293D02*
X14012682Y-12467388D01*
X14012682Y-12467388D02*
X14003158Y-12486436D01*
X14003158Y-12486436D02*
X13993634Y-12495960D01*
X13993634Y-12495960D02*
X13974586Y-12505484D01*
X13974586Y-12505484D02*
X13955539Y-12505484D01*
X13955539Y-12505484D02*
X13936491Y-12495960D01*
X13936491Y-12495960D02*
X13926967Y-12486436D01*
X13926967Y-12486436D02*
X13917443Y-12467388D01*
X13917443Y-12467388D02*
X13907920Y-12429293D01*
X13907920Y-12429293D02*
X13907920Y-12381674D01*
X13907920Y-12381674D02*
X13917443Y-12343579D01*
X13917443Y-12343579D02*
X13926967Y-12324531D01*
X13926967Y-12324531D02*
X13936491Y-12315008D01*
X13936491Y-12315008D02*
X13955539Y-12305484D01*
X14107920Y-12505484D02*
X14107920Y-12372150D01*
X14107920Y-12391198D02*
X14117443Y-12381674D01*
X14117443Y-12381674D02*
X14136491Y-12372150D01*
X14136491Y-12372150D02*
X14165063Y-12372150D01*
X14165063Y-12372150D02*
X14184110Y-12381674D01*
X14184110Y-12381674D02*
X14193634Y-12400722D01*
X14193634Y-12400722D02*
X14193634Y-12505484D01*
X14193634Y-12400722D02*
X14203158Y-12381674D01*
X14203158Y-12381674D02*
X14222205Y-12372150D01*
X14222205Y-12372150D02*
X14250777Y-12372150D01*
X14250777Y-12372150D02*
X14269824Y-12381674D01*
X14269824Y-12381674D02*
X14279348Y-12400722D01*
X14279348Y-12400722D02*
X14279348Y-12505484D01*
X14374586Y-12505484D02*
X14374586Y-12372150D01*
X14374586Y-12391198D02*
X14384110Y-12381674D01*
X14384110Y-12381674D02*
X14403158Y-12372150D01*
X14403158Y-12372150D02*
X14431729Y-12372150D01*
X14431729Y-12372150D02*
X14450777Y-12381674D01*
X14450777Y-12381674D02*
X14460301Y-12400722D01*
X14460301Y-12400722D02*
X14460301Y-12505484D01*
X14460301Y-12400722D02*
X14469824Y-12381674D01*
X14469824Y-12381674D02*
X14488872Y-12372150D01*
X14488872Y-12372150D02*
X14517443Y-12372150D01*
X14517443Y-12372150D02*
X14536491Y-12381674D01*
X14536491Y-12381674D02*
X14546015Y-12400722D01*
X14546015Y-12400722D02*
X14546015Y-12505484D01*
X14936491Y-12295960D02*
X14765063Y-12553103D01*
X15193634Y-12305484D02*
X15212682Y-12305484D01*
X15212682Y-12305484D02*
X15231729Y-12315008D01*
X15231729Y-12315008D02*
X15241253Y-12324531D01*
X15241253Y-12324531D02*
X15250777Y-12343579D01*
X15250777Y-12343579D02*
X15260301Y-12381674D01*
X15260301Y-12381674D02*
X15260301Y-12429293D01*
X15260301Y-12429293D02*
X15250777Y-12467388D01*
X15250777Y-12467388D02*
X15241253Y-12486436D01*
X15241253Y-12486436D02*
X15231729Y-12495960D01*
X15231729Y-12495960D02*
X15212682Y-12505484D01*
X15212682Y-12505484D02*
X15193634Y-12505484D01*
X15193634Y-12505484D02*
X15174586Y-12495960D01*
X15174586Y-12495960D02*
X15165063Y-12486436D01*
X15165063Y-12486436D02*
X15155539Y-12467388D01*
X15155539Y-12467388D02*
X15146015Y-12429293D01*
X15146015Y-12429293D02*
X15146015Y-12381674D01*
X15146015Y-12381674D02*
X15155539Y-12343579D01*
X15155539Y-12343579D02*
X15165063Y-12324531D01*
X15165063Y-12324531D02*
X15174586Y-12315008D01*
X15174586Y-12315008D02*
X15193634Y-12305484D01*
X15346015Y-12486436D02*
X15355539Y-12495960D01*
X15355539Y-12495960D02*
X15346015Y-12505484D01*
X15346015Y-12505484D02*
X15336491Y-12495960D01*
X15336491Y-12495960D02*
X15346015Y-12486436D01*
X15346015Y-12486436D02*
X15346015Y-12505484D01*
X15479348Y-12305484D02*
X15498396Y-12305484D01*
X15498396Y-12305484D02*
X15517444Y-12315008D01*
X15517444Y-12315008D02*
X15526967Y-12324531D01*
X15526967Y-12324531D02*
X15536491Y-12343579D01*
X15536491Y-12343579D02*
X15546015Y-12381674D01*
X15546015Y-12381674D02*
X15546015Y-12429293D01*
X15546015Y-12429293D02*
X15536491Y-12467388D01*
X15536491Y-12467388D02*
X15526967Y-12486436D01*
X15526967Y-12486436D02*
X15517444Y-12495960D01*
X15517444Y-12495960D02*
X15498396Y-12505484D01*
X15498396Y-12505484D02*
X15479348Y-12505484D01*
X15479348Y-12505484D02*
X15460301Y-12495960D01*
X15460301Y-12495960D02*
X15450777Y-12486436D01*
X15450777Y-12486436D02*
X15441253Y-12467388D01*
X15441253Y-12467388D02*
X15431729Y-12429293D01*
X15431729Y-12429293D02*
X15431729Y-12381674D01*
X15431729Y-12381674D02*
X15441253Y-12343579D01*
X15441253Y-12343579D02*
X15450777Y-12324531D01*
X15450777Y-12324531D02*
X15460301Y-12315008D01*
X15460301Y-12315008D02*
X15479348Y-12305484D01*
X15612682Y-12305484D02*
X15736491Y-12305484D01*
X15736491Y-12305484D02*
X15669825Y-12381674D01*
X15669825Y-12381674D02*
X15698396Y-12381674D01*
X15698396Y-12381674D02*
X15717444Y-12391198D01*
X15717444Y-12391198D02*
X15726967Y-12400722D01*
X15726967Y-12400722D02*
X15736491Y-12419769D01*
X15736491Y-12419769D02*
X15736491Y-12467388D01*
X15736491Y-12467388D02*
X15726967Y-12486436D01*
X15726967Y-12486436D02*
X15717444Y-12495960D01*
X15717444Y-12495960D02*
X15698396Y-12505484D01*
X15698396Y-12505484D02*
X15641253Y-12505484D01*
X15641253Y-12505484D02*
X15622206Y-12495960D01*
X15622206Y-12495960D02*
X15612682Y-12486436D01*
X15831729Y-12505484D02*
X15869825Y-12505484D01*
X15869825Y-12505484D02*
X15888872Y-12495960D01*
X15888872Y-12495960D02*
X15898396Y-12486436D01*
X15898396Y-12486436D02*
X15917444Y-12457865D01*
X15917444Y-12457865D02*
X15926967Y-12419769D01*
X15926967Y-12419769D02*
X15926967Y-12343579D01*
X15926967Y-12343579D02*
X15917444Y-12324531D01*
X15917444Y-12324531D02*
X15907920Y-12315008D01*
X15907920Y-12315008D02*
X15888872Y-12305484D01*
X15888872Y-12305484D02*
X15850777Y-12305484D01*
X15850777Y-12305484D02*
X15831729Y-12315008D01*
X15831729Y-12315008D02*
X15822206Y-12324531D01*
X15822206Y-12324531D02*
X15812682Y-12343579D01*
X15812682Y-12343579D02*
X15812682Y-12391198D01*
X15812682Y-12391198D02*
X15822206Y-12410246D01*
X15822206Y-12410246D02*
X15831729Y-12419769D01*
X15831729Y-12419769D02*
X15850777Y-12429293D01*
X15850777Y-12429293D02*
X15888872Y-12429293D01*
X15888872Y-12429293D02*
X15907920Y-12419769D01*
X15907920Y-12419769D02*
X15917444Y-12410246D01*
X15917444Y-12410246D02*
X15926967Y-12391198D01*
X16098396Y-12372150D02*
X16098396Y-12505484D01*
X16050777Y-12295960D02*
X16003158Y-12438817D01*
X16003158Y-12438817D02*
X16126967Y-12438817D01*
X16193634Y-12305484D02*
X16193634Y-12343579D01*
X16269825Y-12305484D02*
X16269825Y-12343579D01*
X16565063Y-12581674D02*
X16555539Y-12572150D01*
X16555539Y-12572150D02*
X16536491Y-12543579D01*
X16536491Y-12543579D02*
X16526968Y-12524531D01*
X16526968Y-12524531D02*
X16517444Y-12495960D01*
X16517444Y-12495960D02*
X16507920Y-12448341D01*
X16507920Y-12448341D02*
X16507920Y-12410246D01*
X16507920Y-12410246D02*
X16517444Y-12362627D01*
X16517444Y-12362627D02*
X16526968Y-12334055D01*
X16526968Y-12334055D02*
X16536491Y-12315008D01*
X16536491Y-12315008D02*
X16555539Y-12286436D01*
X16555539Y-12286436D02*
X16565063Y-12276912D01*
X16746015Y-12505484D02*
X16631729Y-12505484D01*
X16688872Y-12505484D02*
X16688872Y-12305484D01*
X16688872Y-12305484D02*
X16669825Y-12334055D01*
X16669825Y-12334055D02*
X16650777Y-12353103D01*
X16650777Y-12353103D02*
X16631729Y-12362627D01*
X16869825Y-12305484D02*
X16888872Y-12305484D01*
X16888872Y-12305484D02*
X16907920Y-12315008D01*
X16907920Y-12315008D02*
X16917444Y-12324531D01*
X16917444Y-12324531D02*
X16926968Y-12343579D01*
X16926968Y-12343579D02*
X16936491Y-12381674D01*
X16936491Y-12381674D02*
X16936491Y-12429293D01*
X16936491Y-12429293D02*
X16926968Y-12467388D01*
X16926968Y-12467388D02*
X16917444Y-12486436D01*
X16917444Y-12486436D02*
X16907920Y-12495960D01*
X16907920Y-12495960D02*
X16888872Y-12505484D01*
X16888872Y-12505484D02*
X16869825Y-12505484D01*
X16869825Y-12505484D02*
X16850777Y-12495960D01*
X16850777Y-12495960D02*
X16841253Y-12486436D01*
X16841253Y-12486436D02*
X16831730Y-12467388D01*
X16831730Y-12467388D02*
X16822206Y-12429293D01*
X16822206Y-12429293D02*
X16822206Y-12381674D01*
X16822206Y-12381674D02*
X16831730Y-12343579D01*
X16831730Y-12343579D02*
X16841253Y-12324531D01*
X16841253Y-12324531D02*
X16850777Y-12315008D01*
X16850777Y-12315008D02*
X16869825Y-12305484D01*
X17174587Y-12505484D02*
X17174587Y-12305484D01*
X17260301Y-12505484D02*
X17260301Y-12400722D01*
X17260301Y-12400722D02*
X17250777Y-12381674D01*
X17250777Y-12381674D02*
X17231730Y-12372150D01*
X17231730Y-12372150D02*
X17203158Y-12372150D01*
X17203158Y-12372150D02*
X17184111Y-12381674D01*
X17184111Y-12381674D02*
X17174587Y-12391198D01*
X17384111Y-12505484D02*
X17365063Y-12495960D01*
X17365063Y-12495960D02*
X17355539Y-12486436D01*
X17355539Y-12486436D02*
X17346015Y-12467388D01*
X17346015Y-12467388D02*
X17346015Y-12410246D01*
X17346015Y-12410246D02*
X17355539Y-12391198D01*
X17355539Y-12391198D02*
X17365063Y-12381674D01*
X17365063Y-12381674D02*
X17384111Y-12372150D01*
X17384111Y-12372150D02*
X17412682Y-12372150D01*
X17412682Y-12372150D02*
X17431730Y-12381674D01*
X17431730Y-12381674D02*
X17441253Y-12391198D01*
X17441253Y-12391198D02*
X17450777Y-12410246D01*
X17450777Y-12410246D02*
X17450777Y-12467388D01*
X17450777Y-12467388D02*
X17441253Y-12486436D01*
X17441253Y-12486436D02*
X17431730Y-12495960D01*
X17431730Y-12495960D02*
X17412682Y-12505484D01*
X17412682Y-12505484D02*
X17384111Y-12505484D01*
X17565063Y-12505484D02*
X17546015Y-12495960D01*
X17546015Y-12495960D02*
X17536492Y-12476912D01*
X17536492Y-12476912D02*
X17536492Y-12305484D01*
X17717444Y-12495960D02*
X17698396Y-12505484D01*
X17698396Y-12505484D02*
X17660301Y-12505484D01*
X17660301Y-12505484D02*
X17641253Y-12495960D01*
X17641253Y-12495960D02*
X17631730Y-12476912D01*
X17631730Y-12476912D02*
X17631730Y-12400722D01*
X17631730Y-12400722D02*
X17641253Y-12381674D01*
X17641253Y-12381674D02*
X17660301Y-12372150D01*
X17660301Y-12372150D02*
X17698396Y-12372150D01*
X17698396Y-12372150D02*
X17717444Y-12381674D01*
X17717444Y-12381674D02*
X17726968Y-12400722D01*
X17726968Y-12400722D02*
X17726968Y-12419769D01*
X17726968Y-12419769D02*
X17631730Y-12438817D01*
X17803158Y-12495960D02*
X17822206Y-12505484D01*
X17822206Y-12505484D02*
X17860301Y-12505484D01*
X17860301Y-12505484D02*
X17879349Y-12495960D01*
X17879349Y-12495960D02*
X17888873Y-12476912D01*
X17888873Y-12476912D02*
X17888873Y-12467388D01*
X17888873Y-12467388D02*
X17879349Y-12448341D01*
X17879349Y-12448341D02*
X17860301Y-12438817D01*
X17860301Y-12438817D02*
X17831730Y-12438817D01*
X17831730Y-12438817D02*
X17812682Y-12429293D01*
X17812682Y-12429293D02*
X17803158Y-12410246D01*
X17803158Y-12410246D02*
X17803158Y-12400722D01*
X17803158Y-12400722D02*
X17812682Y-12381674D01*
X17812682Y-12381674D02*
X17831730Y-12372150D01*
X17831730Y-12372150D02*
X17860301Y-12372150D01*
X17860301Y-12372150D02*
X17879349Y-12381674D01*
X17955539Y-12581674D02*
X17965063Y-12572150D01*
X17965063Y-12572150D02*
X17984111Y-12543579D01*
X17984111Y-12543579D02*
X17993634Y-12524531D01*
X17993634Y-12524531D02*
X18003158Y-12495960D01*
X18003158Y-12495960D02*
X18012682Y-12448341D01*
X18012682Y-12448341D02*
X18012682Y-12410246D01*
X18012682Y-12410246D02*
X18003158Y-12362627D01*
X18003158Y-12362627D02*
X17993634Y-12334055D01*
X17993634Y-12334055D02*
X17984111Y-12315008D01*
X17984111Y-12315008D02*
X17965063Y-12286436D01*
X17965063Y-12286436D02*
X17955539Y-12276912D01*
D13*
X12930000Y-12618000D02*
X12930000Y-12738000D01*
X12870000Y-12678000D02*
X12990000Y-12678000D01*
D10*
X13355539Y-12769484D02*
X13241253Y-12769484D01*
X13298396Y-12769484D02*
X13298396Y-12569484D01*
X13298396Y-12569484D02*
X13279348Y-12598055D01*
X13279348Y-12598055D02*
X13260301Y-12617103D01*
X13260301Y-12617103D02*
X13241253Y-12626627D01*
X13441253Y-12750436D02*
X13450777Y-12759960D01*
X13450777Y-12759960D02*
X13441253Y-12769484D01*
X13441253Y-12769484D02*
X13431729Y-12759960D01*
X13431729Y-12759960D02*
X13441253Y-12750436D01*
X13441253Y-12750436D02*
X13441253Y-12769484D01*
X13526967Y-12588531D02*
X13536491Y-12579008D01*
X13536491Y-12579008D02*
X13555539Y-12569484D01*
X13555539Y-12569484D02*
X13603158Y-12569484D01*
X13603158Y-12569484D02*
X13622205Y-12579008D01*
X13622205Y-12579008D02*
X13631729Y-12588531D01*
X13631729Y-12588531D02*
X13641253Y-12607579D01*
X13641253Y-12607579D02*
X13641253Y-12626627D01*
X13641253Y-12626627D02*
X13631729Y-12655198D01*
X13631729Y-12655198D02*
X13517443Y-12769484D01*
X13517443Y-12769484D02*
X13641253Y-12769484D01*
X13765062Y-12569484D02*
X13784110Y-12569484D01*
X13784110Y-12569484D02*
X13803158Y-12579008D01*
X13803158Y-12579008D02*
X13812682Y-12588531D01*
X13812682Y-12588531D02*
X13822205Y-12607579D01*
X13822205Y-12607579D02*
X13831729Y-12645674D01*
X13831729Y-12645674D02*
X13831729Y-12693293D01*
X13831729Y-12693293D02*
X13822205Y-12731388D01*
X13822205Y-12731388D02*
X13812682Y-12750436D01*
X13812682Y-12750436D02*
X13803158Y-12759960D01*
X13803158Y-12759960D02*
X13784110Y-12769484D01*
X13784110Y-12769484D02*
X13765062Y-12769484D01*
X13765062Y-12769484D02*
X13746015Y-12759960D01*
X13746015Y-12759960D02*
X13736491Y-12750436D01*
X13736491Y-12750436D02*
X13726967Y-12731388D01*
X13726967Y-12731388D02*
X13717443Y-12693293D01*
X13717443Y-12693293D02*
X13717443Y-12645674D01*
X13717443Y-12645674D02*
X13726967Y-12607579D01*
X13726967Y-12607579D02*
X13736491Y-12588531D01*
X13736491Y-12588531D02*
X13746015Y-12579008D01*
X13746015Y-12579008D02*
X13765062Y-12569484D01*
X13955539Y-12569484D02*
X13974586Y-12569484D01*
X13974586Y-12569484D02*
X13993634Y-12579008D01*
X13993634Y-12579008D02*
X14003158Y-12588531D01*
X14003158Y-12588531D02*
X14012682Y-12607579D01*
X14012682Y-12607579D02*
X14022205Y-12645674D01*
X14022205Y-12645674D02*
X14022205Y-12693293D01*
X14022205Y-12693293D02*
X14012682Y-12731388D01*
X14012682Y-12731388D02*
X14003158Y-12750436D01*
X14003158Y-12750436D02*
X13993634Y-12759960D01*
X13993634Y-12759960D02*
X13974586Y-12769484D01*
X13974586Y-12769484D02*
X13955539Y-12769484D01*
X13955539Y-12769484D02*
X13936491Y-12759960D01*
X13936491Y-12759960D02*
X13926967Y-12750436D01*
X13926967Y-12750436D02*
X13917443Y-12731388D01*
X13917443Y-12731388D02*
X13907920Y-12693293D01*
X13907920Y-12693293D02*
X13907920Y-12645674D01*
X13907920Y-12645674D02*
X13917443Y-12607579D01*
X13917443Y-12607579D02*
X13926967Y-12588531D01*
X13926967Y-12588531D02*
X13936491Y-12579008D01*
X13936491Y-12579008D02*
X13955539Y-12569484D01*
X14107920Y-12769484D02*
X14107920Y-12636150D01*
X14107920Y-12655198D02*
X14117443Y-12645674D01*
X14117443Y-12645674D02*
X14136491Y-12636150D01*
X14136491Y-12636150D02*
X14165063Y-12636150D01*
X14165063Y-12636150D02*
X14184110Y-12645674D01*
X14184110Y-12645674D02*
X14193634Y-12664722D01*
X14193634Y-12664722D02*
X14193634Y-12769484D01*
X14193634Y-12664722D02*
X14203158Y-12645674D01*
X14203158Y-12645674D02*
X14222205Y-12636150D01*
X14222205Y-12636150D02*
X14250777Y-12636150D01*
X14250777Y-12636150D02*
X14269824Y-12645674D01*
X14269824Y-12645674D02*
X14279348Y-12664722D01*
X14279348Y-12664722D02*
X14279348Y-12769484D01*
X14374586Y-12769484D02*
X14374586Y-12636150D01*
X14374586Y-12655198D02*
X14384110Y-12645674D01*
X14384110Y-12645674D02*
X14403158Y-12636150D01*
X14403158Y-12636150D02*
X14431729Y-12636150D01*
X14431729Y-12636150D02*
X14450777Y-12645674D01*
X14450777Y-12645674D02*
X14460301Y-12664722D01*
X14460301Y-12664722D02*
X14460301Y-12769484D01*
X14460301Y-12664722D02*
X14469824Y-12645674D01*
X14469824Y-12645674D02*
X14488872Y-12636150D01*
X14488872Y-12636150D02*
X14517443Y-12636150D01*
X14517443Y-12636150D02*
X14536491Y-12645674D01*
X14536491Y-12645674D02*
X14546015Y-12664722D01*
X14546015Y-12664722D02*
X14546015Y-12769484D01*
X14936491Y-12559960D02*
X14765063Y-12817103D01*
X15193634Y-12569484D02*
X15212682Y-12569484D01*
X15212682Y-12569484D02*
X15231729Y-12579008D01*
X15231729Y-12579008D02*
X15241253Y-12588531D01*
X15241253Y-12588531D02*
X15250777Y-12607579D01*
X15250777Y-12607579D02*
X15260301Y-12645674D01*
X15260301Y-12645674D02*
X15260301Y-12693293D01*
X15260301Y-12693293D02*
X15250777Y-12731388D01*
X15250777Y-12731388D02*
X15241253Y-12750436D01*
X15241253Y-12750436D02*
X15231729Y-12759960D01*
X15231729Y-12759960D02*
X15212682Y-12769484D01*
X15212682Y-12769484D02*
X15193634Y-12769484D01*
X15193634Y-12769484D02*
X15174586Y-12759960D01*
X15174586Y-12759960D02*
X15165063Y-12750436D01*
X15165063Y-12750436D02*
X15155539Y-12731388D01*
X15155539Y-12731388D02*
X15146015Y-12693293D01*
X15146015Y-12693293D02*
X15146015Y-12645674D01*
X15146015Y-12645674D02*
X15155539Y-12607579D01*
X15155539Y-12607579D02*
X15165063Y-12588531D01*
X15165063Y-12588531D02*
X15174586Y-12579008D01*
X15174586Y-12579008D02*
X15193634Y-12569484D01*
X15346015Y-12750436D02*
X15355539Y-12759960D01*
X15355539Y-12759960D02*
X15346015Y-12769484D01*
X15346015Y-12769484D02*
X15336491Y-12759960D01*
X15336491Y-12759960D02*
X15346015Y-12750436D01*
X15346015Y-12750436D02*
X15346015Y-12769484D01*
X15479348Y-12569484D02*
X15498396Y-12569484D01*
X15498396Y-12569484D02*
X15517444Y-12579008D01*
X15517444Y-12579008D02*
X15526967Y-12588531D01*
X15526967Y-12588531D02*
X15536491Y-12607579D01*
X15536491Y-12607579D02*
X15546015Y-12645674D01*
X15546015Y-12645674D02*
X15546015Y-12693293D01*
X15546015Y-12693293D02*
X15536491Y-12731388D01*
X15536491Y-12731388D02*
X15526967Y-12750436D01*
X15526967Y-12750436D02*
X15517444Y-12759960D01*
X15517444Y-12759960D02*
X15498396Y-12769484D01*
X15498396Y-12769484D02*
X15479348Y-12769484D01*
X15479348Y-12769484D02*
X15460301Y-12759960D01*
X15460301Y-12759960D02*
X15450777Y-12750436D01*
X15450777Y-12750436D02*
X15441253Y-12731388D01*
X15441253Y-12731388D02*
X15431729Y-12693293D01*
X15431729Y-12693293D02*
X15431729Y-12645674D01*
X15431729Y-12645674D02*
X15441253Y-12607579D01*
X15441253Y-12607579D02*
X15450777Y-12588531D01*
X15450777Y-12588531D02*
X15460301Y-12579008D01*
X15460301Y-12579008D02*
X15479348Y-12569484D01*
X15717444Y-12636150D02*
X15717444Y-12769484D01*
X15669825Y-12559960D02*
X15622206Y-12702817D01*
X15622206Y-12702817D02*
X15746015Y-12702817D01*
X15803158Y-12569484D02*
X15936491Y-12569484D01*
X15936491Y-12569484D02*
X15850777Y-12769484D01*
X16003158Y-12588531D02*
X16012682Y-12579008D01*
X16012682Y-12579008D02*
X16031729Y-12569484D01*
X16031729Y-12569484D02*
X16079348Y-12569484D01*
X16079348Y-12569484D02*
X16098396Y-12579008D01*
X16098396Y-12579008D02*
X16107920Y-12588531D01*
X16107920Y-12588531D02*
X16117444Y-12607579D01*
X16117444Y-12607579D02*
X16117444Y-12626627D01*
X16117444Y-12626627D02*
X16107920Y-12655198D01*
X16107920Y-12655198D02*
X15993634Y-12769484D01*
X15993634Y-12769484D02*
X16117444Y-12769484D01*
X16193634Y-12569484D02*
X16193634Y-12607579D01*
X16269825Y-12569484D02*
X16269825Y-12607579D01*
X16565063Y-12845674D02*
X16555539Y-12836150D01*
X16555539Y-12836150D02*
X16536491Y-12807579D01*
X16536491Y-12807579D02*
X16526968Y-12788531D01*
X16526968Y-12788531D02*
X16517444Y-12759960D01*
X16517444Y-12759960D02*
X16507920Y-12712341D01*
X16507920Y-12712341D02*
X16507920Y-12674246D01*
X16507920Y-12674246D02*
X16517444Y-12626627D01*
X16517444Y-12626627D02*
X16526968Y-12598055D01*
X16526968Y-12598055D02*
X16536491Y-12579008D01*
X16536491Y-12579008D02*
X16555539Y-12550436D01*
X16555539Y-12550436D02*
X16565063Y-12540912D01*
X16669825Y-12655198D02*
X16650777Y-12645674D01*
X16650777Y-12645674D02*
X16641253Y-12636150D01*
X16641253Y-12636150D02*
X16631729Y-12617103D01*
X16631729Y-12617103D02*
X16631729Y-12607579D01*
X16631729Y-12607579D02*
X16641253Y-12588531D01*
X16641253Y-12588531D02*
X16650777Y-12579008D01*
X16650777Y-12579008D02*
X16669825Y-12569484D01*
X16669825Y-12569484D02*
X16707920Y-12569484D01*
X16707920Y-12569484D02*
X16726968Y-12579008D01*
X16726968Y-12579008D02*
X16736491Y-12588531D01*
X16736491Y-12588531D02*
X16746015Y-12607579D01*
X16746015Y-12607579D02*
X16746015Y-12617103D01*
X16746015Y-12617103D02*
X16736491Y-12636150D01*
X16736491Y-12636150D02*
X16726968Y-12645674D01*
X16726968Y-12645674D02*
X16707920Y-12655198D01*
X16707920Y-12655198D02*
X16669825Y-12655198D01*
X16669825Y-12655198D02*
X16650777Y-12664722D01*
X16650777Y-12664722D02*
X16641253Y-12674246D01*
X16641253Y-12674246D02*
X16631729Y-12693293D01*
X16631729Y-12693293D02*
X16631729Y-12731388D01*
X16631729Y-12731388D02*
X16641253Y-12750436D01*
X16641253Y-12750436D02*
X16650777Y-12759960D01*
X16650777Y-12759960D02*
X16669825Y-12769484D01*
X16669825Y-12769484D02*
X16707920Y-12769484D01*
X16707920Y-12769484D02*
X16726968Y-12759960D01*
X16726968Y-12759960D02*
X16736491Y-12750436D01*
X16736491Y-12750436D02*
X16746015Y-12731388D01*
X16746015Y-12731388D02*
X16746015Y-12693293D01*
X16746015Y-12693293D02*
X16736491Y-12674246D01*
X16736491Y-12674246D02*
X16726968Y-12664722D01*
X16726968Y-12664722D02*
X16707920Y-12655198D01*
X16869825Y-12569484D02*
X16888872Y-12569484D01*
X16888872Y-12569484D02*
X16907920Y-12579008D01*
X16907920Y-12579008D02*
X16917444Y-12588531D01*
X16917444Y-12588531D02*
X16926968Y-12607579D01*
X16926968Y-12607579D02*
X16936491Y-12645674D01*
X16936491Y-12645674D02*
X16936491Y-12693293D01*
X16936491Y-12693293D02*
X16926968Y-12731388D01*
X16926968Y-12731388D02*
X16917444Y-12750436D01*
X16917444Y-12750436D02*
X16907920Y-12759960D01*
X16907920Y-12759960D02*
X16888872Y-12769484D01*
X16888872Y-12769484D02*
X16869825Y-12769484D01*
X16869825Y-12769484D02*
X16850777Y-12759960D01*
X16850777Y-12759960D02*
X16841253Y-12750436D01*
X16841253Y-12750436D02*
X16831730Y-12731388D01*
X16831730Y-12731388D02*
X16822206Y-12693293D01*
X16822206Y-12693293D02*
X16822206Y-12645674D01*
X16822206Y-12645674D02*
X16831730Y-12607579D01*
X16831730Y-12607579D02*
X16841253Y-12588531D01*
X16841253Y-12588531D02*
X16850777Y-12579008D01*
X16850777Y-12579008D02*
X16869825Y-12569484D01*
X17174587Y-12769484D02*
X17174587Y-12569484D01*
X17260301Y-12769484D02*
X17260301Y-12664722D01*
X17260301Y-12664722D02*
X17250777Y-12645674D01*
X17250777Y-12645674D02*
X17231730Y-12636150D01*
X17231730Y-12636150D02*
X17203158Y-12636150D01*
X17203158Y-12636150D02*
X17184111Y-12645674D01*
X17184111Y-12645674D02*
X17174587Y-12655198D01*
X17384111Y-12769484D02*
X17365063Y-12759960D01*
X17365063Y-12759960D02*
X17355539Y-12750436D01*
X17355539Y-12750436D02*
X17346015Y-12731388D01*
X17346015Y-12731388D02*
X17346015Y-12674246D01*
X17346015Y-12674246D02*
X17355539Y-12655198D01*
X17355539Y-12655198D02*
X17365063Y-12645674D01*
X17365063Y-12645674D02*
X17384111Y-12636150D01*
X17384111Y-12636150D02*
X17412682Y-12636150D01*
X17412682Y-12636150D02*
X17431730Y-12645674D01*
X17431730Y-12645674D02*
X17441253Y-12655198D01*
X17441253Y-12655198D02*
X17450777Y-12674246D01*
X17450777Y-12674246D02*
X17450777Y-12731388D01*
X17450777Y-12731388D02*
X17441253Y-12750436D01*
X17441253Y-12750436D02*
X17431730Y-12759960D01*
X17431730Y-12759960D02*
X17412682Y-12769484D01*
X17412682Y-12769484D02*
X17384111Y-12769484D01*
X17565063Y-12769484D02*
X17546015Y-12759960D01*
X17546015Y-12759960D02*
X17536492Y-12740912D01*
X17536492Y-12740912D02*
X17536492Y-12569484D01*
X17717444Y-12759960D02*
X17698396Y-12769484D01*
X17698396Y-12769484D02*
X17660301Y-12769484D01*
X17660301Y-12769484D02*
X17641253Y-12759960D01*
X17641253Y-12759960D02*
X17631730Y-12740912D01*
X17631730Y-12740912D02*
X17631730Y-12664722D01*
X17631730Y-12664722D02*
X17641253Y-12645674D01*
X17641253Y-12645674D02*
X17660301Y-12636150D01*
X17660301Y-12636150D02*
X17698396Y-12636150D01*
X17698396Y-12636150D02*
X17717444Y-12645674D01*
X17717444Y-12645674D02*
X17726968Y-12664722D01*
X17726968Y-12664722D02*
X17726968Y-12683769D01*
X17726968Y-12683769D02*
X17631730Y-12702817D01*
X17803158Y-12759960D02*
X17822206Y-12769484D01*
X17822206Y-12769484D02*
X17860301Y-12769484D01*
X17860301Y-12769484D02*
X17879349Y-12759960D01*
X17879349Y-12759960D02*
X17888873Y-12740912D01*
X17888873Y-12740912D02*
X17888873Y-12731388D01*
X17888873Y-12731388D02*
X17879349Y-12712341D01*
X17879349Y-12712341D02*
X17860301Y-12702817D01*
X17860301Y-12702817D02*
X17831730Y-12702817D01*
X17831730Y-12702817D02*
X17812682Y-12693293D01*
X17812682Y-12693293D02*
X17803158Y-12674246D01*
X17803158Y-12674246D02*
X17803158Y-12664722D01*
X17803158Y-12664722D02*
X17812682Y-12645674D01*
X17812682Y-12645674D02*
X17831730Y-12636150D01*
X17831730Y-12636150D02*
X17860301Y-12636150D01*
X17860301Y-12636150D02*
X17879349Y-12645674D01*
X17955539Y-12845674D02*
X17965063Y-12836150D01*
X17965063Y-12836150D02*
X17984111Y-12807579D01*
X17984111Y-12807579D02*
X17993634Y-12788531D01*
X17993634Y-12788531D02*
X18003158Y-12759960D01*
X18003158Y-12759960D02*
X18012682Y-12712341D01*
X18012682Y-12712341D02*
X18012682Y-12674246D01*
X18012682Y-12674246D02*
X18003158Y-12626627D01*
X18003158Y-12626627D02*
X17993634Y-12598055D01*
X17993634Y-12598055D02*
X17984111Y-12579008D01*
X17984111Y-12579008D02*
X17965063Y-12550436D01*
X17965063Y-12550436D02*
X17955539Y-12540912D01*
M02*
