G04 #@! TF.GenerationSoftware,KiCad,Pcbnew,7.0.6*
G04 #@! TF.CreationDate,2024-12-08T10:07:36-05:00*
G04 #@! TF.ProjectId,Keypad,4b657970-6164-42e6-9b69-6361645f7063,rev?*
G04 #@! TF.SameCoordinates,Original*
G04 #@! TF.FileFunction,Copper,L2,Bot*
G04 #@! TF.FilePolarity,Positive*
%FSLAX46Y46*%
G04 Gerber Fmt 4.6, Leading zero omitted, Abs format (unit mm)*
G04 Created by KiCad (PCBNEW 7.0.6) date 2024-12-08 10:07:36*
%MOMM*%
%LPD*%
G01*
G04 APERTURE LIST*
G04 #@! TA.AperFunction,ComponentPad*
%ADD10C,1.600000*%
G04 #@! TD*
G04 #@! TA.AperFunction,ComponentPad*
%ADD11O,1.600000X1.600000*%
G04 #@! TD*
G04 #@! TA.AperFunction,ComponentPad*
%ADD12O,3.000000X2.500000*%
G04 #@! TD*
G04 #@! TA.AperFunction,ComponentPad*
%ADD13R,1.600000X1.600000*%
G04 #@! TD*
G04 #@! TA.AperFunction,ComponentPad*
%ADD14R,1.700000X1.700000*%
G04 #@! TD*
G04 #@! TA.AperFunction,ComponentPad*
%ADD15O,1.700000X1.700000*%
G04 #@! TD*
G04 #@! TA.AperFunction,Conductor*
%ADD16C,0.250000*%
G04 #@! TD*
G04 APERTURE END LIST*
D10*
X204125000Y-111975000D03*
D11*
X206665000Y-111975000D03*
D12*
X204055000Y-55880000D03*
X191555000Y-55880000D03*
X204055000Y-50880000D03*
X191555000Y-50880000D03*
X186195000Y-55880000D03*
X173695000Y-55880000D03*
X186195000Y-50880000D03*
X173695000Y-50880000D03*
D13*
X140555000Y-27740000D03*
D11*
X148175000Y-27740000D03*
D13*
X158335000Y-45520000D03*
D11*
X165955000Y-45520000D03*
D12*
X186235000Y-91440000D03*
X173735000Y-91440000D03*
X186235000Y-86440000D03*
X173735000Y-86440000D03*
D13*
X211675000Y-27740000D03*
D11*
X219295000Y-27740000D03*
D12*
X221835000Y-91440000D03*
X209335000Y-91440000D03*
X221835000Y-86440000D03*
X209335000Y-86440000D03*
X168455000Y-91440000D03*
X155955000Y-91440000D03*
X168455000Y-86440000D03*
X155955000Y-86440000D03*
D13*
X193895000Y-81080000D03*
D11*
X201515000Y-81080000D03*
D12*
X186235000Y-73460000D03*
X173735000Y-73460000D03*
X186235000Y-68460000D03*
X173735000Y-68460000D03*
X221835000Y-55880000D03*
X209335000Y-55880000D03*
X221835000Y-50880000D03*
X209335000Y-50880000D03*
D10*
X215425000Y-112000000D03*
D11*
X217965000Y-112000000D03*
D10*
X198450000Y-111975000D03*
D11*
X200990000Y-111975000D03*
D13*
X176115000Y-81080000D03*
D11*
X183735000Y-81080000D03*
D13*
X211675000Y-81080000D03*
D11*
X219295000Y-81080000D03*
D13*
X193895000Y-27740000D03*
D11*
X201515000Y-27740000D03*
D12*
X186195000Y-37960000D03*
X173695000Y-37960000D03*
X186195000Y-32960000D03*
X173695000Y-32960000D03*
D13*
X211675000Y-45520000D03*
D11*
X219295000Y-45520000D03*
D13*
X140555000Y-45520000D03*
D11*
X148175000Y-45520000D03*
D12*
X150715000Y-37960000D03*
X138215000Y-37960000D03*
X150715000Y-32960000D03*
X138215000Y-32960000D03*
X203975000Y-37960000D03*
X191475000Y-37960000D03*
X203975000Y-32960000D03*
X191475000Y-32960000D03*
X168415000Y-37960000D03*
X155915000Y-37960000D03*
X168415000Y-32960000D03*
X155915000Y-32960000D03*
D10*
X192850000Y-111850000D03*
D11*
X195390000Y-111850000D03*
D12*
X150675000Y-73460000D03*
X138175000Y-73460000D03*
X150675000Y-68460000D03*
X138175000Y-68460000D03*
D13*
X176115000Y-27740000D03*
D11*
X183735000Y-27740000D03*
D13*
X158335000Y-27740000D03*
D11*
X165955000Y-27740000D03*
D12*
X168455000Y-73460000D03*
X155955000Y-73460000D03*
X168455000Y-68460000D03*
X155955000Y-68460000D03*
D13*
X211675000Y-63300000D03*
D11*
X219295000Y-63300000D03*
D13*
X176115000Y-63300000D03*
D11*
X183735000Y-63300000D03*
D14*
X163380000Y-103875000D03*
D15*
X165920000Y-103875000D03*
X168460000Y-103875000D03*
X171000000Y-103875000D03*
X173540000Y-103875000D03*
X176080000Y-103875000D03*
X178620000Y-103875000D03*
X181160000Y-103875000D03*
X183700000Y-103875000D03*
X186240000Y-103875000D03*
D13*
X158335000Y-63300000D03*
D11*
X165955000Y-63300000D03*
D13*
X140555000Y-63300000D03*
D11*
X148175000Y-63300000D03*
D13*
X176115000Y-45520000D03*
D11*
X183735000Y-45520000D03*
D12*
X204055000Y-91440000D03*
X191555000Y-91440000D03*
X204055000Y-86440000D03*
X191555000Y-86440000D03*
X168455000Y-55880000D03*
X155955000Y-55880000D03*
X168455000Y-50880000D03*
X155955000Y-50880000D03*
D13*
X193895000Y-63300000D03*
D11*
X201515000Y-63300000D03*
D13*
X140555000Y-81080000D03*
D11*
X148175000Y-81080000D03*
D10*
X209750000Y-111975000D03*
D11*
X212290000Y-111975000D03*
D12*
X150675000Y-91440000D03*
X138175000Y-91440000D03*
X150675000Y-86440000D03*
X138175000Y-86440000D03*
D13*
X158335000Y-81080000D03*
D11*
X165955000Y-81080000D03*
D13*
X193895000Y-45520000D03*
D11*
X201515000Y-45520000D03*
D12*
X221795000Y-73460000D03*
X209295000Y-73460000D03*
X221795000Y-68460000D03*
X209295000Y-68460000D03*
X221835000Y-37960000D03*
X209335000Y-37960000D03*
X221835000Y-32960000D03*
X209335000Y-32960000D03*
X204055000Y-73460000D03*
X191555000Y-73460000D03*
X204055000Y-68460000D03*
X191555000Y-68460000D03*
X150675000Y-55880000D03*
X138175000Y-55880000D03*
X150675000Y-50880000D03*
X138175000Y-50880000D03*
D16*
X207865000Y-27740000D02*
X211675000Y-27740000D01*
X185800000Y-105975000D02*
X209400000Y-105975000D01*
X206595000Y-29010000D02*
X207865000Y-27740000D01*
X209400000Y-105975000D02*
X215425000Y-112000000D01*
X206595000Y-45520000D02*
X206595000Y-29010000D01*
X205595000Y-98000000D02*
X206595000Y-97000000D01*
X183700000Y-103875000D02*
X183800000Y-103875000D01*
X206595000Y-63300000D02*
X211675000Y-63300000D01*
X183800000Y-103875000D02*
X189675000Y-98000000D01*
X206595000Y-81080000D02*
X206595000Y-97000000D01*
X206595000Y-63300000D02*
X206595000Y-45520000D01*
X206595000Y-45520000D02*
X211675000Y-45520000D01*
X206595000Y-81080000D02*
X206595000Y-63300000D01*
X189675000Y-98000000D02*
X205595000Y-98000000D01*
X206595000Y-81080000D02*
X211675000Y-81080000D01*
X183700000Y-103875000D02*
X185800000Y-105975000D01*
X219295000Y-27740000D02*
X219295000Y-30420000D01*
X219295000Y-30420000D02*
X221835000Y-32960000D01*
X219295000Y-45520000D02*
X219295000Y-48340000D01*
X219295000Y-48340000D02*
X221835000Y-50880000D01*
X219295000Y-63300000D02*
X219295000Y-65960000D01*
X219295000Y-65960000D02*
X221795000Y-68460000D01*
X219295000Y-81080000D02*
X219295000Y-83900000D01*
X219295000Y-83900000D02*
X221835000Y-86440000D01*
X188815000Y-81080000D02*
X188815000Y-63300000D01*
X188815000Y-63300000D02*
X193895000Y-63300000D01*
X204900000Y-107125000D02*
X209750000Y-111975000D01*
X181195000Y-103940000D02*
X188815000Y-96320000D01*
X188815000Y-45520000D02*
X188815000Y-29010000D01*
X188815000Y-29010000D02*
X190085000Y-27740000D01*
X181160000Y-103875000D02*
X184410000Y-107125000D01*
X188815000Y-81080000D02*
X193895000Y-81080000D01*
X188815000Y-63300000D02*
X188815000Y-45520000D01*
X188815000Y-45520000D02*
X193895000Y-45520000D01*
X184410000Y-107125000D02*
X204900000Y-107125000D01*
X188815000Y-96320000D02*
X188815000Y-81080000D01*
X190085000Y-27740000D02*
X193895000Y-27740000D01*
X201515000Y-27740000D02*
X201515000Y-30500000D01*
X201515000Y-30500000D02*
X203975000Y-32960000D01*
X201515000Y-48340000D02*
X204055000Y-50880000D01*
X201515000Y-45520000D02*
X201515000Y-48340000D01*
X201515000Y-65920000D02*
X204055000Y-68460000D01*
X201515000Y-63300000D02*
X201515000Y-65920000D01*
X201515000Y-81080000D02*
X201515000Y-83900000D01*
X201515000Y-83900000D02*
X204055000Y-86440000D01*
X171035000Y-63300000D02*
X171035000Y-45520000D01*
X182325000Y-108400000D02*
X200550000Y-108400000D01*
X200550000Y-108400000D02*
X204125000Y-111975000D01*
X176115000Y-63300000D02*
X171035000Y-63300000D01*
X172305000Y-27740000D02*
X176115000Y-27740000D01*
X171035000Y-81080000D02*
X171035000Y-63300000D01*
X178655000Y-103940000D02*
X171035000Y-96320000D01*
X178620000Y-104695000D02*
X182325000Y-108400000D01*
X171035000Y-29010000D02*
X172305000Y-27740000D01*
X176115000Y-45520000D02*
X171035000Y-45520000D01*
X171035000Y-96320000D02*
X171035000Y-81080000D01*
X178620000Y-103875000D02*
X178620000Y-104695000D01*
X176115000Y-81080000D02*
X171035000Y-81080000D01*
X171035000Y-45520000D02*
X171035000Y-29010000D01*
X183735000Y-27740000D02*
X183735000Y-30500000D01*
X183735000Y-30500000D02*
X186195000Y-32960000D01*
X183735000Y-48420000D02*
X186195000Y-50880000D01*
X183735000Y-45520000D02*
X183735000Y-48420000D01*
X183735000Y-63300000D02*
X183735000Y-65960000D01*
X183735000Y-65960000D02*
X186235000Y-68460000D01*
X183735000Y-81080000D02*
X183735000Y-83940000D01*
X183735000Y-83940000D02*
X186235000Y-86440000D01*
X153255000Y-81080000D02*
X158335000Y-81080000D01*
X155795000Y-100130000D02*
X153255000Y-97590000D01*
X176080000Y-103875000D02*
X181805000Y-109600000D01*
X153255000Y-45520000D02*
X158335000Y-45520000D01*
X153255000Y-81080000D02*
X153255000Y-63300000D01*
X158335000Y-27740000D02*
X154525000Y-27740000D01*
X153255000Y-45520000D02*
X153255000Y-29010000D01*
X153255000Y-97590000D02*
X153255000Y-81080000D01*
X196075000Y-109600000D02*
X198450000Y-111975000D01*
X153255000Y-63300000D02*
X153255000Y-45520000D01*
X181805000Y-109600000D02*
X196075000Y-109600000D01*
X176115000Y-103940000D02*
X172305000Y-100130000D01*
X153255000Y-63300000D02*
X158335000Y-63300000D01*
X172305000Y-100130000D02*
X155795000Y-100130000D01*
X153255000Y-29010000D02*
X154525000Y-27740000D01*
X165955000Y-27740000D02*
X165955000Y-30500000D01*
X165955000Y-30500000D02*
X168415000Y-32960000D01*
X165955000Y-48380000D02*
X168455000Y-50880000D01*
X165955000Y-45520000D02*
X165955000Y-48380000D01*
X165955000Y-65960000D02*
X168455000Y-68460000D01*
X165955000Y-63300000D02*
X165955000Y-65960000D01*
X165955000Y-83940000D02*
X168455000Y-86440000D01*
X165955000Y-81080000D02*
X165955000Y-83940000D01*
X173540000Y-109240000D02*
X176150000Y-111850000D01*
X140555000Y-81080000D02*
X135475000Y-81080000D01*
X171065000Y-101400000D02*
X173540000Y-103875000D01*
X135475000Y-29010000D02*
X135475000Y-45520000D01*
X135475000Y-81080000D02*
X135475000Y-100130000D01*
X135475000Y-63300000D02*
X135475000Y-81080000D01*
X140555000Y-27740000D02*
X136745000Y-27740000D01*
X173540000Y-103875000D02*
X173540000Y-109240000D01*
X140555000Y-45520000D02*
X135475000Y-45520000D01*
X176150000Y-111850000D02*
X192850000Y-111850000D01*
X135475000Y-100130000D02*
X136745000Y-101400000D01*
X140555000Y-63300000D02*
X135475000Y-63300000D01*
X136745000Y-101400000D02*
X171065000Y-101400000D01*
X135475000Y-45520000D02*
X135475000Y-63300000D01*
X136745000Y-27740000D02*
X135475000Y-29010000D01*
X148175000Y-30420000D02*
X150715000Y-32960000D01*
X148175000Y-27740000D02*
X148175000Y-30420000D01*
X148175000Y-48380000D02*
X150675000Y-50880000D01*
X148175000Y-45520000D02*
X148175000Y-48380000D01*
X148175000Y-65960000D02*
X150675000Y-68460000D01*
X148175000Y-63300000D02*
X148175000Y-65960000D01*
X148175000Y-81080000D02*
X148175000Y-83940000D01*
X148175000Y-83940000D02*
X150675000Y-86440000D01*
X212350000Y-113700000D02*
X206625000Y-113700000D01*
X200990000Y-111975000D02*
X200990000Y-113540000D01*
X206665000Y-111975000D02*
X206665000Y-113660000D01*
X217965000Y-113640000D02*
X218025000Y-113700000D01*
X212290000Y-113640000D02*
X212350000Y-113700000D01*
X197240000Y-113700000D02*
X195390000Y-111850000D01*
X218600000Y-103925000D02*
X219650000Y-104975000D01*
X200990000Y-113540000D02*
X201150000Y-113700000D01*
X206665000Y-113660000D02*
X206625000Y-113700000D01*
X219650000Y-104975000D02*
X219650000Y-112900000D01*
X186340000Y-103925000D02*
X218600000Y-103925000D01*
X206625000Y-113700000D02*
X201150000Y-113700000D01*
X218025000Y-113700000D02*
X212350000Y-113700000D01*
X218850000Y-113700000D02*
X218025000Y-113700000D01*
X186265000Y-103850000D02*
X186340000Y-103925000D01*
X212290000Y-111975000D02*
X212290000Y-113640000D01*
X217965000Y-112000000D02*
X217965000Y-113640000D01*
X201150000Y-113700000D02*
X197240000Y-113700000D01*
X219650000Y-112900000D02*
X218850000Y-113700000D01*
M02*
