M48
; DRILL file {KiCad 7.0.6} date Sun Dec  8 10:07:45 2024
; FORMAT={-:-/ absolute / metric / decimal}
; #@! TF.CreationDate,2024-12-08T10:07:45-05:00
; #@! TF.GenerationSoftware,Kicad,Pcbnew,7.0.6
; #@! TF.FileFunction,Plated,1,2,PTH
FMAT,2
METRIC
; #@! TA.AperFunction,Plated,PTH,ComponentDrill
T1C0.800
; #@! TA.AperFunction,Plated,PTH,ComponentDrill
T2C1.000
; #@! TA.AperFunction,Plated,PTH,ComponentDrill
T3C1.200
%
G90
G05
T1
X140.555Y-27.74
X140.555Y-45.52
X140.555Y-63.3
X140.555Y-81.08
X148.175Y-27.74
X148.175Y-45.52
X148.175Y-63.3
X148.175Y-81.08
X158.335Y-27.74
X158.335Y-45.52
X158.335Y-63.3
X158.335Y-81.08
X165.955Y-27.74
X165.955Y-45.52
X165.955Y-63.3
X165.955Y-81.08
X176.115Y-27.74
X176.115Y-45.52
X176.115Y-63.3
X176.115Y-81.08
X183.735Y-27.74
X183.735Y-45.52
X183.735Y-63.3
X183.735Y-81.08
X192.85Y-111.85
X193.895Y-27.74
X193.895Y-45.52
X193.895Y-63.3
X193.895Y-81.08
X195.39Y-111.85
X198.45Y-111.975
X200.99Y-111.975
X201.515Y-27.74
X201.515Y-45.52
X201.515Y-63.3
X201.515Y-81.08
X204.125Y-111.975
X206.665Y-111.975
X209.75Y-111.975
X211.675Y-27.74
X211.675Y-45.52
X211.675Y-63.3
X211.675Y-81.08
X212.29Y-111.975
X215.425Y-112.0
X217.965Y-112.0
X219.295Y-27.74
X219.295Y-45.52
X219.295Y-63.3
X219.295Y-81.08
T2
X163.38Y-103.875
X165.92Y-103.875
X168.46Y-103.875
X171.0Y-103.875
X173.54Y-103.875
X176.08Y-103.875
X178.62Y-103.875
X181.16Y-103.875
X183.7Y-103.875
X186.24Y-103.875
T3
X138.175Y-50.88
X138.175Y-55.88
X138.175Y-68.46
X138.175Y-73.46
X138.175Y-86.44
X138.175Y-91.44
X138.215Y-32.96
X138.215Y-37.96
X150.675Y-50.88
X150.675Y-55.88
X150.675Y-68.46
X150.675Y-73.46
X150.675Y-86.44
X150.675Y-91.44
X150.715Y-32.96
X150.715Y-37.96
X155.915Y-32.96
X155.915Y-37.96
X155.955Y-50.88
X155.955Y-55.88
X155.955Y-68.46
X155.955Y-73.46
X155.955Y-86.44
X155.955Y-91.44
X168.415Y-32.96
X168.415Y-37.96
X168.455Y-50.88
X168.455Y-55.88
X168.455Y-68.46
X168.455Y-73.46
X168.455Y-86.44
X168.455Y-91.44
X173.695Y-32.96
X173.695Y-37.96
X173.695Y-50.88
X173.695Y-55.88
X173.735Y-68.46
X173.735Y-73.46
X173.735Y-86.44
X173.735Y-91.44
X186.195Y-32.96
X186.195Y-37.96
X186.195Y-50.88
X186.195Y-55.88
X186.235Y-68.46
X186.235Y-73.46
X186.235Y-86.44
X186.235Y-91.44
X191.475Y-32.96
X191.475Y-37.96
X191.555Y-50.88
X191.555Y-55.88
X191.555Y-68.46
X191.555Y-73.46
X191.555Y-86.44
X191.555Y-91.44
X203.975Y-32.96
X203.975Y-37.96
X204.055Y-50.88
X204.055Y-55.88
X204.055Y-68.46
X204.055Y-73.46
X204.055Y-86.44
X204.055Y-91.44
X209.295Y-68.46
X209.295Y-73.46
X209.335Y-32.96
X209.335Y-37.96
X209.335Y-50.88
X209.335Y-55.88
X209.335Y-86.44
X209.335Y-91.44
X221.795Y-68.46
X221.795Y-73.46
X221.835Y-32.96
X221.835Y-37.96
X221.835Y-50.88
X221.835Y-55.88
X221.835Y-86.44
X221.835Y-91.44
T0
M30
