G04 #@! TF.GenerationSoftware,KiCad,Pcbnew,7.0.6*
G04 #@! TF.CreationDate,2024-12-08T10:07:36-05:00*
G04 #@! TF.ProjectId,Keypad,4b657970-6164-42e6-9b69-6361645f7063,rev?*
G04 #@! TF.SameCoordinates,Original*
G04 #@! TF.FileFunction,Legend,Bot*
G04 #@! TF.FilePolarity,Positive*
%FSLAX46Y46*%
G04 Gerber Fmt 4.6, Leading zero omitted, Abs format (unit mm)*
G04 Created by KiCad (PCBNEW 7.0.6) date 2024-12-08 10:07:36*
%MOMM*%
%LPD*%
G01*
G04 APERTURE LIST*
%ADD10C,1.600000*%
%ADD11O,1.600000X1.600000*%
%ADD12O,3.000000X2.500000*%
%ADD13R,1.600000X1.600000*%
%ADD14R,1.700000X1.700000*%
%ADD15O,1.700000X1.700000*%
G04 APERTURE END LIST*
%LPC*%
D10*
X204125000Y-111975000D03*
D11*
X206665000Y-111975000D03*
D12*
X204055000Y-55880000D03*
X191555000Y-55880000D03*
X204055000Y-50880000D03*
X191555000Y-50880000D03*
X186195000Y-55880000D03*
X173695000Y-55880000D03*
X186195000Y-50880000D03*
X173695000Y-50880000D03*
D13*
X140555000Y-27740000D03*
D11*
X148175000Y-27740000D03*
D13*
X158335000Y-45520000D03*
D11*
X165955000Y-45520000D03*
D12*
X186235000Y-91440000D03*
X173735000Y-91440000D03*
X186235000Y-86440000D03*
X173735000Y-86440000D03*
D13*
X211675000Y-27740000D03*
D11*
X219295000Y-27740000D03*
D12*
X221835000Y-91440000D03*
X209335000Y-91440000D03*
X221835000Y-86440000D03*
X209335000Y-86440000D03*
X168455000Y-91440000D03*
X155955000Y-91440000D03*
X168455000Y-86440000D03*
X155955000Y-86440000D03*
D13*
X193895000Y-81080000D03*
D11*
X201515000Y-81080000D03*
D12*
X186235000Y-73460000D03*
X173735000Y-73460000D03*
X186235000Y-68460000D03*
X173735000Y-68460000D03*
X221835000Y-55880000D03*
X209335000Y-55880000D03*
X221835000Y-50880000D03*
X209335000Y-50880000D03*
D10*
X215425000Y-112000000D03*
D11*
X217965000Y-112000000D03*
D10*
X198450000Y-111975000D03*
D11*
X200990000Y-111975000D03*
D13*
X176115000Y-81080000D03*
D11*
X183735000Y-81080000D03*
D13*
X211675000Y-81080000D03*
D11*
X219295000Y-81080000D03*
D13*
X193895000Y-27740000D03*
D11*
X201515000Y-27740000D03*
D12*
X186195000Y-37960000D03*
X173695000Y-37960000D03*
X186195000Y-32960000D03*
X173695000Y-32960000D03*
D13*
X211675000Y-45520000D03*
D11*
X219295000Y-45520000D03*
D13*
X140555000Y-45520000D03*
D11*
X148175000Y-45520000D03*
D12*
X150715000Y-37960000D03*
X138215000Y-37960000D03*
X150715000Y-32960000D03*
X138215000Y-32960000D03*
X203975000Y-37960000D03*
X191475000Y-37960000D03*
X203975000Y-32960000D03*
X191475000Y-32960000D03*
X168415000Y-37960000D03*
X155915000Y-37960000D03*
X168415000Y-32960000D03*
X155915000Y-32960000D03*
D10*
X192850000Y-111850000D03*
D11*
X195390000Y-111850000D03*
D12*
X150675000Y-73460000D03*
X138175000Y-73460000D03*
X150675000Y-68460000D03*
X138175000Y-68460000D03*
D13*
X176115000Y-27740000D03*
D11*
X183735000Y-27740000D03*
D13*
X158335000Y-27740000D03*
D11*
X165955000Y-27740000D03*
D12*
X168455000Y-73460000D03*
X155955000Y-73460000D03*
X168455000Y-68460000D03*
X155955000Y-68460000D03*
D13*
X211675000Y-63300000D03*
D11*
X219295000Y-63300000D03*
D13*
X176115000Y-63300000D03*
D11*
X183735000Y-63300000D03*
D14*
X163380000Y-103875000D03*
D15*
X165920000Y-103875000D03*
X168460000Y-103875000D03*
X171000000Y-103875000D03*
X173540000Y-103875000D03*
X176080000Y-103875000D03*
X178620000Y-103875000D03*
X181160000Y-103875000D03*
X183700000Y-103875000D03*
X186240000Y-103875000D03*
D13*
X158335000Y-63300000D03*
D11*
X165955000Y-63300000D03*
D13*
X140555000Y-63300000D03*
D11*
X148175000Y-63300000D03*
D13*
X176115000Y-45520000D03*
D11*
X183735000Y-45520000D03*
D12*
X204055000Y-91440000D03*
X191555000Y-91440000D03*
X204055000Y-86440000D03*
X191555000Y-86440000D03*
X168455000Y-55880000D03*
X155955000Y-55880000D03*
X168455000Y-50880000D03*
X155955000Y-50880000D03*
D13*
X193895000Y-63300000D03*
D11*
X201515000Y-63300000D03*
D13*
X140555000Y-81080000D03*
D11*
X148175000Y-81080000D03*
D10*
X209750000Y-111975000D03*
D11*
X212290000Y-111975000D03*
D12*
X150675000Y-91440000D03*
X138175000Y-91440000D03*
X150675000Y-86440000D03*
X138175000Y-86440000D03*
D13*
X158335000Y-81080000D03*
D11*
X165955000Y-81080000D03*
D13*
X193895000Y-45520000D03*
D11*
X201515000Y-45520000D03*
D12*
X221795000Y-73460000D03*
X209295000Y-73460000D03*
X221795000Y-68460000D03*
X209295000Y-68460000D03*
X221835000Y-37960000D03*
X209335000Y-37960000D03*
X221835000Y-32960000D03*
X209335000Y-32960000D03*
X204055000Y-73460000D03*
X191555000Y-73460000D03*
X204055000Y-68460000D03*
X191555000Y-68460000D03*
X150675000Y-55880000D03*
X138175000Y-55880000D03*
X150675000Y-50880000D03*
X138175000Y-50880000D03*
%LPD*%
M02*
