G04 #@! TF.GenerationSoftware,KiCad,Pcbnew,7.0.6*
G04 #@! TF.CreationDate,2024-12-08T10:07:36-05:00*
G04 #@! TF.ProjectId,Keypad,4b657970-6164-42e6-9b69-6361645f7063,rev?*
G04 #@! TF.SameCoordinates,Original*
G04 #@! TF.FileFunction,Legend,Top*
G04 #@! TF.FilePolarity,Positive*
%FSLAX46Y46*%
G04 Gerber Fmt 4.6, Leading zero omitted, Abs format (unit mm)*
G04 Created by KiCad (PCBNEW 7.0.6) date 2024-12-08 10:07:36*
%MOMM*%
%LPD*%
G01*
G04 APERTURE LIST*
%ADD10C,0.200000*%
%ADD11C,0.150000*%
%ADD12C,0.120000*%
%ADD13C,1.600000*%
%ADD14O,1.600000X1.600000*%
%ADD15O,3.000000X2.500000*%
%ADD16R,1.600000X1.600000*%
%ADD17R,1.700000X1.700000*%
%ADD18O,1.700000X1.700000*%
G04 APERTURE END LIST*
D10*
X132478244Y-108606933D02*
X134078244Y-108606933D01*
X133278244Y-111406933D02*
X133278244Y-108606933D01*
X135011577Y-111406933D02*
X135011577Y-109540266D01*
X135011577Y-110073600D02*
X135144911Y-109806933D01*
X135144911Y-109806933D02*
X135278244Y-109673600D01*
X135278244Y-109673600D02*
X135544911Y-109540266D01*
X135544911Y-109540266D02*
X135811577Y-109540266D01*
X137811577Y-111273600D02*
X137544910Y-111406933D01*
X137544910Y-111406933D02*
X137011577Y-111406933D01*
X137011577Y-111406933D02*
X136744910Y-111273600D01*
X136744910Y-111273600D02*
X136611577Y-111006933D01*
X136611577Y-111006933D02*
X136611577Y-109940266D01*
X136611577Y-109940266D02*
X136744910Y-109673600D01*
X136744910Y-109673600D02*
X137011577Y-109540266D01*
X137011577Y-109540266D02*
X137544910Y-109540266D01*
X137544910Y-109540266D02*
X137811577Y-109673600D01*
X137811577Y-109673600D02*
X137944910Y-109940266D01*
X137944910Y-109940266D02*
X137944910Y-110206933D01*
X137944910Y-110206933D02*
X136611577Y-110473600D01*
X139144910Y-111406933D02*
X139144910Y-108606933D01*
X139411577Y-110340266D02*
X140211577Y-111406933D01*
X140211577Y-109540266D02*
X139144910Y-110606933D01*
X142611577Y-109540266D02*
X142611577Y-111406933D01*
X141411577Y-109540266D02*
X141411577Y-111006933D01*
X141411577Y-111006933D02*
X141544911Y-111273600D01*
X141544911Y-111273600D02*
X141811577Y-111406933D01*
X141811577Y-111406933D02*
X142211577Y-111406933D01*
X142211577Y-111406933D02*
X142478244Y-111273600D01*
X142478244Y-111273600D02*
X142611577Y-111140266D01*
X144344910Y-111406933D02*
X144078244Y-111273600D01*
X144078244Y-111273600D02*
X143944910Y-111006933D01*
X143944910Y-111006933D02*
X143944910Y-108606933D01*
X146611577Y-111406933D02*
X146611577Y-109940266D01*
X146611577Y-109940266D02*
X146478244Y-109673600D01*
X146478244Y-109673600D02*
X146211577Y-109540266D01*
X146211577Y-109540266D02*
X145678244Y-109540266D01*
X145678244Y-109540266D02*
X145411577Y-109673600D01*
X146611577Y-111273600D02*
X146344911Y-111406933D01*
X146344911Y-111406933D02*
X145678244Y-111406933D01*
X145678244Y-111406933D02*
X145411577Y-111273600D01*
X145411577Y-111273600D02*
X145278244Y-111006933D01*
X145278244Y-111006933D02*
X145278244Y-110740266D01*
X145278244Y-110740266D02*
X145411577Y-110473600D01*
X145411577Y-110473600D02*
X145678244Y-110340266D01*
X145678244Y-110340266D02*
X146344911Y-110340266D01*
X146344911Y-110340266D02*
X146611577Y-110206933D01*
X147544910Y-109540266D02*
X148611577Y-109540266D01*
X147944910Y-108606933D02*
X147944910Y-111006933D01*
X147944910Y-111006933D02*
X148078244Y-111273600D01*
X148078244Y-111273600D02*
X148344910Y-111406933D01*
X148344910Y-111406933D02*
X148611577Y-111406933D01*
X149944910Y-111406933D02*
X149678244Y-111273600D01*
X149678244Y-111273600D02*
X149544910Y-111140266D01*
X149544910Y-111140266D02*
X149411577Y-110873600D01*
X149411577Y-110873600D02*
X149411577Y-110073600D01*
X149411577Y-110073600D02*
X149544910Y-109806933D01*
X149544910Y-109806933D02*
X149678244Y-109673600D01*
X149678244Y-109673600D02*
X149944910Y-109540266D01*
X149944910Y-109540266D02*
X150344910Y-109540266D01*
X150344910Y-109540266D02*
X150611577Y-109673600D01*
X150611577Y-109673600D02*
X150744910Y-109806933D01*
X150744910Y-109806933D02*
X150878244Y-110073600D01*
X150878244Y-110073600D02*
X150878244Y-110873600D01*
X150878244Y-110873600D02*
X150744910Y-111140266D01*
X150744910Y-111140266D02*
X150611577Y-111273600D01*
X150611577Y-111273600D02*
X150344910Y-111406933D01*
X150344910Y-111406933D02*
X149944910Y-111406933D01*
X152078243Y-111406933D02*
X152078243Y-109540266D01*
X152078243Y-110073600D02*
X152211577Y-109806933D01*
X152211577Y-109806933D02*
X152344910Y-109673600D01*
X152344910Y-109673600D02*
X152611577Y-109540266D01*
X152611577Y-109540266D02*
X152878243Y-109540266D01*
X155811576Y-108873600D02*
X155944909Y-108740266D01*
X155944909Y-108740266D02*
X156211576Y-108606933D01*
X156211576Y-108606933D02*
X156878243Y-108606933D01*
X156878243Y-108606933D02*
X157144909Y-108740266D01*
X157144909Y-108740266D02*
X157278243Y-108873600D01*
X157278243Y-108873600D02*
X157411576Y-109140266D01*
X157411576Y-109140266D02*
X157411576Y-109406933D01*
X157411576Y-109406933D02*
X157278243Y-109806933D01*
X157278243Y-109806933D02*
X155678243Y-111406933D01*
X155678243Y-111406933D02*
X157411576Y-111406933D01*
X159144910Y-108606933D02*
X159411576Y-108606933D01*
X159411576Y-108606933D02*
X159678243Y-108740266D01*
X159678243Y-108740266D02*
X159811576Y-108873600D01*
X159811576Y-108873600D02*
X159944910Y-109140266D01*
X159944910Y-109140266D02*
X160078243Y-109673600D01*
X160078243Y-109673600D02*
X160078243Y-110340266D01*
X160078243Y-110340266D02*
X159944910Y-110873600D01*
X159944910Y-110873600D02*
X159811576Y-111140266D01*
X159811576Y-111140266D02*
X159678243Y-111273600D01*
X159678243Y-111273600D02*
X159411576Y-111406933D01*
X159411576Y-111406933D02*
X159144910Y-111406933D01*
X159144910Y-111406933D02*
X158878243Y-111273600D01*
X158878243Y-111273600D02*
X158744910Y-111140266D01*
X158744910Y-111140266D02*
X158611576Y-110873600D01*
X158611576Y-110873600D02*
X158478243Y-110340266D01*
X158478243Y-110340266D02*
X158478243Y-109673600D01*
X158478243Y-109673600D02*
X158611576Y-109140266D01*
X158611576Y-109140266D02*
X158744910Y-108873600D01*
X158744910Y-108873600D02*
X158878243Y-108740266D01*
X158878243Y-108740266D02*
X159144910Y-108606933D01*
X161144910Y-108873600D02*
X161278243Y-108740266D01*
X161278243Y-108740266D02*
X161544910Y-108606933D01*
X161544910Y-108606933D02*
X162211577Y-108606933D01*
X162211577Y-108606933D02*
X162478243Y-108740266D01*
X162478243Y-108740266D02*
X162611577Y-108873600D01*
X162611577Y-108873600D02*
X162744910Y-109140266D01*
X162744910Y-109140266D02*
X162744910Y-109406933D01*
X162744910Y-109406933D02*
X162611577Y-109806933D01*
X162611577Y-109806933D02*
X161011577Y-111406933D01*
X161011577Y-111406933D02*
X162744910Y-111406933D01*
X165144910Y-109540266D02*
X165144910Y-111406933D01*
X164478244Y-108473600D02*
X163811577Y-110473600D01*
X163811577Y-110473600D02*
X165544910Y-110473600D01*
D11*
X205228333Y-110059819D02*
X204895000Y-109583628D01*
X204656905Y-110059819D02*
X204656905Y-109059819D01*
X204656905Y-109059819D02*
X205037857Y-109059819D01*
X205037857Y-109059819D02*
X205133095Y-109107438D01*
X205133095Y-109107438D02*
X205180714Y-109155057D01*
X205180714Y-109155057D02*
X205228333Y-109250295D01*
X205228333Y-109250295D02*
X205228333Y-109393152D01*
X205228333Y-109393152D02*
X205180714Y-109488390D01*
X205180714Y-109488390D02*
X205133095Y-109536009D01*
X205133095Y-109536009D02*
X205037857Y-109583628D01*
X205037857Y-109583628D02*
X204656905Y-109583628D01*
X205561667Y-109059819D02*
X206180714Y-109059819D01*
X206180714Y-109059819D02*
X205847381Y-109440771D01*
X205847381Y-109440771D02*
X205990238Y-109440771D01*
X205990238Y-109440771D02*
X206085476Y-109488390D01*
X206085476Y-109488390D02*
X206133095Y-109536009D01*
X206133095Y-109536009D02*
X206180714Y-109631247D01*
X206180714Y-109631247D02*
X206180714Y-109869342D01*
X206180714Y-109869342D02*
X206133095Y-109964580D01*
X206133095Y-109964580D02*
X206085476Y-110012200D01*
X206085476Y-110012200D02*
X205990238Y-110059819D01*
X205990238Y-110059819D02*
X205704524Y-110059819D01*
X205704524Y-110059819D02*
X205609286Y-110012200D01*
X205609286Y-110012200D02*
X205561667Y-109964580D01*
X196371667Y-53747200D02*
X196514524Y-53794819D01*
X196514524Y-53794819D02*
X196752619Y-53794819D01*
X196752619Y-53794819D02*
X196847857Y-53747200D01*
X196847857Y-53747200D02*
X196895476Y-53699580D01*
X196895476Y-53699580D02*
X196943095Y-53604342D01*
X196943095Y-53604342D02*
X196943095Y-53509104D01*
X196943095Y-53509104D02*
X196895476Y-53413866D01*
X196895476Y-53413866D02*
X196847857Y-53366247D01*
X196847857Y-53366247D02*
X196752619Y-53318628D01*
X196752619Y-53318628D02*
X196562143Y-53271009D01*
X196562143Y-53271009D02*
X196466905Y-53223390D01*
X196466905Y-53223390D02*
X196419286Y-53175771D01*
X196419286Y-53175771D02*
X196371667Y-53080533D01*
X196371667Y-53080533D02*
X196371667Y-52985295D01*
X196371667Y-52985295D02*
X196419286Y-52890057D01*
X196419286Y-52890057D02*
X196466905Y-52842438D01*
X196466905Y-52842438D02*
X196562143Y-52794819D01*
X196562143Y-52794819D02*
X196800238Y-52794819D01*
X196800238Y-52794819D02*
X196943095Y-52842438D01*
X197276429Y-52794819D02*
X197514524Y-53794819D01*
X197514524Y-53794819D02*
X197705000Y-53080533D01*
X197705000Y-53080533D02*
X197895476Y-53794819D01*
X197895476Y-53794819D02*
X198133572Y-52794819D01*
X198419286Y-52794819D02*
X199085952Y-52794819D01*
X199085952Y-52794819D02*
X198657381Y-53794819D01*
X178511667Y-53747200D02*
X178654524Y-53794819D01*
X178654524Y-53794819D02*
X178892619Y-53794819D01*
X178892619Y-53794819D02*
X178987857Y-53747200D01*
X178987857Y-53747200D02*
X179035476Y-53699580D01*
X179035476Y-53699580D02*
X179083095Y-53604342D01*
X179083095Y-53604342D02*
X179083095Y-53509104D01*
X179083095Y-53509104D02*
X179035476Y-53413866D01*
X179035476Y-53413866D02*
X178987857Y-53366247D01*
X178987857Y-53366247D02*
X178892619Y-53318628D01*
X178892619Y-53318628D02*
X178702143Y-53271009D01*
X178702143Y-53271009D02*
X178606905Y-53223390D01*
X178606905Y-53223390D02*
X178559286Y-53175771D01*
X178559286Y-53175771D02*
X178511667Y-53080533D01*
X178511667Y-53080533D02*
X178511667Y-52985295D01*
X178511667Y-52985295D02*
X178559286Y-52890057D01*
X178559286Y-52890057D02*
X178606905Y-52842438D01*
X178606905Y-52842438D02*
X178702143Y-52794819D01*
X178702143Y-52794819D02*
X178940238Y-52794819D01*
X178940238Y-52794819D02*
X179083095Y-52842438D01*
X179416429Y-52794819D02*
X179654524Y-53794819D01*
X179654524Y-53794819D02*
X179845000Y-53080533D01*
X179845000Y-53080533D02*
X180035476Y-53794819D01*
X180035476Y-53794819D02*
X180273572Y-52794819D01*
X180797381Y-53223390D02*
X180702143Y-53175771D01*
X180702143Y-53175771D02*
X180654524Y-53128152D01*
X180654524Y-53128152D02*
X180606905Y-53032914D01*
X180606905Y-53032914D02*
X180606905Y-52985295D01*
X180606905Y-52985295D02*
X180654524Y-52890057D01*
X180654524Y-52890057D02*
X180702143Y-52842438D01*
X180702143Y-52842438D02*
X180797381Y-52794819D01*
X180797381Y-52794819D02*
X180987857Y-52794819D01*
X180987857Y-52794819D02*
X181083095Y-52842438D01*
X181083095Y-52842438D02*
X181130714Y-52890057D01*
X181130714Y-52890057D02*
X181178333Y-52985295D01*
X181178333Y-52985295D02*
X181178333Y-53032914D01*
X181178333Y-53032914D02*
X181130714Y-53128152D01*
X181130714Y-53128152D02*
X181083095Y-53175771D01*
X181083095Y-53175771D02*
X180987857Y-53223390D01*
X180987857Y-53223390D02*
X180797381Y-53223390D01*
X180797381Y-53223390D02*
X180702143Y-53271009D01*
X180702143Y-53271009D02*
X180654524Y-53318628D01*
X180654524Y-53318628D02*
X180606905Y-53413866D01*
X180606905Y-53413866D02*
X180606905Y-53604342D01*
X180606905Y-53604342D02*
X180654524Y-53699580D01*
X180654524Y-53699580D02*
X180702143Y-53747200D01*
X180702143Y-53747200D02*
X180797381Y-53794819D01*
X180797381Y-53794819D02*
X180987857Y-53794819D01*
X180987857Y-53794819D02*
X181083095Y-53747200D01*
X181083095Y-53747200D02*
X181130714Y-53699580D01*
X181130714Y-53699580D02*
X181178333Y-53604342D01*
X181178333Y-53604342D02*
X181178333Y-53413866D01*
X181178333Y-53413866D02*
X181130714Y-53318628D01*
X181130714Y-53318628D02*
X181083095Y-53271009D01*
X181083095Y-53271009D02*
X180987857Y-53223390D01*
X178075476Y-89307200D02*
X178218333Y-89354819D01*
X178218333Y-89354819D02*
X178456428Y-89354819D01*
X178456428Y-89354819D02*
X178551666Y-89307200D01*
X178551666Y-89307200D02*
X178599285Y-89259580D01*
X178599285Y-89259580D02*
X178646904Y-89164342D01*
X178646904Y-89164342D02*
X178646904Y-89069104D01*
X178646904Y-89069104D02*
X178599285Y-88973866D01*
X178599285Y-88973866D02*
X178551666Y-88926247D01*
X178551666Y-88926247D02*
X178456428Y-88878628D01*
X178456428Y-88878628D02*
X178265952Y-88831009D01*
X178265952Y-88831009D02*
X178170714Y-88783390D01*
X178170714Y-88783390D02*
X178123095Y-88735771D01*
X178123095Y-88735771D02*
X178075476Y-88640533D01*
X178075476Y-88640533D02*
X178075476Y-88545295D01*
X178075476Y-88545295D02*
X178123095Y-88450057D01*
X178123095Y-88450057D02*
X178170714Y-88402438D01*
X178170714Y-88402438D02*
X178265952Y-88354819D01*
X178265952Y-88354819D02*
X178504047Y-88354819D01*
X178504047Y-88354819D02*
X178646904Y-88402438D01*
X178980238Y-88354819D02*
X179218333Y-89354819D01*
X179218333Y-89354819D02*
X179408809Y-88640533D01*
X179408809Y-88640533D02*
X179599285Y-89354819D01*
X179599285Y-89354819D02*
X179837381Y-88354819D01*
X180742142Y-89354819D02*
X180170714Y-89354819D01*
X180456428Y-89354819D02*
X180456428Y-88354819D01*
X180456428Y-88354819D02*
X180361190Y-88497676D01*
X180361190Y-88497676D02*
X180265952Y-88592914D01*
X180265952Y-88592914D02*
X180170714Y-88640533D01*
X181313571Y-88783390D02*
X181218333Y-88735771D01*
X181218333Y-88735771D02*
X181170714Y-88688152D01*
X181170714Y-88688152D02*
X181123095Y-88592914D01*
X181123095Y-88592914D02*
X181123095Y-88545295D01*
X181123095Y-88545295D02*
X181170714Y-88450057D01*
X181170714Y-88450057D02*
X181218333Y-88402438D01*
X181218333Y-88402438D02*
X181313571Y-88354819D01*
X181313571Y-88354819D02*
X181504047Y-88354819D01*
X181504047Y-88354819D02*
X181599285Y-88402438D01*
X181599285Y-88402438D02*
X181646904Y-88450057D01*
X181646904Y-88450057D02*
X181694523Y-88545295D01*
X181694523Y-88545295D02*
X181694523Y-88592914D01*
X181694523Y-88592914D02*
X181646904Y-88688152D01*
X181646904Y-88688152D02*
X181599285Y-88735771D01*
X181599285Y-88735771D02*
X181504047Y-88783390D01*
X181504047Y-88783390D02*
X181313571Y-88783390D01*
X181313571Y-88783390D02*
X181218333Y-88831009D01*
X181218333Y-88831009D02*
X181170714Y-88878628D01*
X181170714Y-88878628D02*
X181123095Y-88973866D01*
X181123095Y-88973866D02*
X181123095Y-89164342D01*
X181123095Y-89164342D02*
X181170714Y-89259580D01*
X181170714Y-89259580D02*
X181218333Y-89307200D01*
X181218333Y-89307200D02*
X181313571Y-89354819D01*
X181313571Y-89354819D02*
X181504047Y-89354819D01*
X181504047Y-89354819D02*
X181599285Y-89307200D01*
X181599285Y-89307200D02*
X181646904Y-89259580D01*
X181646904Y-89259580D02*
X181694523Y-89164342D01*
X181694523Y-89164342D02*
X181694523Y-88973866D01*
X181694523Y-88973866D02*
X181646904Y-88878628D01*
X181646904Y-88878628D02*
X181599285Y-88831009D01*
X181599285Y-88831009D02*
X181504047Y-88783390D01*
X213675476Y-89307200D02*
X213818333Y-89354819D01*
X213818333Y-89354819D02*
X214056428Y-89354819D01*
X214056428Y-89354819D02*
X214151666Y-89307200D01*
X214151666Y-89307200D02*
X214199285Y-89259580D01*
X214199285Y-89259580D02*
X214246904Y-89164342D01*
X214246904Y-89164342D02*
X214246904Y-89069104D01*
X214246904Y-89069104D02*
X214199285Y-88973866D01*
X214199285Y-88973866D02*
X214151666Y-88926247D01*
X214151666Y-88926247D02*
X214056428Y-88878628D01*
X214056428Y-88878628D02*
X213865952Y-88831009D01*
X213865952Y-88831009D02*
X213770714Y-88783390D01*
X213770714Y-88783390D02*
X213723095Y-88735771D01*
X213723095Y-88735771D02*
X213675476Y-88640533D01*
X213675476Y-88640533D02*
X213675476Y-88545295D01*
X213675476Y-88545295D02*
X213723095Y-88450057D01*
X213723095Y-88450057D02*
X213770714Y-88402438D01*
X213770714Y-88402438D02*
X213865952Y-88354819D01*
X213865952Y-88354819D02*
X214104047Y-88354819D01*
X214104047Y-88354819D02*
X214246904Y-88402438D01*
X214580238Y-88354819D02*
X214818333Y-89354819D01*
X214818333Y-89354819D02*
X215008809Y-88640533D01*
X215008809Y-88640533D02*
X215199285Y-89354819D01*
X215199285Y-89354819D02*
X215437381Y-88354819D01*
X216342142Y-89354819D02*
X215770714Y-89354819D01*
X216056428Y-89354819D02*
X216056428Y-88354819D01*
X216056428Y-88354819D02*
X215961190Y-88497676D01*
X215961190Y-88497676D02*
X215865952Y-88592914D01*
X215865952Y-88592914D02*
X215770714Y-88640533D01*
X217199285Y-88354819D02*
X217008809Y-88354819D01*
X217008809Y-88354819D02*
X216913571Y-88402438D01*
X216913571Y-88402438D02*
X216865952Y-88450057D01*
X216865952Y-88450057D02*
X216770714Y-88592914D01*
X216770714Y-88592914D02*
X216723095Y-88783390D01*
X216723095Y-88783390D02*
X216723095Y-89164342D01*
X216723095Y-89164342D02*
X216770714Y-89259580D01*
X216770714Y-89259580D02*
X216818333Y-89307200D01*
X216818333Y-89307200D02*
X216913571Y-89354819D01*
X216913571Y-89354819D02*
X217104047Y-89354819D01*
X217104047Y-89354819D02*
X217199285Y-89307200D01*
X217199285Y-89307200D02*
X217246904Y-89259580D01*
X217246904Y-89259580D02*
X217294523Y-89164342D01*
X217294523Y-89164342D02*
X217294523Y-88926247D01*
X217294523Y-88926247D02*
X217246904Y-88831009D01*
X217246904Y-88831009D02*
X217199285Y-88783390D01*
X217199285Y-88783390D02*
X217104047Y-88735771D01*
X217104047Y-88735771D02*
X216913571Y-88735771D01*
X216913571Y-88735771D02*
X216818333Y-88783390D01*
X216818333Y-88783390D02*
X216770714Y-88831009D01*
X216770714Y-88831009D02*
X216723095Y-88926247D01*
X160295476Y-89307200D02*
X160438333Y-89354819D01*
X160438333Y-89354819D02*
X160676428Y-89354819D01*
X160676428Y-89354819D02*
X160771666Y-89307200D01*
X160771666Y-89307200D02*
X160819285Y-89259580D01*
X160819285Y-89259580D02*
X160866904Y-89164342D01*
X160866904Y-89164342D02*
X160866904Y-89069104D01*
X160866904Y-89069104D02*
X160819285Y-88973866D01*
X160819285Y-88973866D02*
X160771666Y-88926247D01*
X160771666Y-88926247D02*
X160676428Y-88878628D01*
X160676428Y-88878628D02*
X160485952Y-88831009D01*
X160485952Y-88831009D02*
X160390714Y-88783390D01*
X160390714Y-88783390D02*
X160343095Y-88735771D01*
X160343095Y-88735771D02*
X160295476Y-88640533D01*
X160295476Y-88640533D02*
X160295476Y-88545295D01*
X160295476Y-88545295D02*
X160343095Y-88450057D01*
X160343095Y-88450057D02*
X160390714Y-88402438D01*
X160390714Y-88402438D02*
X160485952Y-88354819D01*
X160485952Y-88354819D02*
X160724047Y-88354819D01*
X160724047Y-88354819D02*
X160866904Y-88402438D01*
X161200238Y-88354819D02*
X161438333Y-89354819D01*
X161438333Y-89354819D02*
X161628809Y-88640533D01*
X161628809Y-88640533D02*
X161819285Y-89354819D01*
X161819285Y-89354819D02*
X162057381Y-88354819D01*
X162962142Y-89354819D02*
X162390714Y-89354819D01*
X162676428Y-89354819D02*
X162676428Y-88354819D01*
X162676428Y-88354819D02*
X162581190Y-88497676D01*
X162581190Y-88497676D02*
X162485952Y-88592914D01*
X162485952Y-88592914D02*
X162390714Y-88640533D01*
X163438333Y-89354819D02*
X163628809Y-89354819D01*
X163628809Y-89354819D02*
X163724047Y-89307200D01*
X163724047Y-89307200D02*
X163771666Y-89259580D01*
X163771666Y-89259580D02*
X163866904Y-89116723D01*
X163866904Y-89116723D02*
X163914523Y-88926247D01*
X163914523Y-88926247D02*
X163914523Y-88545295D01*
X163914523Y-88545295D02*
X163866904Y-88450057D01*
X163866904Y-88450057D02*
X163819285Y-88402438D01*
X163819285Y-88402438D02*
X163724047Y-88354819D01*
X163724047Y-88354819D02*
X163533571Y-88354819D01*
X163533571Y-88354819D02*
X163438333Y-88402438D01*
X163438333Y-88402438D02*
X163390714Y-88450057D01*
X163390714Y-88450057D02*
X163343095Y-88545295D01*
X163343095Y-88545295D02*
X163343095Y-88783390D01*
X163343095Y-88783390D02*
X163390714Y-88878628D01*
X163390714Y-88878628D02*
X163438333Y-88926247D01*
X163438333Y-88926247D02*
X163533571Y-88973866D01*
X163533571Y-88973866D02*
X163724047Y-88973866D01*
X163724047Y-88973866D02*
X163819285Y-88926247D01*
X163819285Y-88926247D02*
X163866904Y-88878628D01*
X163866904Y-88878628D02*
X163914523Y-88783390D01*
X178075476Y-71327200D02*
X178218333Y-71374819D01*
X178218333Y-71374819D02*
X178456428Y-71374819D01*
X178456428Y-71374819D02*
X178551666Y-71327200D01*
X178551666Y-71327200D02*
X178599285Y-71279580D01*
X178599285Y-71279580D02*
X178646904Y-71184342D01*
X178646904Y-71184342D02*
X178646904Y-71089104D01*
X178646904Y-71089104D02*
X178599285Y-70993866D01*
X178599285Y-70993866D02*
X178551666Y-70946247D01*
X178551666Y-70946247D02*
X178456428Y-70898628D01*
X178456428Y-70898628D02*
X178265952Y-70851009D01*
X178265952Y-70851009D02*
X178170714Y-70803390D01*
X178170714Y-70803390D02*
X178123095Y-70755771D01*
X178123095Y-70755771D02*
X178075476Y-70660533D01*
X178075476Y-70660533D02*
X178075476Y-70565295D01*
X178075476Y-70565295D02*
X178123095Y-70470057D01*
X178123095Y-70470057D02*
X178170714Y-70422438D01*
X178170714Y-70422438D02*
X178265952Y-70374819D01*
X178265952Y-70374819D02*
X178504047Y-70374819D01*
X178504047Y-70374819D02*
X178646904Y-70422438D01*
X178980238Y-70374819D02*
X179218333Y-71374819D01*
X179218333Y-71374819D02*
X179408809Y-70660533D01*
X179408809Y-70660533D02*
X179599285Y-71374819D01*
X179599285Y-71374819D02*
X179837381Y-70374819D01*
X180742142Y-71374819D02*
X180170714Y-71374819D01*
X180456428Y-71374819D02*
X180456428Y-70374819D01*
X180456428Y-70374819D02*
X180361190Y-70517676D01*
X180361190Y-70517676D02*
X180265952Y-70612914D01*
X180265952Y-70612914D02*
X180170714Y-70660533D01*
X181075476Y-70374819D02*
X181694523Y-70374819D01*
X181694523Y-70374819D02*
X181361190Y-70755771D01*
X181361190Y-70755771D02*
X181504047Y-70755771D01*
X181504047Y-70755771D02*
X181599285Y-70803390D01*
X181599285Y-70803390D02*
X181646904Y-70851009D01*
X181646904Y-70851009D02*
X181694523Y-70946247D01*
X181694523Y-70946247D02*
X181694523Y-71184342D01*
X181694523Y-71184342D02*
X181646904Y-71279580D01*
X181646904Y-71279580D02*
X181599285Y-71327200D01*
X181599285Y-71327200D02*
X181504047Y-71374819D01*
X181504047Y-71374819D02*
X181218333Y-71374819D01*
X181218333Y-71374819D02*
X181123095Y-71327200D01*
X181123095Y-71327200D02*
X181075476Y-71279580D01*
X214151667Y-53747200D02*
X214294524Y-53794819D01*
X214294524Y-53794819D02*
X214532619Y-53794819D01*
X214532619Y-53794819D02*
X214627857Y-53747200D01*
X214627857Y-53747200D02*
X214675476Y-53699580D01*
X214675476Y-53699580D02*
X214723095Y-53604342D01*
X214723095Y-53604342D02*
X214723095Y-53509104D01*
X214723095Y-53509104D02*
X214675476Y-53413866D01*
X214675476Y-53413866D02*
X214627857Y-53366247D01*
X214627857Y-53366247D02*
X214532619Y-53318628D01*
X214532619Y-53318628D02*
X214342143Y-53271009D01*
X214342143Y-53271009D02*
X214246905Y-53223390D01*
X214246905Y-53223390D02*
X214199286Y-53175771D01*
X214199286Y-53175771D02*
X214151667Y-53080533D01*
X214151667Y-53080533D02*
X214151667Y-52985295D01*
X214151667Y-52985295D02*
X214199286Y-52890057D01*
X214199286Y-52890057D02*
X214246905Y-52842438D01*
X214246905Y-52842438D02*
X214342143Y-52794819D01*
X214342143Y-52794819D02*
X214580238Y-52794819D01*
X214580238Y-52794819D02*
X214723095Y-52842438D01*
X215056429Y-52794819D02*
X215294524Y-53794819D01*
X215294524Y-53794819D02*
X215485000Y-53080533D01*
X215485000Y-53080533D02*
X215675476Y-53794819D01*
X215675476Y-53794819D02*
X215913572Y-52794819D01*
X216723095Y-52794819D02*
X216532619Y-52794819D01*
X216532619Y-52794819D02*
X216437381Y-52842438D01*
X216437381Y-52842438D02*
X216389762Y-52890057D01*
X216389762Y-52890057D02*
X216294524Y-53032914D01*
X216294524Y-53032914D02*
X216246905Y-53223390D01*
X216246905Y-53223390D02*
X216246905Y-53604342D01*
X216246905Y-53604342D02*
X216294524Y-53699580D01*
X216294524Y-53699580D02*
X216342143Y-53747200D01*
X216342143Y-53747200D02*
X216437381Y-53794819D01*
X216437381Y-53794819D02*
X216627857Y-53794819D01*
X216627857Y-53794819D02*
X216723095Y-53747200D01*
X216723095Y-53747200D02*
X216770714Y-53699580D01*
X216770714Y-53699580D02*
X216818333Y-53604342D01*
X216818333Y-53604342D02*
X216818333Y-53366247D01*
X216818333Y-53366247D02*
X216770714Y-53271009D01*
X216770714Y-53271009D02*
X216723095Y-53223390D01*
X216723095Y-53223390D02*
X216627857Y-53175771D01*
X216627857Y-53175771D02*
X216437381Y-53175771D01*
X216437381Y-53175771D02*
X216342143Y-53223390D01*
X216342143Y-53223390D02*
X216294524Y-53271009D01*
X216294524Y-53271009D02*
X216246905Y-53366247D01*
X216528333Y-110084819D02*
X216195000Y-109608628D01*
X215956905Y-110084819D02*
X215956905Y-109084819D01*
X215956905Y-109084819D02*
X216337857Y-109084819D01*
X216337857Y-109084819D02*
X216433095Y-109132438D01*
X216433095Y-109132438D02*
X216480714Y-109180057D01*
X216480714Y-109180057D02*
X216528333Y-109275295D01*
X216528333Y-109275295D02*
X216528333Y-109418152D01*
X216528333Y-109418152D02*
X216480714Y-109513390D01*
X216480714Y-109513390D02*
X216433095Y-109561009D01*
X216433095Y-109561009D02*
X216337857Y-109608628D01*
X216337857Y-109608628D02*
X215956905Y-109608628D01*
X217480714Y-110084819D02*
X216909286Y-110084819D01*
X217195000Y-110084819D02*
X217195000Y-109084819D01*
X217195000Y-109084819D02*
X217099762Y-109227676D01*
X217099762Y-109227676D02*
X217004524Y-109322914D01*
X217004524Y-109322914D02*
X216909286Y-109370533D01*
X199553333Y-110059819D02*
X199220000Y-109583628D01*
X198981905Y-110059819D02*
X198981905Y-109059819D01*
X198981905Y-109059819D02*
X199362857Y-109059819D01*
X199362857Y-109059819D02*
X199458095Y-109107438D01*
X199458095Y-109107438D02*
X199505714Y-109155057D01*
X199505714Y-109155057D02*
X199553333Y-109250295D01*
X199553333Y-109250295D02*
X199553333Y-109393152D01*
X199553333Y-109393152D02*
X199505714Y-109488390D01*
X199505714Y-109488390D02*
X199458095Y-109536009D01*
X199458095Y-109536009D02*
X199362857Y-109583628D01*
X199362857Y-109583628D02*
X198981905Y-109583628D01*
X200410476Y-109393152D02*
X200410476Y-110059819D01*
X200172381Y-109012200D02*
X199934286Y-109726485D01*
X199934286Y-109726485D02*
X200553333Y-109726485D01*
X178511667Y-35827200D02*
X178654524Y-35874819D01*
X178654524Y-35874819D02*
X178892619Y-35874819D01*
X178892619Y-35874819D02*
X178987857Y-35827200D01*
X178987857Y-35827200D02*
X179035476Y-35779580D01*
X179035476Y-35779580D02*
X179083095Y-35684342D01*
X179083095Y-35684342D02*
X179083095Y-35589104D01*
X179083095Y-35589104D02*
X179035476Y-35493866D01*
X179035476Y-35493866D02*
X178987857Y-35446247D01*
X178987857Y-35446247D02*
X178892619Y-35398628D01*
X178892619Y-35398628D02*
X178702143Y-35351009D01*
X178702143Y-35351009D02*
X178606905Y-35303390D01*
X178606905Y-35303390D02*
X178559286Y-35255771D01*
X178559286Y-35255771D02*
X178511667Y-35160533D01*
X178511667Y-35160533D02*
X178511667Y-35065295D01*
X178511667Y-35065295D02*
X178559286Y-34970057D01*
X178559286Y-34970057D02*
X178606905Y-34922438D01*
X178606905Y-34922438D02*
X178702143Y-34874819D01*
X178702143Y-34874819D02*
X178940238Y-34874819D01*
X178940238Y-34874819D02*
X179083095Y-34922438D01*
X179416429Y-34874819D02*
X179654524Y-35874819D01*
X179654524Y-35874819D02*
X179845000Y-35160533D01*
X179845000Y-35160533D02*
X180035476Y-35874819D01*
X180035476Y-35874819D02*
X180273572Y-34874819D01*
X180559286Y-34874819D02*
X181178333Y-34874819D01*
X181178333Y-34874819D02*
X180845000Y-35255771D01*
X180845000Y-35255771D02*
X180987857Y-35255771D01*
X180987857Y-35255771D02*
X181083095Y-35303390D01*
X181083095Y-35303390D02*
X181130714Y-35351009D01*
X181130714Y-35351009D02*
X181178333Y-35446247D01*
X181178333Y-35446247D02*
X181178333Y-35684342D01*
X181178333Y-35684342D02*
X181130714Y-35779580D01*
X181130714Y-35779580D02*
X181083095Y-35827200D01*
X181083095Y-35827200D02*
X180987857Y-35874819D01*
X180987857Y-35874819D02*
X180702143Y-35874819D01*
X180702143Y-35874819D02*
X180606905Y-35827200D01*
X180606905Y-35827200D02*
X180559286Y-35779580D01*
X143031667Y-35827200D02*
X143174524Y-35874819D01*
X143174524Y-35874819D02*
X143412619Y-35874819D01*
X143412619Y-35874819D02*
X143507857Y-35827200D01*
X143507857Y-35827200D02*
X143555476Y-35779580D01*
X143555476Y-35779580D02*
X143603095Y-35684342D01*
X143603095Y-35684342D02*
X143603095Y-35589104D01*
X143603095Y-35589104D02*
X143555476Y-35493866D01*
X143555476Y-35493866D02*
X143507857Y-35446247D01*
X143507857Y-35446247D02*
X143412619Y-35398628D01*
X143412619Y-35398628D02*
X143222143Y-35351009D01*
X143222143Y-35351009D02*
X143126905Y-35303390D01*
X143126905Y-35303390D02*
X143079286Y-35255771D01*
X143079286Y-35255771D02*
X143031667Y-35160533D01*
X143031667Y-35160533D02*
X143031667Y-35065295D01*
X143031667Y-35065295D02*
X143079286Y-34970057D01*
X143079286Y-34970057D02*
X143126905Y-34922438D01*
X143126905Y-34922438D02*
X143222143Y-34874819D01*
X143222143Y-34874819D02*
X143460238Y-34874819D01*
X143460238Y-34874819D02*
X143603095Y-34922438D01*
X143936429Y-34874819D02*
X144174524Y-35874819D01*
X144174524Y-35874819D02*
X144365000Y-35160533D01*
X144365000Y-35160533D02*
X144555476Y-35874819D01*
X144555476Y-35874819D02*
X144793572Y-34874819D01*
X145650714Y-34874819D02*
X145174524Y-34874819D01*
X145174524Y-34874819D02*
X145126905Y-35351009D01*
X145126905Y-35351009D02*
X145174524Y-35303390D01*
X145174524Y-35303390D02*
X145269762Y-35255771D01*
X145269762Y-35255771D02*
X145507857Y-35255771D01*
X145507857Y-35255771D02*
X145603095Y-35303390D01*
X145603095Y-35303390D02*
X145650714Y-35351009D01*
X145650714Y-35351009D02*
X145698333Y-35446247D01*
X145698333Y-35446247D02*
X145698333Y-35684342D01*
X145698333Y-35684342D02*
X145650714Y-35779580D01*
X145650714Y-35779580D02*
X145603095Y-35827200D01*
X145603095Y-35827200D02*
X145507857Y-35874819D01*
X145507857Y-35874819D02*
X145269762Y-35874819D01*
X145269762Y-35874819D02*
X145174524Y-35827200D01*
X145174524Y-35827200D02*
X145126905Y-35779580D01*
X196291667Y-35827200D02*
X196434524Y-35874819D01*
X196434524Y-35874819D02*
X196672619Y-35874819D01*
X196672619Y-35874819D02*
X196767857Y-35827200D01*
X196767857Y-35827200D02*
X196815476Y-35779580D01*
X196815476Y-35779580D02*
X196863095Y-35684342D01*
X196863095Y-35684342D02*
X196863095Y-35589104D01*
X196863095Y-35589104D02*
X196815476Y-35493866D01*
X196815476Y-35493866D02*
X196767857Y-35446247D01*
X196767857Y-35446247D02*
X196672619Y-35398628D01*
X196672619Y-35398628D02*
X196482143Y-35351009D01*
X196482143Y-35351009D02*
X196386905Y-35303390D01*
X196386905Y-35303390D02*
X196339286Y-35255771D01*
X196339286Y-35255771D02*
X196291667Y-35160533D01*
X196291667Y-35160533D02*
X196291667Y-35065295D01*
X196291667Y-35065295D02*
X196339286Y-34970057D01*
X196339286Y-34970057D02*
X196386905Y-34922438D01*
X196386905Y-34922438D02*
X196482143Y-34874819D01*
X196482143Y-34874819D02*
X196720238Y-34874819D01*
X196720238Y-34874819D02*
X196863095Y-34922438D01*
X197196429Y-34874819D02*
X197434524Y-35874819D01*
X197434524Y-35874819D02*
X197625000Y-35160533D01*
X197625000Y-35160533D02*
X197815476Y-35874819D01*
X197815476Y-35874819D02*
X198053572Y-34874819D01*
X198386905Y-34970057D02*
X198434524Y-34922438D01*
X198434524Y-34922438D02*
X198529762Y-34874819D01*
X198529762Y-34874819D02*
X198767857Y-34874819D01*
X198767857Y-34874819D02*
X198863095Y-34922438D01*
X198863095Y-34922438D02*
X198910714Y-34970057D01*
X198910714Y-34970057D02*
X198958333Y-35065295D01*
X198958333Y-35065295D02*
X198958333Y-35160533D01*
X198958333Y-35160533D02*
X198910714Y-35303390D01*
X198910714Y-35303390D02*
X198339286Y-35874819D01*
X198339286Y-35874819D02*
X198958333Y-35874819D01*
X160731667Y-35827200D02*
X160874524Y-35874819D01*
X160874524Y-35874819D02*
X161112619Y-35874819D01*
X161112619Y-35874819D02*
X161207857Y-35827200D01*
X161207857Y-35827200D02*
X161255476Y-35779580D01*
X161255476Y-35779580D02*
X161303095Y-35684342D01*
X161303095Y-35684342D02*
X161303095Y-35589104D01*
X161303095Y-35589104D02*
X161255476Y-35493866D01*
X161255476Y-35493866D02*
X161207857Y-35446247D01*
X161207857Y-35446247D02*
X161112619Y-35398628D01*
X161112619Y-35398628D02*
X160922143Y-35351009D01*
X160922143Y-35351009D02*
X160826905Y-35303390D01*
X160826905Y-35303390D02*
X160779286Y-35255771D01*
X160779286Y-35255771D02*
X160731667Y-35160533D01*
X160731667Y-35160533D02*
X160731667Y-35065295D01*
X160731667Y-35065295D02*
X160779286Y-34970057D01*
X160779286Y-34970057D02*
X160826905Y-34922438D01*
X160826905Y-34922438D02*
X160922143Y-34874819D01*
X160922143Y-34874819D02*
X161160238Y-34874819D01*
X161160238Y-34874819D02*
X161303095Y-34922438D01*
X161636429Y-34874819D02*
X161874524Y-35874819D01*
X161874524Y-35874819D02*
X162065000Y-35160533D01*
X162065000Y-35160533D02*
X162255476Y-35874819D01*
X162255476Y-35874819D02*
X162493572Y-34874819D01*
X163303095Y-35208152D02*
X163303095Y-35874819D01*
X163065000Y-34827200D02*
X162826905Y-35541485D01*
X162826905Y-35541485D02*
X163445952Y-35541485D01*
X193953333Y-109934819D02*
X193620000Y-109458628D01*
X193381905Y-109934819D02*
X193381905Y-108934819D01*
X193381905Y-108934819D02*
X193762857Y-108934819D01*
X193762857Y-108934819D02*
X193858095Y-108982438D01*
X193858095Y-108982438D02*
X193905714Y-109030057D01*
X193905714Y-109030057D02*
X193953333Y-109125295D01*
X193953333Y-109125295D02*
X193953333Y-109268152D01*
X193953333Y-109268152D02*
X193905714Y-109363390D01*
X193905714Y-109363390D02*
X193858095Y-109411009D01*
X193858095Y-109411009D02*
X193762857Y-109458628D01*
X193762857Y-109458628D02*
X193381905Y-109458628D01*
X194858095Y-108934819D02*
X194381905Y-108934819D01*
X194381905Y-108934819D02*
X194334286Y-109411009D01*
X194334286Y-109411009D02*
X194381905Y-109363390D01*
X194381905Y-109363390D02*
X194477143Y-109315771D01*
X194477143Y-109315771D02*
X194715238Y-109315771D01*
X194715238Y-109315771D02*
X194810476Y-109363390D01*
X194810476Y-109363390D02*
X194858095Y-109411009D01*
X194858095Y-109411009D02*
X194905714Y-109506247D01*
X194905714Y-109506247D02*
X194905714Y-109744342D01*
X194905714Y-109744342D02*
X194858095Y-109839580D01*
X194858095Y-109839580D02*
X194810476Y-109887200D01*
X194810476Y-109887200D02*
X194715238Y-109934819D01*
X194715238Y-109934819D02*
X194477143Y-109934819D01*
X194477143Y-109934819D02*
X194381905Y-109887200D01*
X194381905Y-109887200D02*
X194334286Y-109839580D01*
X142515476Y-71327200D02*
X142658333Y-71374819D01*
X142658333Y-71374819D02*
X142896428Y-71374819D01*
X142896428Y-71374819D02*
X142991666Y-71327200D01*
X142991666Y-71327200D02*
X143039285Y-71279580D01*
X143039285Y-71279580D02*
X143086904Y-71184342D01*
X143086904Y-71184342D02*
X143086904Y-71089104D01*
X143086904Y-71089104D02*
X143039285Y-70993866D01*
X143039285Y-70993866D02*
X142991666Y-70946247D01*
X142991666Y-70946247D02*
X142896428Y-70898628D01*
X142896428Y-70898628D02*
X142705952Y-70851009D01*
X142705952Y-70851009D02*
X142610714Y-70803390D01*
X142610714Y-70803390D02*
X142563095Y-70755771D01*
X142563095Y-70755771D02*
X142515476Y-70660533D01*
X142515476Y-70660533D02*
X142515476Y-70565295D01*
X142515476Y-70565295D02*
X142563095Y-70470057D01*
X142563095Y-70470057D02*
X142610714Y-70422438D01*
X142610714Y-70422438D02*
X142705952Y-70374819D01*
X142705952Y-70374819D02*
X142944047Y-70374819D01*
X142944047Y-70374819D02*
X143086904Y-70422438D01*
X143420238Y-70374819D02*
X143658333Y-71374819D01*
X143658333Y-71374819D02*
X143848809Y-70660533D01*
X143848809Y-70660533D02*
X144039285Y-71374819D01*
X144039285Y-71374819D02*
X144277381Y-70374819D01*
X145182142Y-71374819D02*
X144610714Y-71374819D01*
X144896428Y-71374819D02*
X144896428Y-70374819D01*
X144896428Y-70374819D02*
X144801190Y-70517676D01*
X144801190Y-70517676D02*
X144705952Y-70612914D01*
X144705952Y-70612914D02*
X144610714Y-70660533D01*
X146086904Y-70374819D02*
X145610714Y-70374819D01*
X145610714Y-70374819D02*
X145563095Y-70851009D01*
X145563095Y-70851009D02*
X145610714Y-70803390D01*
X145610714Y-70803390D02*
X145705952Y-70755771D01*
X145705952Y-70755771D02*
X145944047Y-70755771D01*
X145944047Y-70755771D02*
X146039285Y-70803390D01*
X146039285Y-70803390D02*
X146086904Y-70851009D01*
X146086904Y-70851009D02*
X146134523Y-70946247D01*
X146134523Y-70946247D02*
X146134523Y-71184342D01*
X146134523Y-71184342D02*
X146086904Y-71279580D01*
X146086904Y-71279580D02*
X146039285Y-71327200D01*
X146039285Y-71327200D02*
X145944047Y-71374819D01*
X145944047Y-71374819D02*
X145705952Y-71374819D01*
X145705952Y-71374819D02*
X145610714Y-71327200D01*
X145610714Y-71327200D02*
X145563095Y-71279580D01*
X160295476Y-71327200D02*
X160438333Y-71374819D01*
X160438333Y-71374819D02*
X160676428Y-71374819D01*
X160676428Y-71374819D02*
X160771666Y-71327200D01*
X160771666Y-71327200D02*
X160819285Y-71279580D01*
X160819285Y-71279580D02*
X160866904Y-71184342D01*
X160866904Y-71184342D02*
X160866904Y-71089104D01*
X160866904Y-71089104D02*
X160819285Y-70993866D01*
X160819285Y-70993866D02*
X160771666Y-70946247D01*
X160771666Y-70946247D02*
X160676428Y-70898628D01*
X160676428Y-70898628D02*
X160485952Y-70851009D01*
X160485952Y-70851009D02*
X160390714Y-70803390D01*
X160390714Y-70803390D02*
X160343095Y-70755771D01*
X160343095Y-70755771D02*
X160295476Y-70660533D01*
X160295476Y-70660533D02*
X160295476Y-70565295D01*
X160295476Y-70565295D02*
X160343095Y-70470057D01*
X160343095Y-70470057D02*
X160390714Y-70422438D01*
X160390714Y-70422438D02*
X160485952Y-70374819D01*
X160485952Y-70374819D02*
X160724047Y-70374819D01*
X160724047Y-70374819D02*
X160866904Y-70422438D01*
X161200238Y-70374819D02*
X161438333Y-71374819D01*
X161438333Y-71374819D02*
X161628809Y-70660533D01*
X161628809Y-70660533D02*
X161819285Y-71374819D01*
X161819285Y-71374819D02*
X162057381Y-70374819D01*
X162962142Y-71374819D02*
X162390714Y-71374819D01*
X162676428Y-71374819D02*
X162676428Y-70374819D01*
X162676428Y-70374819D02*
X162581190Y-70517676D01*
X162581190Y-70517676D02*
X162485952Y-70612914D01*
X162485952Y-70612914D02*
X162390714Y-70660533D01*
X163819285Y-70708152D02*
X163819285Y-71374819D01*
X163581190Y-70327200D02*
X163343095Y-71041485D01*
X163343095Y-71041485D02*
X163962142Y-71041485D01*
X160504819Y-104208333D02*
X161219104Y-104208333D01*
X161219104Y-104208333D02*
X161361961Y-104255952D01*
X161361961Y-104255952D02*
X161457200Y-104351190D01*
X161457200Y-104351190D02*
X161504819Y-104494047D01*
X161504819Y-104494047D02*
X161504819Y-104589285D01*
X161504819Y-103208333D02*
X161504819Y-103779761D01*
X161504819Y-103494047D02*
X160504819Y-103494047D01*
X160504819Y-103494047D02*
X160647676Y-103589285D01*
X160647676Y-103589285D02*
X160742914Y-103684523D01*
X160742914Y-103684523D02*
X160790533Y-103779761D01*
X195895476Y-89307200D02*
X196038333Y-89354819D01*
X196038333Y-89354819D02*
X196276428Y-89354819D01*
X196276428Y-89354819D02*
X196371666Y-89307200D01*
X196371666Y-89307200D02*
X196419285Y-89259580D01*
X196419285Y-89259580D02*
X196466904Y-89164342D01*
X196466904Y-89164342D02*
X196466904Y-89069104D01*
X196466904Y-89069104D02*
X196419285Y-88973866D01*
X196419285Y-88973866D02*
X196371666Y-88926247D01*
X196371666Y-88926247D02*
X196276428Y-88878628D01*
X196276428Y-88878628D02*
X196085952Y-88831009D01*
X196085952Y-88831009D02*
X195990714Y-88783390D01*
X195990714Y-88783390D02*
X195943095Y-88735771D01*
X195943095Y-88735771D02*
X195895476Y-88640533D01*
X195895476Y-88640533D02*
X195895476Y-88545295D01*
X195895476Y-88545295D02*
X195943095Y-88450057D01*
X195943095Y-88450057D02*
X195990714Y-88402438D01*
X195990714Y-88402438D02*
X196085952Y-88354819D01*
X196085952Y-88354819D02*
X196324047Y-88354819D01*
X196324047Y-88354819D02*
X196466904Y-88402438D01*
X196800238Y-88354819D02*
X197038333Y-89354819D01*
X197038333Y-89354819D02*
X197228809Y-88640533D01*
X197228809Y-88640533D02*
X197419285Y-89354819D01*
X197419285Y-89354819D02*
X197657381Y-88354819D01*
X198562142Y-89354819D02*
X197990714Y-89354819D01*
X198276428Y-89354819D02*
X198276428Y-88354819D01*
X198276428Y-88354819D02*
X198181190Y-88497676D01*
X198181190Y-88497676D02*
X198085952Y-88592914D01*
X198085952Y-88592914D02*
X197990714Y-88640533D01*
X198895476Y-88354819D02*
X199562142Y-88354819D01*
X199562142Y-88354819D02*
X199133571Y-89354819D01*
X160771667Y-53747200D02*
X160914524Y-53794819D01*
X160914524Y-53794819D02*
X161152619Y-53794819D01*
X161152619Y-53794819D02*
X161247857Y-53747200D01*
X161247857Y-53747200D02*
X161295476Y-53699580D01*
X161295476Y-53699580D02*
X161343095Y-53604342D01*
X161343095Y-53604342D02*
X161343095Y-53509104D01*
X161343095Y-53509104D02*
X161295476Y-53413866D01*
X161295476Y-53413866D02*
X161247857Y-53366247D01*
X161247857Y-53366247D02*
X161152619Y-53318628D01*
X161152619Y-53318628D02*
X160962143Y-53271009D01*
X160962143Y-53271009D02*
X160866905Y-53223390D01*
X160866905Y-53223390D02*
X160819286Y-53175771D01*
X160819286Y-53175771D02*
X160771667Y-53080533D01*
X160771667Y-53080533D02*
X160771667Y-52985295D01*
X160771667Y-52985295D02*
X160819286Y-52890057D01*
X160819286Y-52890057D02*
X160866905Y-52842438D01*
X160866905Y-52842438D02*
X160962143Y-52794819D01*
X160962143Y-52794819D02*
X161200238Y-52794819D01*
X161200238Y-52794819D02*
X161343095Y-52842438D01*
X161676429Y-52794819D02*
X161914524Y-53794819D01*
X161914524Y-53794819D02*
X162105000Y-53080533D01*
X162105000Y-53080533D02*
X162295476Y-53794819D01*
X162295476Y-53794819D02*
X162533572Y-52794819D01*
X162962143Y-53794819D02*
X163152619Y-53794819D01*
X163152619Y-53794819D02*
X163247857Y-53747200D01*
X163247857Y-53747200D02*
X163295476Y-53699580D01*
X163295476Y-53699580D02*
X163390714Y-53556723D01*
X163390714Y-53556723D02*
X163438333Y-53366247D01*
X163438333Y-53366247D02*
X163438333Y-52985295D01*
X163438333Y-52985295D02*
X163390714Y-52890057D01*
X163390714Y-52890057D02*
X163343095Y-52842438D01*
X163343095Y-52842438D02*
X163247857Y-52794819D01*
X163247857Y-52794819D02*
X163057381Y-52794819D01*
X163057381Y-52794819D02*
X162962143Y-52842438D01*
X162962143Y-52842438D02*
X162914524Y-52890057D01*
X162914524Y-52890057D02*
X162866905Y-52985295D01*
X162866905Y-52985295D02*
X162866905Y-53223390D01*
X162866905Y-53223390D02*
X162914524Y-53318628D01*
X162914524Y-53318628D02*
X162962143Y-53366247D01*
X162962143Y-53366247D02*
X163057381Y-53413866D01*
X163057381Y-53413866D02*
X163247857Y-53413866D01*
X163247857Y-53413866D02*
X163343095Y-53366247D01*
X163343095Y-53366247D02*
X163390714Y-53318628D01*
X163390714Y-53318628D02*
X163438333Y-53223390D01*
X210853333Y-110059819D02*
X210520000Y-109583628D01*
X210281905Y-110059819D02*
X210281905Y-109059819D01*
X210281905Y-109059819D02*
X210662857Y-109059819D01*
X210662857Y-109059819D02*
X210758095Y-109107438D01*
X210758095Y-109107438D02*
X210805714Y-109155057D01*
X210805714Y-109155057D02*
X210853333Y-109250295D01*
X210853333Y-109250295D02*
X210853333Y-109393152D01*
X210853333Y-109393152D02*
X210805714Y-109488390D01*
X210805714Y-109488390D02*
X210758095Y-109536009D01*
X210758095Y-109536009D02*
X210662857Y-109583628D01*
X210662857Y-109583628D02*
X210281905Y-109583628D01*
X211234286Y-109155057D02*
X211281905Y-109107438D01*
X211281905Y-109107438D02*
X211377143Y-109059819D01*
X211377143Y-109059819D02*
X211615238Y-109059819D01*
X211615238Y-109059819D02*
X211710476Y-109107438D01*
X211710476Y-109107438D02*
X211758095Y-109155057D01*
X211758095Y-109155057D02*
X211805714Y-109250295D01*
X211805714Y-109250295D02*
X211805714Y-109345533D01*
X211805714Y-109345533D02*
X211758095Y-109488390D01*
X211758095Y-109488390D02*
X211186667Y-110059819D01*
X211186667Y-110059819D02*
X211805714Y-110059819D01*
X142515476Y-89307200D02*
X142658333Y-89354819D01*
X142658333Y-89354819D02*
X142896428Y-89354819D01*
X142896428Y-89354819D02*
X142991666Y-89307200D01*
X142991666Y-89307200D02*
X143039285Y-89259580D01*
X143039285Y-89259580D02*
X143086904Y-89164342D01*
X143086904Y-89164342D02*
X143086904Y-89069104D01*
X143086904Y-89069104D02*
X143039285Y-88973866D01*
X143039285Y-88973866D02*
X142991666Y-88926247D01*
X142991666Y-88926247D02*
X142896428Y-88878628D01*
X142896428Y-88878628D02*
X142705952Y-88831009D01*
X142705952Y-88831009D02*
X142610714Y-88783390D01*
X142610714Y-88783390D02*
X142563095Y-88735771D01*
X142563095Y-88735771D02*
X142515476Y-88640533D01*
X142515476Y-88640533D02*
X142515476Y-88545295D01*
X142515476Y-88545295D02*
X142563095Y-88450057D01*
X142563095Y-88450057D02*
X142610714Y-88402438D01*
X142610714Y-88402438D02*
X142705952Y-88354819D01*
X142705952Y-88354819D02*
X142944047Y-88354819D01*
X142944047Y-88354819D02*
X143086904Y-88402438D01*
X143420238Y-88354819D02*
X143658333Y-89354819D01*
X143658333Y-89354819D02*
X143848809Y-88640533D01*
X143848809Y-88640533D02*
X144039285Y-89354819D01*
X144039285Y-89354819D02*
X144277381Y-88354819D01*
X144610714Y-88450057D02*
X144658333Y-88402438D01*
X144658333Y-88402438D02*
X144753571Y-88354819D01*
X144753571Y-88354819D02*
X144991666Y-88354819D01*
X144991666Y-88354819D02*
X145086904Y-88402438D01*
X145086904Y-88402438D02*
X145134523Y-88450057D01*
X145134523Y-88450057D02*
X145182142Y-88545295D01*
X145182142Y-88545295D02*
X145182142Y-88640533D01*
X145182142Y-88640533D02*
X145134523Y-88783390D01*
X145134523Y-88783390D02*
X144563095Y-89354819D01*
X144563095Y-89354819D02*
X145182142Y-89354819D01*
X145801190Y-88354819D02*
X145896428Y-88354819D01*
X145896428Y-88354819D02*
X145991666Y-88402438D01*
X145991666Y-88402438D02*
X146039285Y-88450057D01*
X146039285Y-88450057D02*
X146086904Y-88545295D01*
X146086904Y-88545295D02*
X146134523Y-88735771D01*
X146134523Y-88735771D02*
X146134523Y-88973866D01*
X146134523Y-88973866D02*
X146086904Y-89164342D01*
X146086904Y-89164342D02*
X146039285Y-89259580D01*
X146039285Y-89259580D02*
X145991666Y-89307200D01*
X145991666Y-89307200D02*
X145896428Y-89354819D01*
X145896428Y-89354819D02*
X145801190Y-89354819D01*
X145801190Y-89354819D02*
X145705952Y-89307200D01*
X145705952Y-89307200D02*
X145658333Y-89259580D01*
X145658333Y-89259580D02*
X145610714Y-89164342D01*
X145610714Y-89164342D02*
X145563095Y-88973866D01*
X145563095Y-88973866D02*
X145563095Y-88735771D01*
X145563095Y-88735771D02*
X145610714Y-88545295D01*
X145610714Y-88545295D02*
X145658333Y-88450057D01*
X145658333Y-88450057D02*
X145705952Y-88402438D01*
X145705952Y-88402438D02*
X145801190Y-88354819D01*
X213635476Y-71327200D02*
X213778333Y-71374819D01*
X213778333Y-71374819D02*
X214016428Y-71374819D01*
X214016428Y-71374819D02*
X214111666Y-71327200D01*
X214111666Y-71327200D02*
X214159285Y-71279580D01*
X214159285Y-71279580D02*
X214206904Y-71184342D01*
X214206904Y-71184342D02*
X214206904Y-71089104D01*
X214206904Y-71089104D02*
X214159285Y-70993866D01*
X214159285Y-70993866D02*
X214111666Y-70946247D01*
X214111666Y-70946247D02*
X214016428Y-70898628D01*
X214016428Y-70898628D02*
X213825952Y-70851009D01*
X213825952Y-70851009D02*
X213730714Y-70803390D01*
X213730714Y-70803390D02*
X213683095Y-70755771D01*
X213683095Y-70755771D02*
X213635476Y-70660533D01*
X213635476Y-70660533D02*
X213635476Y-70565295D01*
X213635476Y-70565295D02*
X213683095Y-70470057D01*
X213683095Y-70470057D02*
X213730714Y-70422438D01*
X213730714Y-70422438D02*
X213825952Y-70374819D01*
X213825952Y-70374819D02*
X214064047Y-70374819D01*
X214064047Y-70374819D02*
X214206904Y-70422438D01*
X214540238Y-70374819D02*
X214778333Y-71374819D01*
X214778333Y-71374819D02*
X214968809Y-70660533D01*
X214968809Y-70660533D02*
X215159285Y-71374819D01*
X215159285Y-71374819D02*
X215397381Y-70374819D01*
X216302142Y-71374819D02*
X215730714Y-71374819D01*
X216016428Y-71374819D02*
X216016428Y-70374819D01*
X216016428Y-70374819D02*
X215921190Y-70517676D01*
X215921190Y-70517676D02*
X215825952Y-70612914D01*
X215825952Y-70612914D02*
X215730714Y-70660533D01*
X217254523Y-71374819D02*
X216683095Y-71374819D01*
X216968809Y-71374819D02*
X216968809Y-70374819D01*
X216968809Y-70374819D02*
X216873571Y-70517676D01*
X216873571Y-70517676D02*
X216778333Y-70612914D01*
X216778333Y-70612914D02*
X216683095Y-70660533D01*
X214151667Y-35827200D02*
X214294524Y-35874819D01*
X214294524Y-35874819D02*
X214532619Y-35874819D01*
X214532619Y-35874819D02*
X214627857Y-35827200D01*
X214627857Y-35827200D02*
X214675476Y-35779580D01*
X214675476Y-35779580D02*
X214723095Y-35684342D01*
X214723095Y-35684342D02*
X214723095Y-35589104D01*
X214723095Y-35589104D02*
X214675476Y-35493866D01*
X214675476Y-35493866D02*
X214627857Y-35446247D01*
X214627857Y-35446247D02*
X214532619Y-35398628D01*
X214532619Y-35398628D02*
X214342143Y-35351009D01*
X214342143Y-35351009D02*
X214246905Y-35303390D01*
X214246905Y-35303390D02*
X214199286Y-35255771D01*
X214199286Y-35255771D02*
X214151667Y-35160533D01*
X214151667Y-35160533D02*
X214151667Y-35065295D01*
X214151667Y-35065295D02*
X214199286Y-34970057D01*
X214199286Y-34970057D02*
X214246905Y-34922438D01*
X214246905Y-34922438D02*
X214342143Y-34874819D01*
X214342143Y-34874819D02*
X214580238Y-34874819D01*
X214580238Y-34874819D02*
X214723095Y-34922438D01*
X215056429Y-34874819D02*
X215294524Y-35874819D01*
X215294524Y-35874819D02*
X215485000Y-35160533D01*
X215485000Y-35160533D02*
X215675476Y-35874819D01*
X215675476Y-35874819D02*
X215913572Y-34874819D01*
X216818333Y-35874819D02*
X216246905Y-35874819D01*
X216532619Y-35874819D02*
X216532619Y-34874819D01*
X216532619Y-34874819D02*
X216437381Y-35017676D01*
X216437381Y-35017676D02*
X216342143Y-35112914D01*
X216342143Y-35112914D02*
X216246905Y-35160533D01*
X195895476Y-71327200D02*
X196038333Y-71374819D01*
X196038333Y-71374819D02*
X196276428Y-71374819D01*
X196276428Y-71374819D02*
X196371666Y-71327200D01*
X196371666Y-71327200D02*
X196419285Y-71279580D01*
X196419285Y-71279580D02*
X196466904Y-71184342D01*
X196466904Y-71184342D02*
X196466904Y-71089104D01*
X196466904Y-71089104D02*
X196419285Y-70993866D01*
X196419285Y-70993866D02*
X196371666Y-70946247D01*
X196371666Y-70946247D02*
X196276428Y-70898628D01*
X196276428Y-70898628D02*
X196085952Y-70851009D01*
X196085952Y-70851009D02*
X195990714Y-70803390D01*
X195990714Y-70803390D02*
X195943095Y-70755771D01*
X195943095Y-70755771D02*
X195895476Y-70660533D01*
X195895476Y-70660533D02*
X195895476Y-70565295D01*
X195895476Y-70565295D02*
X195943095Y-70470057D01*
X195943095Y-70470057D02*
X195990714Y-70422438D01*
X195990714Y-70422438D02*
X196085952Y-70374819D01*
X196085952Y-70374819D02*
X196324047Y-70374819D01*
X196324047Y-70374819D02*
X196466904Y-70422438D01*
X196800238Y-70374819D02*
X197038333Y-71374819D01*
X197038333Y-71374819D02*
X197228809Y-70660533D01*
X197228809Y-70660533D02*
X197419285Y-71374819D01*
X197419285Y-71374819D02*
X197657381Y-70374819D01*
X198562142Y-71374819D02*
X197990714Y-71374819D01*
X198276428Y-71374819D02*
X198276428Y-70374819D01*
X198276428Y-70374819D02*
X198181190Y-70517676D01*
X198181190Y-70517676D02*
X198085952Y-70612914D01*
X198085952Y-70612914D02*
X197990714Y-70660533D01*
X198943095Y-70470057D02*
X198990714Y-70422438D01*
X198990714Y-70422438D02*
X199085952Y-70374819D01*
X199085952Y-70374819D02*
X199324047Y-70374819D01*
X199324047Y-70374819D02*
X199419285Y-70422438D01*
X199419285Y-70422438D02*
X199466904Y-70470057D01*
X199466904Y-70470057D02*
X199514523Y-70565295D01*
X199514523Y-70565295D02*
X199514523Y-70660533D01*
X199514523Y-70660533D02*
X199466904Y-70803390D01*
X199466904Y-70803390D02*
X198895476Y-71374819D01*
X198895476Y-71374819D02*
X199514523Y-71374819D01*
X142515476Y-53747200D02*
X142658333Y-53794819D01*
X142658333Y-53794819D02*
X142896428Y-53794819D01*
X142896428Y-53794819D02*
X142991666Y-53747200D01*
X142991666Y-53747200D02*
X143039285Y-53699580D01*
X143039285Y-53699580D02*
X143086904Y-53604342D01*
X143086904Y-53604342D02*
X143086904Y-53509104D01*
X143086904Y-53509104D02*
X143039285Y-53413866D01*
X143039285Y-53413866D02*
X142991666Y-53366247D01*
X142991666Y-53366247D02*
X142896428Y-53318628D01*
X142896428Y-53318628D02*
X142705952Y-53271009D01*
X142705952Y-53271009D02*
X142610714Y-53223390D01*
X142610714Y-53223390D02*
X142563095Y-53175771D01*
X142563095Y-53175771D02*
X142515476Y-53080533D01*
X142515476Y-53080533D02*
X142515476Y-52985295D01*
X142515476Y-52985295D02*
X142563095Y-52890057D01*
X142563095Y-52890057D02*
X142610714Y-52842438D01*
X142610714Y-52842438D02*
X142705952Y-52794819D01*
X142705952Y-52794819D02*
X142944047Y-52794819D01*
X142944047Y-52794819D02*
X143086904Y-52842438D01*
X143420238Y-52794819D02*
X143658333Y-53794819D01*
X143658333Y-53794819D02*
X143848809Y-53080533D01*
X143848809Y-53080533D02*
X144039285Y-53794819D01*
X144039285Y-53794819D02*
X144277381Y-52794819D01*
X145182142Y-53794819D02*
X144610714Y-53794819D01*
X144896428Y-53794819D02*
X144896428Y-52794819D01*
X144896428Y-52794819D02*
X144801190Y-52937676D01*
X144801190Y-52937676D02*
X144705952Y-53032914D01*
X144705952Y-53032914D02*
X144610714Y-53080533D01*
X145801190Y-52794819D02*
X145896428Y-52794819D01*
X145896428Y-52794819D02*
X145991666Y-52842438D01*
X145991666Y-52842438D02*
X146039285Y-52890057D01*
X146039285Y-52890057D02*
X146086904Y-52985295D01*
X146086904Y-52985295D02*
X146134523Y-53175771D01*
X146134523Y-53175771D02*
X146134523Y-53413866D01*
X146134523Y-53413866D02*
X146086904Y-53604342D01*
X146086904Y-53604342D02*
X146039285Y-53699580D01*
X146039285Y-53699580D02*
X145991666Y-53747200D01*
X145991666Y-53747200D02*
X145896428Y-53794819D01*
X145896428Y-53794819D02*
X145801190Y-53794819D01*
X145801190Y-53794819D02*
X145705952Y-53747200D01*
X145705952Y-53747200D02*
X145658333Y-53699580D01*
X145658333Y-53699580D02*
X145610714Y-53604342D01*
X145610714Y-53604342D02*
X145563095Y-53413866D01*
X145563095Y-53413866D02*
X145563095Y-53175771D01*
X145563095Y-53175771D02*
X145610714Y-52985295D01*
X145610714Y-52985295D02*
X145658333Y-52890057D01*
X145658333Y-52890057D02*
X145705952Y-52842438D01*
X145705952Y-52842438D02*
X145801190Y-52794819D01*
D12*
X205495000Y-111975000D02*
X205565000Y-111975000D01*
X205495000Y-111975000D02*
G75*
G03*
X205495000Y-111975000I-1370000J0D01*
G01*
X203955000Y-59530000D02*
X191655000Y-59530000D01*
X203955000Y-57410000D02*
X203955000Y-59530000D01*
X203955000Y-52410000D02*
X203955000Y-54350000D01*
X203955000Y-47230000D02*
X203955000Y-49350000D01*
X191655000Y-59530000D02*
X191655000Y-57410000D01*
X191655000Y-54350000D02*
X191655000Y-52410000D01*
X191655000Y-49350000D02*
X191655000Y-47230000D01*
X191655000Y-47230000D02*
X203955000Y-47230000D01*
X202284050Y-53340000D02*
G75*
G03*
X202284050Y-53340000I-4579050J0D01*
G01*
X186095000Y-59530000D02*
X173795000Y-59530000D01*
X186095000Y-57410000D02*
X186095000Y-59530000D01*
X186095000Y-52410000D02*
X186095000Y-54350000D01*
X186095000Y-47230000D02*
X186095000Y-49350000D01*
X173795000Y-59530000D02*
X173795000Y-57410000D01*
X173795000Y-54350000D02*
X173795000Y-52410000D01*
X173795000Y-49350000D02*
X173795000Y-47230000D01*
X173795000Y-47230000D02*
X186095000Y-47230000D01*
X184424050Y-53340000D02*
G75*
G03*
X184424050Y-53340000I-4579050J0D01*
G01*
X141595000Y-27740000D02*
X142245000Y-27740000D01*
X142245000Y-26620000D02*
X142245000Y-28860000D01*
X142245000Y-28860000D02*
X146485000Y-28860000D01*
X142845000Y-26620000D02*
X142845000Y-28860000D01*
X142965000Y-26620000D02*
X142965000Y-28860000D01*
X143085000Y-26620000D02*
X143085000Y-28860000D01*
X146485000Y-26620000D02*
X142245000Y-26620000D01*
X146485000Y-28860000D02*
X146485000Y-26620000D01*
X147135000Y-27740000D02*
X146485000Y-27740000D01*
X159375000Y-45520000D02*
X160025000Y-45520000D01*
X160025000Y-44400000D02*
X160025000Y-46640000D01*
X160025000Y-46640000D02*
X164265000Y-46640000D01*
X160625000Y-44400000D02*
X160625000Y-46640000D01*
X160745000Y-44400000D02*
X160745000Y-46640000D01*
X160865000Y-44400000D02*
X160865000Y-46640000D01*
X164265000Y-44400000D02*
X160025000Y-44400000D01*
X164265000Y-46640000D02*
X164265000Y-44400000D01*
X164915000Y-45520000D02*
X164265000Y-45520000D01*
X186135000Y-95090000D02*
X173835000Y-95090000D01*
X186135000Y-92970000D02*
X186135000Y-95090000D01*
X186135000Y-87970000D02*
X186135000Y-89910000D01*
X186135000Y-82790000D02*
X186135000Y-84910000D01*
X173835000Y-95090000D02*
X173835000Y-92970000D01*
X173835000Y-89910000D02*
X173835000Y-87970000D01*
X173835000Y-84910000D02*
X173835000Y-82790000D01*
X173835000Y-82790000D02*
X186135000Y-82790000D01*
X184464050Y-88900000D02*
G75*
G03*
X184464050Y-88900000I-4579050J0D01*
G01*
X212715000Y-27740000D02*
X213365000Y-27740000D01*
X213365000Y-26620000D02*
X213365000Y-28860000D01*
X213365000Y-28860000D02*
X217605000Y-28860000D01*
X213965000Y-26620000D02*
X213965000Y-28860000D01*
X214085000Y-26620000D02*
X214085000Y-28860000D01*
X214205000Y-26620000D02*
X214205000Y-28860000D01*
X217605000Y-26620000D02*
X213365000Y-26620000D01*
X217605000Y-28860000D02*
X217605000Y-26620000D01*
X218255000Y-27740000D02*
X217605000Y-27740000D01*
X221735000Y-95090000D02*
X209435000Y-95090000D01*
X221735000Y-92970000D02*
X221735000Y-95090000D01*
X221735000Y-87970000D02*
X221735000Y-89910000D01*
X221735000Y-82790000D02*
X221735000Y-84910000D01*
X209435000Y-95090000D02*
X209435000Y-92970000D01*
X209435000Y-89910000D02*
X209435000Y-87970000D01*
X209435000Y-84910000D02*
X209435000Y-82790000D01*
X209435000Y-82790000D02*
X221735000Y-82790000D01*
X220064050Y-88900000D02*
G75*
G03*
X220064050Y-88900000I-4579050J0D01*
G01*
X168355000Y-95090000D02*
X156055000Y-95090000D01*
X168355000Y-92970000D02*
X168355000Y-95090000D01*
X168355000Y-87970000D02*
X168355000Y-89910000D01*
X168355000Y-82790000D02*
X168355000Y-84910000D01*
X156055000Y-95090000D02*
X156055000Y-92970000D01*
X156055000Y-89910000D02*
X156055000Y-87970000D01*
X156055000Y-84910000D02*
X156055000Y-82790000D01*
X156055000Y-82790000D02*
X168355000Y-82790000D01*
X166684050Y-88900000D02*
G75*
G03*
X166684050Y-88900000I-4579050J0D01*
G01*
X194935000Y-81080000D02*
X195585000Y-81080000D01*
X195585000Y-79960000D02*
X195585000Y-82200000D01*
X195585000Y-82200000D02*
X199825000Y-82200000D01*
X196185000Y-79960000D02*
X196185000Y-82200000D01*
X196305000Y-79960000D02*
X196305000Y-82200000D01*
X196425000Y-79960000D02*
X196425000Y-82200000D01*
X199825000Y-79960000D02*
X195585000Y-79960000D01*
X199825000Y-82200000D02*
X199825000Y-79960000D01*
X200475000Y-81080000D02*
X199825000Y-81080000D01*
X186135000Y-77110000D02*
X173835000Y-77110000D01*
X186135000Y-74990000D02*
X186135000Y-77110000D01*
X186135000Y-69990000D02*
X186135000Y-71930000D01*
X186135000Y-64810000D02*
X186135000Y-66930000D01*
X173835000Y-77110000D02*
X173835000Y-74990000D01*
X173835000Y-71930000D02*
X173835000Y-69990000D01*
X173835000Y-66930000D02*
X173835000Y-64810000D01*
X173835000Y-64810000D02*
X186135000Y-64810000D01*
X184464050Y-70920000D02*
G75*
G03*
X184464050Y-70920000I-4579050J0D01*
G01*
X221735000Y-59530000D02*
X209435000Y-59530000D01*
X221735000Y-57410000D02*
X221735000Y-59530000D01*
X221735000Y-52410000D02*
X221735000Y-54350000D01*
X221735000Y-47230000D02*
X221735000Y-49350000D01*
X209435000Y-59530000D02*
X209435000Y-57410000D01*
X209435000Y-54350000D02*
X209435000Y-52410000D01*
X209435000Y-49350000D02*
X209435000Y-47230000D01*
X209435000Y-47230000D02*
X221735000Y-47230000D01*
X220064050Y-53340000D02*
G75*
G03*
X220064050Y-53340000I-4579050J0D01*
G01*
X216795000Y-112000000D02*
X216865000Y-112000000D01*
X216795000Y-112000000D02*
G75*
G03*
X216795000Y-112000000I-1370000J0D01*
G01*
X199820000Y-111975000D02*
X199890000Y-111975000D01*
X199820000Y-111975000D02*
G75*
G03*
X199820000Y-111975000I-1370000J0D01*
G01*
X177155000Y-81080000D02*
X177805000Y-81080000D01*
X177805000Y-79960000D02*
X177805000Y-82200000D01*
X177805000Y-82200000D02*
X182045000Y-82200000D01*
X178405000Y-79960000D02*
X178405000Y-82200000D01*
X178525000Y-79960000D02*
X178525000Y-82200000D01*
X178645000Y-79960000D02*
X178645000Y-82200000D01*
X182045000Y-79960000D02*
X177805000Y-79960000D01*
X182045000Y-82200000D02*
X182045000Y-79960000D01*
X182695000Y-81080000D02*
X182045000Y-81080000D01*
X212715000Y-81080000D02*
X213365000Y-81080000D01*
X213365000Y-79960000D02*
X213365000Y-82200000D01*
X213365000Y-82200000D02*
X217605000Y-82200000D01*
X213965000Y-79960000D02*
X213965000Y-82200000D01*
X214085000Y-79960000D02*
X214085000Y-82200000D01*
X214205000Y-79960000D02*
X214205000Y-82200000D01*
X217605000Y-79960000D02*
X213365000Y-79960000D01*
X217605000Y-82200000D02*
X217605000Y-79960000D01*
X218255000Y-81080000D02*
X217605000Y-81080000D01*
X194935000Y-27740000D02*
X195585000Y-27740000D01*
X195585000Y-26620000D02*
X195585000Y-28860000D01*
X195585000Y-28860000D02*
X199825000Y-28860000D01*
X196185000Y-26620000D02*
X196185000Y-28860000D01*
X196305000Y-26620000D02*
X196305000Y-28860000D01*
X196425000Y-26620000D02*
X196425000Y-28860000D01*
X199825000Y-26620000D02*
X195585000Y-26620000D01*
X199825000Y-28860000D02*
X199825000Y-26620000D01*
X200475000Y-27740000D02*
X199825000Y-27740000D01*
X186095000Y-41610000D02*
X173795000Y-41610000D01*
X186095000Y-39490000D02*
X186095000Y-41610000D01*
X186095000Y-34490000D02*
X186095000Y-36430000D01*
X186095000Y-29310000D02*
X186095000Y-31430000D01*
X173795000Y-41610000D02*
X173795000Y-39490000D01*
X173795000Y-36430000D02*
X173795000Y-34490000D01*
X173795000Y-31430000D02*
X173795000Y-29310000D01*
X173795000Y-29310000D02*
X186095000Y-29310000D01*
X184424050Y-35420000D02*
G75*
G03*
X184424050Y-35420000I-4579050J0D01*
G01*
X212715000Y-45520000D02*
X213365000Y-45520000D01*
X213365000Y-44400000D02*
X213365000Y-46640000D01*
X213365000Y-46640000D02*
X217605000Y-46640000D01*
X213965000Y-44400000D02*
X213965000Y-46640000D01*
X214085000Y-44400000D02*
X214085000Y-46640000D01*
X214205000Y-44400000D02*
X214205000Y-46640000D01*
X217605000Y-44400000D02*
X213365000Y-44400000D01*
X217605000Y-46640000D02*
X217605000Y-44400000D01*
X218255000Y-45520000D02*
X217605000Y-45520000D01*
X141595000Y-45520000D02*
X142245000Y-45520000D01*
X142245000Y-44400000D02*
X142245000Y-46640000D01*
X142245000Y-46640000D02*
X146485000Y-46640000D01*
X142845000Y-44400000D02*
X142845000Y-46640000D01*
X142965000Y-44400000D02*
X142965000Y-46640000D01*
X143085000Y-44400000D02*
X143085000Y-46640000D01*
X146485000Y-44400000D02*
X142245000Y-44400000D01*
X146485000Y-46640000D02*
X146485000Y-44400000D01*
X147135000Y-45520000D02*
X146485000Y-45520000D01*
X150615000Y-41610000D02*
X138315000Y-41610000D01*
X150615000Y-39490000D02*
X150615000Y-41610000D01*
X150615000Y-34490000D02*
X150615000Y-36430000D01*
X150615000Y-29310000D02*
X150615000Y-31430000D01*
X138315000Y-41610000D02*
X138315000Y-39490000D01*
X138315000Y-36430000D02*
X138315000Y-34490000D01*
X138315000Y-31430000D02*
X138315000Y-29310000D01*
X138315000Y-29310000D02*
X150615000Y-29310000D01*
X148944050Y-35420000D02*
G75*
G03*
X148944050Y-35420000I-4579050J0D01*
G01*
X203875000Y-41610000D02*
X191575000Y-41610000D01*
X203875000Y-39490000D02*
X203875000Y-41610000D01*
X203875000Y-34490000D02*
X203875000Y-36430000D01*
X203875000Y-29310000D02*
X203875000Y-31430000D01*
X191575000Y-41610000D02*
X191575000Y-39490000D01*
X191575000Y-36430000D02*
X191575000Y-34490000D01*
X191575000Y-31430000D02*
X191575000Y-29310000D01*
X191575000Y-29310000D02*
X203875000Y-29310000D01*
X202204050Y-35420000D02*
G75*
G03*
X202204050Y-35420000I-4579050J0D01*
G01*
X168315000Y-41610000D02*
X156015000Y-41610000D01*
X168315000Y-39490000D02*
X168315000Y-41610000D01*
X168315000Y-34490000D02*
X168315000Y-36430000D01*
X168315000Y-29310000D02*
X168315000Y-31430000D01*
X156015000Y-41610000D02*
X156015000Y-39490000D01*
X156015000Y-36430000D02*
X156015000Y-34490000D01*
X156015000Y-31430000D02*
X156015000Y-29310000D01*
X156015000Y-29310000D02*
X168315000Y-29310000D01*
X166644050Y-35420000D02*
G75*
G03*
X166644050Y-35420000I-4579050J0D01*
G01*
X194220000Y-111850000D02*
X194290000Y-111850000D01*
X194220000Y-111850000D02*
G75*
G03*
X194220000Y-111850000I-1370000J0D01*
G01*
X150575000Y-77110000D02*
X138275000Y-77110000D01*
X150575000Y-74990000D02*
X150575000Y-77110000D01*
X150575000Y-69990000D02*
X150575000Y-71930000D01*
X150575000Y-64810000D02*
X150575000Y-66930000D01*
X138275000Y-77110000D02*
X138275000Y-74990000D01*
X138275000Y-71930000D02*
X138275000Y-69990000D01*
X138275000Y-66930000D02*
X138275000Y-64810000D01*
X138275000Y-64810000D02*
X150575000Y-64810000D01*
X148904050Y-70920000D02*
G75*
G03*
X148904050Y-70920000I-4579050J0D01*
G01*
X177155000Y-27740000D02*
X177805000Y-27740000D01*
X177805000Y-26620000D02*
X177805000Y-28860000D01*
X177805000Y-28860000D02*
X182045000Y-28860000D01*
X178405000Y-26620000D02*
X178405000Y-28860000D01*
X178525000Y-26620000D02*
X178525000Y-28860000D01*
X178645000Y-26620000D02*
X178645000Y-28860000D01*
X182045000Y-26620000D02*
X177805000Y-26620000D01*
X182045000Y-28860000D02*
X182045000Y-26620000D01*
X182695000Y-27740000D02*
X182045000Y-27740000D01*
X159375000Y-27740000D02*
X160025000Y-27740000D01*
X160025000Y-26620000D02*
X160025000Y-28860000D01*
X160025000Y-28860000D02*
X164265000Y-28860000D01*
X160625000Y-26620000D02*
X160625000Y-28860000D01*
X160745000Y-26620000D02*
X160745000Y-28860000D01*
X160865000Y-26620000D02*
X160865000Y-28860000D01*
X164265000Y-26620000D02*
X160025000Y-26620000D01*
X164265000Y-28860000D02*
X164265000Y-26620000D01*
X164915000Y-27740000D02*
X164265000Y-27740000D01*
X168355000Y-77110000D02*
X156055000Y-77110000D01*
X168355000Y-74990000D02*
X168355000Y-77110000D01*
X168355000Y-69990000D02*
X168355000Y-71930000D01*
X168355000Y-64810000D02*
X168355000Y-66930000D01*
X156055000Y-77110000D02*
X156055000Y-74990000D01*
X156055000Y-71930000D02*
X156055000Y-69990000D01*
X156055000Y-66930000D02*
X156055000Y-64810000D01*
X156055000Y-64810000D02*
X168355000Y-64810000D01*
X166684050Y-70920000D02*
G75*
G03*
X166684050Y-70920000I-4579050J0D01*
G01*
X212715000Y-63300000D02*
X213365000Y-63300000D01*
X213365000Y-62180000D02*
X213365000Y-64420000D01*
X213365000Y-64420000D02*
X217605000Y-64420000D01*
X213965000Y-62180000D02*
X213965000Y-64420000D01*
X214085000Y-62180000D02*
X214085000Y-64420000D01*
X214205000Y-62180000D02*
X214205000Y-64420000D01*
X217605000Y-62180000D02*
X213365000Y-62180000D01*
X217605000Y-64420000D02*
X217605000Y-62180000D01*
X218255000Y-63300000D02*
X217605000Y-63300000D01*
X177155000Y-63300000D02*
X177805000Y-63300000D01*
X177805000Y-62180000D02*
X177805000Y-64420000D01*
X177805000Y-64420000D02*
X182045000Y-64420000D01*
X178405000Y-62180000D02*
X178405000Y-64420000D01*
X178525000Y-62180000D02*
X178525000Y-64420000D01*
X178645000Y-62180000D02*
X178645000Y-64420000D01*
X182045000Y-62180000D02*
X177805000Y-62180000D01*
X182045000Y-64420000D02*
X182045000Y-62180000D01*
X182695000Y-63300000D02*
X182045000Y-63300000D01*
X162050000Y-105205000D02*
X162050000Y-103875000D01*
X163380000Y-105205000D02*
X162050000Y-105205000D01*
X164650000Y-105205000D02*
X187570000Y-105205000D01*
X164650000Y-105205000D02*
X164650000Y-102545000D01*
X187570000Y-105205000D02*
X187570000Y-102545000D01*
X164650000Y-102545000D02*
X187570000Y-102545000D01*
X159375000Y-63300000D02*
X160025000Y-63300000D01*
X160025000Y-62180000D02*
X160025000Y-64420000D01*
X160025000Y-64420000D02*
X164265000Y-64420000D01*
X160625000Y-62180000D02*
X160625000Y-64420000D01*
X160745000Y-62180000D02*
X160745000Y-64420000D01*
X160865000Y-62180000D02*
X160865000Y-64420000D01*
X164265000Y-62180000D02*
X160025000Y-62180000D01*
X164265000Y-64420000D02*
X164265000Y-62180000D01*
X164915000Y-63300000D02*
X164265000Y-63300000D01*
X141595000Y-63300000D02*
X142245000Y-63300000D01*
X142245000Y-62180000D02*
X142245000Y-64420000D01*
X142245000Y-64420000D02*
X146485000Y-64420000D01*
X142845000Y-62180000D02*
X142845000Y-64420000D01*
X142965000Y-62180000D02*
X142965000Y-64420000D01*
X143085000Y-62180000D02*
X143085000Y-64420000D01*
X146485000Y-62180000D02*
X142245000Y-62180000D01*
X146485000Y-64420000D02*
X146485000Y-62180000D01*
X147135000Y-63300000D02*
X146485000Y-63300000D01*
X177155000Y-45520000D02*
X177805000Y-45520000D01*
X177805000Y-44400000D02*
X177805000Y-46640000D01*
X177805000Y-46640000D02*
X182045000Y-46640000D01*
X178405000Y-44400000D02*
X178405000Y-46640000D01*
X178525000Y-44400000D02*
X178525000Y-46640000D01*
X178645000Y-44400000D02*
X178645000Y-46640000D01*
X182045000Y-44400000D02*
X177805000Y-44400000D01*
X182045000Y-46640000D02*
X182045000Y-44400000D01*
X182695000Y-45520000D02*
X182045000Y-45520000D01*
X203955000Y-95090000D02*
X191655000Y-95090000D01*
X203955000Y-92970000D02*
X203955000Y-95090000D01*
X203955000Y-87970000D02*
X203955000Y-89910000D01*
X203955000Y-82790000D02*
X203955000Y-84910000D01*
X191655000Y-95090000D02*
X191655000Y-92970000D01*
X191655000Y-89910000D02*
X191655000Y-87970000D01*
X191655000Y-84910000D02*
X191655000Y-82790000D01*
X191655000Y-82790000D02*
X203955000Y-82790000D01*
X202284050Y-88900000D02*
G75*
G03*
X202284050Y-88900000I-4579050J0D01*
G01*
X168355000Y-59530000D02*
X156055000Y-59530000D01*
X168355000Y-57410000D02*
X168355000Y-59530000D01*
X168355000Y-52410000D02*
X168355000Y-54350000D01*
X168355000Y-47230000D02*
X168355000Y-49350000D01*
X156055000Y-59530000D02*
X156055000Y-57410000D01*
X156055000Y-54350000D02*
X156055000Y-52410000D01*
X156055000Y-49350000D02*
X156055000Y-47230000D01*
X156055000Y-47230000D02*
X168355000Y-47230000D01*
X166684050Y-53340000D02*
G75*
G03*
X166684050Y-53340000I-4579050J0D01*
G01*
X194935000Y-63300000D02*
X195585000Y-63300000D01*
X195585000Y-62180000D02*
X195585000Y-64420000D01*
X195585000Y-64420000D02*
X199825000Y-64420000D01*
X196185000Y-62180000D02*
X196185000Y-64420000D01*
X196305000Y-62180000D02*
X196305000Y-64420000D01*
X196425000Y-62180000D02*
X196425000Y-64420000D01*
X199825000Y-62180000D02*
X195585000Y-62180000D01*
X199825000Y-64420000D02*
X199825000Y-62180000D01*
X200475000Y-63300000D02*
X199825000Y-63300000D01*
X141595000Y-81080000D02*
X142245000Y-81080000D01*
X142245000Y-79960000D02*
X142245000Y-82200000D01*
X142245000Y-82200000D02*
X146485000Y-82200000D01*
X142845000Y-79960000D02*
X142845000Y-82200000D01*
X142965000Y-79960000D02*
X142965000Y-82200000D01*
X143085000Y-79960000D02*
X143085000Y-82200000D01*
X146485000Y-79960000D02*
X142245000Y-79960000D01*
X146485000Y-82200000D02*
X146485000Y-79960000D01*
X147135000Y-81080000D02*
X146485000Y-81080000D01*
X211120000Y-111975000D02*
X211190000Y-111975000D01*
X211120000Y-111975000D02*
G75*
G03*
X211120000Y-111975000I-1370000J0D01*
G01*
X150575000Y-95090000D02*
X138275000Y-95090000D01*
X150575000Y-92970000D02*
X150575000Y-95090000D01*
X150575000Y-87970000D02*
X150575000Y-89910000D01*
X150575000Y-82790000D02*
X150575000Y-84910000D01*
X138275000Y-95090000D02*
X138275000Y-92970000D01*
X138275000Y-89910000D02*
X138275000Y-87970000D01*
X138275000Y-84910000D02*
X138275000Y-82790000D01*
X138275000Y-82790000D02*
X150575000Y-82790000D01*
X148904050Y-88900000D02*
G75*
G03*
X148904050Y-88900000I-4579050J0D01*
G01*
X159375000Y-81080000D02*
X160025000Y-81080000D01*
X160025000Y-79960000D02*
X160025000Y-82200000D01*
X160025000Y-82200000D02*
X164265000Y-82200000D01*
X160625000Y-79960000D02*
X160625000Y-82200000D01*
X160745000Y-79960000D02*
X160745000Y-82200000D01*
X160865000Y-79960000D02*
X160865000Y-82200000D01*
X164265000Y-79960000D02*
X160025000Y-79960000D01*
X164265000Y-82200000D02*
X164265000Y-79960000D01*
X164915000Y-81080000D02*
X164265000Y-81080000D01*
X194935000Y-45520000D02*
X195585000Y-45520000D01*
X195585000Y-44400000D02*
X195585000Y-46640000D01*
X195585000Y-46640000D02*
X199825000Y-46640000D01*
X196185000Y-44400000D02*
X196185000Y-46640000D01*
X196305000Y-44400000D02*
X196305000Y-46640000D01*
X196425000Y-44400000D02*
X196425000Y-46640000D01*
X199825000Y-44400000D02*
X195585000Y-44400000D01*
X199825000Y-46640000D02*
X199825000Y-44400000D01*
X200475000Y-45520000D02*
X199825000Y-45520000D01*
X221695000Y-77110000D02*
X209395000Y-77110000D01*
X221695000Y-74990000D02*
X221695000Y-77110000D01*
X221695000Y-69990000D02*
X221695000Y-71930000D01*
X221695000Y-64810000D02*
X221695000Y-66930000D01*
X209395000Y-77110000D02*
X209395000Y-74990000D01*
X209395000Y-71930000D02*
X209395000Y-69990000D01*
X209395000Y-66930000D02*
X209395000Y-64810000D01*
X209395000Y-64810000D02*
X221695000Y-64810000D01*
X220024050Y-70920000D02*
G75*
G03*
X220024050Y-70920000I-4579050J0D01*
G01*
X221735000Y-41610000D02*
X209435000Y-41610000D01*
X221735000Y-39490000D02*
X221735000Y-41610000D01*
X221735000Y-34490000D02*
X221735000Y-36430000D01*
X221735000Y-29310000D02*
X221735000Y-31430000D01*
X209435000Y-41610000D02*
X209435000Y-39490000D01*
X209435000Y-36430000D02*
X209435000Y-34490000D01*
X209435000Y-31430000D02*
X209435000Y-29310000D01*
X209435000Y-29310000D02*
X221735000Y-29310000D01*
X220064050Y-35420000D02*
G75*
G03*
X220064050Y-35420000I-4579050J0D01*
G01*
X203955000Y-77110000D02*
X191655000Y-77110000D01*
X203955000Y-74990000D02*
X203955000Y-77110000D01*
X203955000Y-69990000D02*
X203955000Y-71930000D01*
X203955000Y-64810000D02*
X203955000Y-66930000D01*
X191655000Y-77110000D02*
X191655000Y-74990000D01*
X191655000Y-71930000D02*
X191655000Y-69990000D01*
X191655000Y-66930000D02*
X191655000Y-64810000D01*
X191655000Y-64810000D02*
X203955000Y-64810000D01*
X202284050Y-70920000D02*
G75*
G03*
X202284050Y-70920000I-4579050J0D01*
G01*
X150575000Y-59530000D02*
X138275000Y-59530000D01*
X150575000Y-57410000D02*
X150575000Y-59530000D01*
X150575000Y-52410000D02*
X150575000Y-54350000D01*
X150575000Y-47230000D02*
X150575000Y-49350000D01*
X138275000Y-59530000D02*
X138275000Y-57410000D01*
X138275000Y-54350000D02*
X138275000Y-52410000D01*
X138275000Y-49350000D02*
X138275000Y-47230000D01*
X138275000Y-47230000D02*
X150575000Y-47230000D01*
X148904050Y-53340000D02*
G75*
G03*
X148904050Y-53340000I-4579050J0D01*
G01*
%LPC*%
D13*
X204125000Y-111975000D03*
D14*
X206665000Y-111975000D03*
D15*
X204055000Y-55880000D03*
X191555000Y-55880000D03*
X204055000Y-50880000D03*
X191555000Y-50880000D03*
X186195000Y-55880000D03*
X173695000Y-55880000D03*
X186195000Y-50880000D03*
X173695000Y-50880000D03*
D16*
X140555000Y-27740000D03*
D14*
X148175000Y-27740000D03*
D16*
X158335000Y-45520000D03*
D14*
X165955000Y-45520000D03*
D15*
X186235000Y-91440000D03*
X173735000Y-91440000D03*
X186235000Y-86440000D03*
X173735000Y-86440000D03*
D16*
X211675000Y-27740000D03*
D14*
X219295000Y-27740000D03*
D15*
X221835000Y-91440000D03*
X209335000Y-91440000D03*
X221835000Y-86440000D03*
X209335000Y-86440000D03*
X168455000Y-91440000D03*
X155955000Y-91440000D03*
X168455000Y-86440000D03*
X155955000Y-86440000D03*
D16*
X193895000Y-81080000D03*
D14*
X201515000Y-81080000D03*
D15*
X186235000Y-73460000D03*
X173735000Y-73460000D03*
X186235000Y-68460000D03*
X173735000Y-68460000D03*
X221835000Y-55880000D03*
X209335000Y-55880000D03*
X221835000Y-50880000D03*
X209335000Y-50880000D03*
D13*
X215425000Y-112000000D03*
D14*
X217965000Y-112000000D03*
D13*
X198450000Y-111975000D03*
D14*
X200990000Y-111975000D03*
D16*
X176115000Y-81080000D03*
D14*
X183735000Y-81080000D03*
D16*
X211675000Y-81080000D03*
D14*
X219295000Y-81080000D03*
D16*
X193895000Y-27740000D03*
D14*
X201515000Y-27740000D03*
D15*
X186195000Y-37960000D03*
X173695000Y-37960000D03*
X186195000Y-32960000D03*
X173695000Y-32960000D03*
D16*
X211675000Y-45520000D03*
D14*
X219295000Y-45520000D03*
D16*
X140555000Y-45520000D03*
D14*
X148175000Y-45520000D03*
D15*
X150715000Y-37960000D03*
X138215000Y-37960000D03*
X150715000Y-32960000D03*
X138215000Y-32960000D03*
X203975000Y-37960000D03*
X191475000Y-37960000D03*
X203975000Y-32960000D03*
X191475000Y-32960000D03*
X168415000Y-37960000D03*
X155915000Y-37960000D03*
X168415000Y-32960000D03*
X155915000Y-32960000D03*
D13*
X192850000Y-111850000D03*
D14*
X195390000Y-111850000D03*
D15*
X150675000Y-73460000D03*
X138175000Y-73460000D03*
X150675000Y-68460000D03*
X138175000Y-68460000D03*
D16*
X176115000Y-27740000D03*
D14*
X183735000Y-27740000D03*
D16*
X158335000Y-27740000D03*
D14*
X165955000Y-27740000D03*
D15*
X168455000Y-73460000D03*
X155955000Y-73460000D03*
X168455000Y-68460000D03*
X155955000Y-68460000D03*
D16*
X211675000Y-63300000D03*
D14*
X219295000Y-63300000D03*
D16*
X176115000Y-63300000D03*
D14*
X183735000Y-63300000D03*
D17*
X163380000Y-103875000D03*
D18*
X165920000Y-103875000D03*
X168460000Y-103875000D03*
X171000000Y-103875000D03*
X173540000Y-103875000D03*
X176080000Y-103875000D03*
X178620000Y-103875000D03*
X181160000Y-103875000D03*
X183700000Y-103875000D03*
X186240000Y-103875000D03*
D16*
X158335000Y-63300000D03*
D14*
X165955000Y-63300000D03*
D16*
X140555000Y-63300000D03*
D14*
X148175000Y-63300000D03*
D16*
X176115000Y-45520000D03*
D14*
X183735000Y-45520000D03*
D15*
X204055000Y-91440000D03*
X191555000Y-91440000D03*
X204055000Y-86440000D03*
X191555000Y-86440000D03*
X168455000Y-55880000D03*
X155955000Y-55880000D03*
X168455000Y-50880000D03*
X155955000Y-50880000D03*
D16*
X193895000Y-63300000D03*
D14*
X201515000Y-63300000D03*
D16*
X140555000Y-81080000D03*
D14*
X148175000Y-81080000D03*
D13*
X209750000Y-111975000D03*
D14*
X212290000Y-111975000D03*
D15*
X150675000Y-91440000D03*
X138175000Y-91440000D03*
X150675000Y-86440000D03*
X138175000Y-86440000D03*
D16*
X158335000Y-81080000D03*
D14*
X165955000Y-81080000D03*
D16*
X193895000Y-45520000D03*
D14*
X201515000Y-45520000D03*
D15*
X221795000Y-73460000D03*
X209295000Y-73460000D03*
X221795000Y-68460000D03*
X209295000Y-68460000D03*
X221835000Y-37960000D03*
X209335000Y-37960000D03*
X221835000Y-32960000D03*
X209335000Y-32960000D03*
X204055000Y-73460000D03*
X191555000Y-73460000D03*
X204055000Y-68460000D03*
X191555000Y-68460000D03*
X150675000Y-55880000D03*
X138175000Y-55880000D03*
X150675000Y-50880000D03*
X138175000Y-50880000D03*
%LPD*%
M02*
